<?xml version="1.0" encoding="utf-8"?>
<!-- Generator: Adobe Illustrator 22.1.0, SVG Export Plug-In . SVG Version: 6.00 Build 0)  -->
<svg version="1.1" id="Layer_1" xmlns="http://www.w3.org/2000/svg" xmlns:xlink="http://www.w3.org/1999/xlink" x="0px" y="0px"
	 viewBox="0 0 1024 1024" style="enable-background:new 0 0 1024 1024;" xml:space="preserve">
<g>
	<path d="M677.3,784c0.1,4.5,1.1,9.8,3.1,15.8c5.4,16.9,11.2,30.1,18.3,44.5c2.1,4.3,3.2,7.8,3.4,10.6c0.3,6.6-3.5,11.4-11.3,14.2
		c-20.6,7.6-31.8,11.8-33.7,12.5c-7.3,2.9-13.2,2.3-17.5-2c-1.9-1.9-4-5.9-6.4-11.9c-6.6-17.2-15.9-35.1-27.9-53.7
		c-4.2-6.6-7.9-11.7-10.9-15.2c-10.6-12.3-18.2-21.8-29.5-31.3c-7.5-6.3-15.6-12.5-24.4-18.4c-10-6.8-21.7-12.1-35.6-17
		c-8.8-3.1-17-6.8-24.6-11.3c-0.4-0.2-0.8-0.2-1.1,0c-29,16.4-62.9,22.9-94.5,12.4c-7.6-2.5-17-6.8-28.1-12.9
		c-17.6-9.6-33.7-19.8-42.6-36.8c-0.5-1-2.3-4.4-5.2-10.3c-5.2-10.4-8.8-17.7-22.3-13.6c-17.4,5.2-32.2,9.8-49.8,5.2
		c-0.6-0.2-5.3-1.8-14-4.8c-8.1-2.8-15.8-3.8-23-2.9c-9.4,1.1-15.9,1.8-19.5,1.9c-21.2,1-38.7-5.8-52.7-20.5
		c-8.5-8.9-11.5-22.4-23.1-29.4c-3.3-2-6.9-4.1-10-6.6c-13.6-11.1-21.8-25.9-24.5-44.6c-1.6-11,0.3-18.2,2.4-28.7
		c0.6-3.1,0.9-7.4,0.8-12.9c-0.4-23.4,2.3-43.6,14.8-63.7c0.9-1.5,1.4-3.7,1.3-6.7c-0.2-8.8-0.2-13.3-0.2-13.7
		c-0.2-12.8,2-28.6,9.7-39.1c8.4-11.6,18.3-22,29.5-31.3c2.6-2.2,4.7-6.1,6.2-10.2c2.8-7.7,4.8-12.7,5.9-15
		c6.4-13.5,15.7-24.5,27.7-32.9c13.3-9.3,26.3-16.1,41.8-24.2c3.5-1.8,7.1-4.9,11-9.1c4.6-5.2,8.6-9.6,12-13.2
		c17.1-18.4,38.2-25.6,63.1-25.9c1.3,0,2.4-0.5,3.3-1.4c1.3-1.3,2.9-3.3,4.7-5.8c8.7-12.2,24.7-19.9,40-26
		c18.3-7.4,37.6-7.1,57.5-4.8c2.7,0.3,5.4,0,8.2-0.9c8.3-2.8,16.8-5.4,25.5-7.8c23.1-6.4,47.8-8.9,71-7.5c15.2,0.9,26,3.8,39.7,8.9
		c3.1,1.1,5.5,0.8,8.8-0.5c5.4-2.2,9.8-4,13.2-5.3c6-2.3,13.9-3.5,23.8-3.6c24.5-0.3,47.6,6.6,69.4,15.9
		c10.7,4.6,18.2,11.9,26.1,18.6c0.9,0.8,2.1,1.3,3.3,1.4c19.4,1.4,38.1,5.6,56.2,12.7c12.5,4.9,24.5,11.1,33.2,20.3
		c8.2,8.7,15.1,19.7,19.6,26.4c6.8,10.2,17.3,12.8,27.5,18.1c8.3,4.3,15.3,10.5,20.9,18.6c6.6,9.5,11.5,19.1,14.7,29
		c2.7,8.2,5.2,15.1,7.5,20.9c1.3,3,3.2,5.8,6,8.4c6.2,5.8,12.9,10.7,18.6,17.5c14.7,17.6,20,38.1,17,61c-0.9,6.9,0.4,13.5,3.9,19.8
		c4.8,8.6,13.4,20.7,16.4,34.2c2.4,10.8,3.6,21.7,3.4,32.5c-0.1,6.7-1.1,13-3.6,19.7c-3.5,9.4-6.5,17.8-7.7,29.1
		c-1.1,10.5-2,19.1-2.7,25.9c-2.1,18.8-11.1,33.1-26.9,42.7c-1.6,1-5,2.6-10.2,4.8c-9.2,4-17.4,5.7-29.1,8.5
		c-4.7,1.1-7.9,2.9-7.9,8.2c0,12.2-1.1,23.6-3.4,34.1c-4.7,22-15.8,39.9-33.2,53.8c-22.6,17.9-48.6,24.6-78.1,24.8
		c-15,0.1-32.9,0-53.9-0.2C677.7,783.2,677.3,783.6,677.3,784C677.3,784,677.3,784,677.3,784z M843.7,383.8l-6.4,2.7
		c-0.3,0.1-0.5,0.5-0.4,0.9c0.1,0.3,0.4,0.4,0.6,0.4h9.5c0.4,0,0.7,0.2,0.9,0.5l0.2,0.4c0.2,0.3,0.1,0.8-0.2,1
		c-0.1,0.1-0.2,0.1-0.3,0.1c-2.5,0.3-4.5,1.2-5.8,2.6c-0.2,0.2-0.2,0.6,0,0.8c0.1,0.1,0.3,0.2,0.5,0.2c4.3-0.7,7.9,0.9,10.9,4.6
		c0.4,0.5,0.3,1.3-0.1,1.7c-0.1,0.1-0.1,0.1-0.2,0.1c-0.3,0.1-0.6,0.1-1.1-0.2c-4.4-2.3-8.8-2.9-13.2-1.9c-0.1,0-0.3,0.1-0.4,0.2
		l-2.9,2.1c-0.9,0.6-2.1,0.4-2.7-0.5c-0.1-0.1-0.1-0.2-0.2-0.3c-4.5-10.2-10.4-19.2-17.5-26.8c-4.7-5-10-10.9-14.9-14.1
		c-24.1-15.8-50.1-19.9-78-12.1c-2.3,0.7-4.9,2-7.6,3.9c-0.4,0.3-0.5,0.9-0.2,1.4c0.1,0.1,0.2,0.2,0.4,0.3c4.5,2.2,8.7,5.9,9,10.9
		c0,0.5-0.3,0.9-0.8,0.9c-0.2,0-0.4,0-0.5-0.2c-4.1-2.8-8.4-4.4-13-5c-7.7-0.9-14.7-0.8-25.1-0.7c-5.9,0.1-10.2-1.1-12.3-6.1
		c-2.3-5.7-4.1-10-5.2-12.8c-0.1-0.3,0-0.5,0.3-0.6c0.2-0.1,0.4,0,0.5,0.1l10.9,10.9c0.2,0.2,0.6,0.2,0.8,0c0.1-0.1,0.1-0.2,0.2-0.3
		c1.4-8-3.4-13.3-9-18.5c-0.2-0.2-0.3-0.4-0.4-0.7c0-0.3,0.2-0.5,0.4-0.6c0.1,0,0.1,0,0.2,0c2,0.3,3.9,1.2,5.7,2.6
		c4.1,3.2,7.2,5.4,9.2,6.7c0.3,0.2,0.7,0.1,0.9-0.2c0.1-0.2,0.1-0.4,0.1-0.6l-3.8-10.1c-0.1-0.3,0.1-0.6,0.3-0.7
		c0.2-0.1,0.3,0,0.5,0.1c3.8,2.8,6.5,6.5,8.4,11.1c0.2,0.4,0.7,0.7,1.1,0.5c0.3-0.1,0.5-0.4,0.5-0.7c0.9-5.8,0-11-0.2-16.4
		c0-0.3,0.2-0.5,0.4-0.5c0.2,0,0.4,0.1,0.4,0.3c3.5,6.1,5.6,12.2,6.3,18.5c0.1,1.3,0.9,3.1,1.4,4.1c0.2,0.3,0.5,0.4,0.8,0.3
		c0,0,0.1,0,0.1-0.1c6.9-6.2,7.1-21.6,5.8-30c-0.1-0.9,0-1.5,0.4-2c0.2-0.2,0.4-0.2,0.6-0.1c0.1,0.1,0.1,0.1,0.2,0.2
		c1.8,7.6,3.2,14.2,4.1,19.8c0.4,2.8-0.2,6.6,0.1,8.4c0,0.3,0.3,0.4,0.6,0.4c0.1,0,0.1,0,0.2-0.1c3-1.9,3.4-4.3,4.6-7.9
		c0.2-0.7,0.4-1.4,0.4-2.2c0.8-15.4,1.3-24.6,1.5-27.6c0.1-1.1,0.4-1.9,0.9-2.4c0.5-0.5,1.3-0.4,1.8,0.2c0.1,0.1,0.2,0.3,0.3,0.5
		c2.4,8.1,4.4,15.5,6,22c0.1,0.5,0.6,0.8,1.1,0.7c0.2,0,0.4-0.2,0.5-0.3c2.1-2.7,3.6-5.7,4.4-9.2c0.1-0.5,0.5-0.8,1-0.8h0.1
		c0.5,0,0.8,0.4,0.8,0.9c0,0,0,0,0,0c-0.4,5.1-0.3,8.7-0.5,11.5c-0.1,1.3,0.3,2.1,1.1,2.6c3.3,2,7.9-3.7,9.1-6.2
		c0.5-1.1,1.4-2.8,2.6-5.3c0.1-0.2,0.4-0.3,0.6-0.2c0.2,0.1,0.3,0.2,0.3,0.4c0.1,6-1,11.4-3.5,16.2c-0.2,0.3,0,0.7,0.3,0.9
		c0.1,0.1,0.2,0.1,0.4,0.1c4.7-0.4,8-4,12-7.5c0.5-0.4,1.3-0.4,1.7,0.1c0.2,0.2,0.3,0.5,0.3,0.9c-0.1,1.5-0.7,3.3-1.8,5.6
		c-0.2,0.4,0,0.9,0.4,1.1c0.1,0,0.2,0.1,0.2,0.1c4.7,0.6,10.1-4,11.1-8.8c0.1-0.3,0.4-0.5,0.7-0.4c0.2,0,0.3,0.1,0.4,0.3
		c1.6,2.8,0.7,8.1-0.1,10.8c-0.1,0.4,0.1,0.8,0.5,1c1.4,0.6,2.4,0.7,3.1,0.4c0.2-0.1,0.3-0.2,0.5-0.4l2.4-2.6c0.8-0.9,2.3-1,3.2-0.2
		c0.1,0.1,0.1,0.1,0.2,0.2c1.6,1.8,3.8,3,6.9,3.4c8.8,1.4,15.8,0,20-9c0.1-0.1,0.2-0.2,0.3-0.1c0.1,0,0.1,0.1,0.1,0.2
		c-0.4,4.9-3.2,14.1-8.5,16.3c-0.4,0.2-0.6,0.6-0.4,1c0.1,0.2,0.3,0.4,0.5,0.5c6.4,2.4,10.7-4.1,14.5-9.2c0.2-0.3,0.6-0.3,0.8-0.1
		c0.2,0.1,0.3,0.4,0.2,0.7c-1.6,5.3-4.1,10.1-7.3,14.4c-0.2,0.2-0.1,0.5,0.1,0.7c0.1,0.1,0.2,0.1,0.3,0.1c4.4-0.1,7.1-3,11.7-6.8
		c0.1-0.1,0.1-0.1,0.2-0.2l1.9-3.6c0.1-0.3,0.5-0.4,0.7-0.2c0.2,0.1,0.3,0.3,0.3,0.5c-0.3,3.1-1.1,6.2-2.3,9.4
		c-0.1,0.3-0.4,0.6-0.9,0.9c-0.5,0.4-0.8,0.7-0.9,1c-0.1,0.4,0.2,0.7,0.6,0.8c0.1,0,0.3,0,0.4-0.1c3.4-1.7,5.9-4.2,7.3-7.4
		c1.6-3.5,1.3-8.9,2.4-12.7c0.1-0.2,0.3-0.4,0.5-0.3c0.2,0,0.3,0.2,0.3,0.3c0.8,6.4,0.8,12.6-0.1,18.7c0,0.2,0.1,0.4,0.4,0.5
		c0.1,0,0.2,0,0.3-0.1c3.6-3,5.2-6.8,4.8-11.5c-1.2-15.8-8.6-27.6-22.2-35.4c-9.6-5.5-22.6-8.3-32.5-2.5c-0.5,0.3-0.7,1-0.4,1.6
		c0.2,0.3,0.5,0.5,0.8,0.5l11.3,1.6c0.3,0,0.5,0.2,0.5,0.5l0.2,0.9c0,0.2-0.1,0.3-0.3,0.4c-0.1,0-0.1,0-0.2,0
		c-2.6-0.8-5.2-0.7-7.9,0.3c-0.2,0.1-0.3,0.3-0.2,0.4c0,0.1,0.1,0.1,0.1,0.2l6.1,4c0.3,0.2,0.4,0.7,0.2,1c-0.2,0.2-0.4,0.4-0.7,0.3
		l-3.7-0.7c-0.1,0-0.3,0.1-0.3,0.2c0,0.1,0,0.1,0.1,0.2l2.6,2.3c0.6,0.5,0.8,1.3,0.7,2l-0.1,0.5c-0.1,0.4-0.4,0.7-0.8,0.6
		c-0.1,0-0.3-0.1-0.4-0.2c-4.2-3.5-7.3-7.7-11.9-11.1c-6.8-5-12.1-9.2-16-12.7c-5.5-4.9-9-10.4-15.6-19.7c-1.6-2.2-4.4-4.4-5.4-6.8
		c-0.2-0.4,0-0.9,0.4-1.1c0.2-0.1,0.4-0.1,0.6,0c5.5,1.8,11.1,6.4,15,10.3c0.2,0.2,0.5,0.2,0.6,0c0.1-0.1,0.2-0.3,0.1-0.5l-5.7-13.2
		c0-0.1,0-0.2,0.1-0.2c0.1,0,0.1,0,0.2,0c4.9,5.6,8.7,11.6,11.6,18c0.1,0.1,0.2,0.2,0.4,0.1c0.1,0,0.2-0.2,0.2-0.3
		c-0.4-6.8-2.2-13.4-5.4-19.6c-0.2-0.4-0.3-1.3-0.5-1.8c-0.1-0.2,0-0.4,0.2-0.4c0.1,0,0.3,0,0.3,0.1c6,6.5,9.1,17.6,11.8,23.7
		c0.1,0.3,0.4,0.4,0.7,0.3c0.2-0.1,0.3-0.3,0.3-0.5c-0.4-5.6-1.5-11.7-3.2-18.2c-0.2-0.6-0.2-1.4-0.1-2.5c0-0.1,0.1-0.3,0.3-0.3
		c0.1,0,0.2,0.1,0.3,0.2c1.9,5,4.6,9.1,6.5,13.8c1.4,3.3,2.7,7.4,4,12.1c0.1,0.3,0.3,0.4,0.6,0.4c0.2-0.1,0.4-0.3,0.4-0.5
		c-0.1-7.8-2.3-15.2-6.7-22.2c-1.3-2.1-2.4-3.6-3.4-4.4c-3.5-3.3-5.5-7.3-9-10.4c-8-7-15.8-12.1-23.6-15.3
		c-16.9-7-36.5-12.2-54.6-10c-3.4,0.4-6.3,1.1-8.7,1.9c-1.3,0.5-2.7-0.1-3.3-1.3c-7.4-14.5-18.9-20.9-34.9-27.1
		c-19.8-7.8-41.6-11.4-61.9-7.5c-9.1,1.8-16.8,6.2-23.2,13.3c-0.2,0.2-0.2,0.5,0,0.7c0.1,0.1,0.2,0.1,0.3,0.1h10.7
		c0.5,0,0.9,0.4,0.9,0.9c0,0.3-0.2,0.6-0.4,0.7c-1.9,1.2-4.1,2.2-6.8,2.9c-9.4,2.4-16.9,4.4-22.4,6c-8.4,2.4-15.5,6.6-21.3,12.8
		c-3.9,4.1-8.2,9.8-13.7,13c-0.3,0.2-0.7,0.2-1.1,0l-9.8-5.7c-0.4-0.2-0.5-0.7-0.3-1c0.1-0.2,0.3-0.3,0.6-0.4
		c3-0.3,8.7,0.9,11.4-1.6c0.7-0.6,0.6-2-0.3-3.2c-0.2-0.2-1.6-1.5-4.4-4c-0.2-0.2-0.3-0.6,0-0.9c0.1-0.1,0.3-0.2,0.4-0.2h13.2
		c0.4,0,0.7-0.3,0.7-0.6c0-0.3-0.2-0.6-0.5-0.7l-12.3-4.2c-0.4-0.1-0.6-0.6-0.5-1c0.1-0.3,0.3-0.5,0.6-0.5
		c5.6-1.1,10.9-0.4,15.9,2.2c0.2,0.1,0.5,0,0.6-0.2c0.1-0.1,0.1-0.3,0-0.4c-1.7-4.8-5.1-8-10.2-9.4c-0.3-0.1-0.5-0.4-0.4-0.8
		c0-0.1,0-0.1,0.1-0.2l0.3-0.5c0.3-0.4,0.7-0.6,1.2-0.4l14,4.7c0.5,0.2,1-0.1,1.2-0.6c0.1-0.2,0.1-0.5-0.1-0.8
		c-4.2-7.5-10.4-10.9-18.5-10.3c-0.2,0-0.4-0.2-0.5-0.4c0,0,0,0,0,0v-0.5c0-0.3,0.2-0.5,0.5-0.5c9.6-1,17.1,2.6,25.3,7.2
		c0.6,0.4,1.4,0.2,1.8-0.4c0.1-0.1,0.1-0.2,0.1-0.3c0.1-0.7,0-1.4-0.5-2.4c-2.7-5.3-6.9-7.5-12.4-9.6c-20.7-7.6-45.4-5.5-68.4-0.6
		c-15.5,3.3-29.6,8.9-42.3,16.6c-7.3,4.4-12.2,7.9-14.8,10.4c-4.7,4.7-10.5,14-10.4,21.3c0,0.2,0.2,0.4,0.4,0.4
		c0.1,0,0.3-0.1,0.4-0.2l8.6-11.7c0.2-0.3,0.6-0.4,0.8-0.2c0.2,0.2,0.3,0.4,0.3,0.7l-3.5,12.6c-0.1,0.3,0.1,0.6,0.3,0.6
		c0.1,0,0.2,0,0.2,0c0.7-0.1,1.3-0.4,1.7-0.8c3.1-3.5,5.8-6.7,8.2-9.6c0.1-0.2,0.4-0.2,0.5-0.1l0.3,0.2c0.2,0.1,0.3,0.4,0.2,0.6
		l-2.9,8.5c-0.1,0.3,0.1,0.7,0.4,0.8c0.2,0.1,0.4,0,0.6-0.1c3.5-2.3,5.9-3.6,6.9-3.9c0.5-0.2,1.1,0.1,1.2,0.6c0.1,0.3,0,0.7-0.2,1
		c-2.5,2.5-5,9.4-8.8,12.2c-2.5,1.8-4.4,2.8-5.9,3.1c-10.3,1.8-16.7,2.7-25.2,6.3c-1.5,0.7-4.3,2.3-8.4,5c-12.1,8-29,13.5-33.2,28.7
		c-0.1,0.5-0.9,3-2.2,7.4c-0.2,0.6-0.4,1.2-0.7,1.7c-4.5,8.2-10.7,12.3-19.1,18.3c-5.4,3.9-9.2,9.2-11.5,16
		c-5.3,16.2-5.3,33,4.4,47.5c0.2,0.2,0.5,0.3,0.7,0.2c0.1-0.1,0.2-0.2,0.2-0.4c0.6-5.5,0.3-11.7,3.6-14c0.3-0.2,0.6-0.1,0.8,0.1
		c0.1,0.1,0.1,0.2,0.1,0.4c-0.1,8.4,1.4,16.5,4.4,24.3c0.3,0.9,0.7,1.5,0.9,1.9c0.2,0.2,0.4,0.2,0.6,0c0.1-0.1,0.1-0.2,0.1-0.3
		c-0.1-7.1,1-12.8,3.5-17.1c0.1-0.2,0.3-0.2,0.5-0.1c0.1,0.1,0.2,0.2,0.2,0.3c-0.6,4.5-1.8,8.7-0.9,13.1c0.1,0.5,0.6,0.8,1,0.7
		c0.1,0,0.3-0.1,0.4-0.2c2.4-2,4.2-3.7,5.3-5c0.6-0.7,1.2-1.1,1.8-1.3c0.7-0.2,1.5,0.2,1.7,0.9c0.1,0.4,0.1,0.8-0.1,1.1
		c-2.8,4.5-4.6,8.5-3.5,13.9c0.7,3.4,1.6,6.3,2.8,8.6c0.1,0.2,0.4,0.3,0.6,0.2c0.2-0.1,0.3-0.3,0.3-0.4c-0.1-4.9,1.5-9.9,4.7-15.1
		c0.1-0.2,0.4-0.2,0.5-0.1c0.1,0.1,0.2,0.2,0.2,0.4c-0.1,1-0.5,2.4-1,4.3c-1.1,3.9-1,8,0.1,12.2c0,0,0,0.1,0,0.1l7.2,9.4
		c0.1,0.2,0.4,0.2,0.5,0.1c0.1-0.1,0.2-0.2,0.2-0.3v-9c0-0.3,0.2-0.5,0.4-0.6l0.3-0.1c0.4-0.1,0.7,0.1,0.8,0.4c0,0,0,0.1,0,0.1
		c1,5.9,1.4,10.6,3.3,13.2c0.2,0.3,0.7,0.4,1,0.2c0.1-0.1,0.2-0.2,0.3-0.4c1.8-5.2,3.3-11,4.3-17.3c0.2-1,0.6-1.7,1.4-1.9
		c0.5-0.2,1.1,0.1,1.4,0.6c0,0.1,0,0.1,0.1,0.2c1,5.5,1.9,12.6,2.7,21.3c0.7,7.6-2.7,13.6-4.7,19.5c-2.8,8.1-3.6,16.3-2.5,24.5
		c0.7,4.9,2.3,11.3,4.9,19c0,0,0.1,0.1,0.1,0.1l0.3-0.1c0.2,0,0.3-0.2,0.3-0.4c-1.8-11.1-1.6-22.3,0.6-33.4c0.1-0.3,0.3-0.4,0.6-0.4
		c0.1,0,0.1,0,0.2,0.1l0.1,0c0.4,0.2,0.6,0.7,0.6,1.1c-1.5,17.7,1.7,35.5,11.4,50.4c0.1,0.2,0.4,0.2,0.6,0.1
		c0.1-0.1,0.2-0.3,0.2-0.4c-1.2-4.6-2.3-10.1-3.5-16.3c-1.6-8.1-1.6-17-0.2-26.6c0.1-0.4,0.4-0.6,0.8-0.6h0c0.3,0,0.6,0.3,0.5,0.7
		c-1.2,16.8,2.6,32,11.5,45.7c2.8,4.4,6.9,8.1,10.9,10.8c0.1,0.1,0.2,0,0.3-0.1c0-0.1,0-0.2,0-0.2c-6.9-8.9-10.7-19.2-13.5-29.8
		c-0.7-2.8-1-6.8-0.9-12c0-0.2,0.2-0.4,0.4-0.4h0c0.3,0,0.5,0.2,0.5,0.4c0.1,5.5,1.7,11.1,4.7,17.1c5.9,11.7,13.4,21.7,22.4,30.2
		c0.1,0.1,0.3,0.2,0.4,0.1c0.1-0.1,0.2-0.3,0.1-0.4l0,0c-2.9-5.1-4.9-8.4-5.8-9.8c-6.1-9.9-9.4-22.6-11.4-33.8
		c0-0.2,0.1-0.4,0.3-0.4c0,0,0,0,0,0l0.4-0.1c0.2,0,0.4,0.1,0.4,0.3c3.4,11.2,8.5,25.6,16.3,35.3c1.9,2.4,4.4,4.5,7.3,6.3
		c0.1,0.1,0.3,0,0.4-0.1c0.1-0.1,0-0.2,0-0.3c-7.2-10.3-11.5-22.4-12.9-36.3c0-0.2,0.1-0.5,0.3-0.6l0.3-0.2c0.2-0.2,0.5-0.1,0.7,0.1
		c0,0.1,0.1,0.1,0.1,0.2c2.4,14.8,9,27.2,19.8,37.4c1.4,1.3,3.1,2.3,5.2,2.9c0.1,0,0.3,0,0.3-0.2c0-0.1,0-0.1,0-0.2l-9.4-14
		c-0.2-0.3-0.4-0.6-0.5-0.9c-3.2-7.9-5.7-16-7.6-24.4c0-0.1,0-0.2,0.1-0.2l0.3-0.1c0.3-0.1,0.6,0.1,0.7,0.4
		c2.9,9.6,7.7,18.2,14.2,26.1c2.8,3.3,6.1,5.7,10.1,7.3c0,0,0.1,0,0.1,0c0,0,0-0.1,0-0.1l-22-38c-0.1-0.1,0-0.3,0.1-0.3
		c0.1-0.1,0.2-0.1,0.3,0c1,0.7,1.8,1.5,2.6,2.4c3.5,4.1,6.9,8.7,10.3,13.9c3,4.6,6.8,8.4,11.1,11.2c0.2,0.1,0.5,0.1,0.6-0.1
		c0-0.1,0.1-0.2,0.1-0.3c-0.4-6.5-4.5-13.1-8.3-18.9c-5.4-8.4-10.5-18-18-24.9c-0.2-0.1-0.2-0.4-0.1-0.6c0.1-0.2,0.4-0.2,0.6-0.1
		c2.2,1.2,4.2,2.8,6.1,4.7c3.8,4,8.3,9.1,13.5,15.2c0.1,0.1,0.4,0.1,0.5,0c0.1-0.1,0.1-0.3,0.1-0.4c-1.3-2.9-3.4-7.1-6.2-12.8
		c-1.7-3.3-3.9-6.7-6.8-10.2c-5.5-6.7-10.2-11.6-17.4-15.3c-0.2-0.1-0.3-0.4-0.2-0.7c0.1-0.2,0.3-0.3,0.6-0.2
		c9,2.2,16.3,8.2,22.5,15c0.1,0.1,0.3,0.1,0.4,0c0.1-0.1,0.1-0.1,0.1-0.2c-1.6-6.3-2.5-11-7.2-15.5c-5.2-5-11.1-8.1-17.6-9.4
		c-0.3-0.1-0.5-0.4-0.5-0.7c0.1-0.3,0.3-0.5,0.5-0.5c6.8-0.3,15.4,3,21.7,5.9c0.2,0.1,0.5,0,0.7-0.2c0.1-0.2,0.1-0.4-0.1-0.6
		c-4.9-5.6-11-9.9-18.2-12.8c-0.6-0.2-0.9-0.9-0.7-1.4c0,0,0-0.1,0-0.1c0.1-0.1,0.2-0.2,0.4-0.2c2.8-0.4,6.2,0.5,10.2,2.5
		c0.1,0.1,0.2,0,0.3-0.1c0-0.1,0-0.2,0-0.3c-9.5-9.4-21.9-14.4-34.3-17.8c-0.4-0.1-0.7-0.5-0.9-1c-0.1-0.5,0.1-0.8,0.6-1
		c3.4-0.9,6.8-0.9,10.3-0.2c0.4,0.1,0.7-0.2,0.8-0.5c0-0.1,0-0.3,0-0.4c-2.5-5.9-10.1-10.5-15.7-12.1c-0.4-0.1-0.6-0.5-0.5-0.8
		c0.1-0.3,0.3-0.5,0.6-0.5c4.4-0.3,8.5,0.6,12.3,2.8c0.3,0.2,0.7,0.1,0.9-0.2c0.1-0.3,0.1-0.6-0.1-0.8l-13.9-13.9
		c-0.1-0.1-0.1-0.4,0-0.5c0.1-0.1,0.1-0.1,0.2-0.1c0.8-0.1,1.5,0.1,2,0.4c2.9,2,5.5,3.2,8,3.7c0.4,0.1,0.8-0.2,0.9-0.6
		c0-0.2,0-0.5-0.2-0.7c-2.1-2.2-4.2-4.8-6.3-7.8c-2.7-3.9-6.5-6.2-11.1-6.7c-0.4-0.1-0.7-0.4-0.7-0.8c0-0.2,0.1-0.3,0.2-0.4l0.5-0.6
		c0.5-0.5,1.1-0.8,1.8-0.7l8.3,1.2c0.4,0.1,0.7-0.2,0.8-0.6c0-0.1,0-0.3-0.1-0.4c-1-2.2-2.4-3.9-4.1-5.1c-5.1-3.5-10.8-5.6-17.2-6.4
		c-0.6-0.1-1-0.6-0.9-1.2c0-0.3,0.2-0.6,0.5-0.8c3.5-2.2,8.8-2.3,13.4-2.4c0.7,0,1.3-0.6,1.3-1.3c0-0.2-0.1-0.4-0.2-0.6l-11-20.7
		c-0.2-0.5-0.1-1,0.4-1.3c0.2-0.1,0.5-0.1,0.7-0.1c2,0.7,3.9,1.9,5.5,3.8c2.5,2.8,5.3,6.5,8.4,11.1c0.1,0.2,0.4,0.2,0.6,0.1
		c0.1-0.1,0.1-0.2,0.2-0.3c0.3-1.7,0.2-3.5-0.2-5.4c-1.4-6.3-2.4-11.9-2.9-17c0-0.3,0.2-0.7,0.6-0.7c0.3,0,0.6,0.1,0.7,0.4l9.9,23
		c0.2,0.4,0.7,0.7,1.1,0.5c0.3-0.1,0.4-0.3,0.5-0.6c0.2-0.6,0.2-1.2,0.2-1.7c-0.5-9.1-1.9-18.1-4.2-26.8c-0.1-0.2,0.1-0.5,0.3-0.6
		c0.1,0,0.1,0,0.2,0l0.3,0.1c0.1,0,0.2,0.1,0.2,0.2l10.3,22.8c0.1,0.2,0.3,0.3,0.5,0.2c0.1,0,0.2-0.1,0.2-0.3
		c2.6-10.7-0.1-20.9-7.9-30.5c-0.2-0.2-0.2-0.5,0-0.6l0.4-0.5c0.1-0.1,0.2-0.1,0.3,0c0,0,0,0,0,0c5,5.7,9.2,11.8,12.8,18.3
		c0.2,0.4,0.8,0.6,1.2,0.3c0.3-0.2,0.5-0.5,0.4-0.9c-1.4-6.8-3-13-5-18.6c-0.5-1.4-2.3-4.4-5.4-9.1c-0.1-0.1-0.1-0.2-0.1-0.2
		c0-0.2,0-0.3,0-0.4c0.3-0.5,1-0.7,1.5-0.5c0.1,0,0.1,0.1,0.2,0.1c4.4,3.3,7.9,7.4,10.3,12.4c0.1,0.2,0.3,0.2,0.5,0.1
		c0.1,0,0.1-0.1,0.2-0.2c0.2-0.8,0.3-1.3,0.2-1.6c-0.7-4.6-1.2-8.9-1.6-13c-0.1-0.7-0.2-1.4-0.5-2c-1.9-4.4-5.8-8.4-7.6-11.1
		c-0.2-0.3-0.1-0.6,0.1-0.8c0.2-0.1,0.4-0.1,0.6,0c3.3,1.5,6.1,3.2,8.6,5c3.5,2.7,4.7,5.4,6.5,9.7c0.1,0.3,0.4,0.4,0.7,0.3
		c0.2-0.1,0.3-0.2,0.3-0.3c2.1-5.8,0.4-11.8-2-17.4c-0.1-0.3,0-0.5,0.3-0.7c0.2-0.1,0.4,0,0.6,0.1c3,3.6,5.1,7.6,6.3,11.8
		c0.1,0.2,0.3,0.3,0.5,0.3c0.1,0,0.2-0.1,0.3-0.3c1.2-5.7,0.9-11.5-0.9-17.5c-0.1-0.2,0.1-0.5,0.3-0.5c0.1,0,0.3,0,0.4,0.1
		c4,2.8,5.2,8.8,5.7,13.7c0,0.2,0.2,0.4,0.4,0.4c0.1,0,0.3-0.1,0.3-0.2c4-6.9,5.7-14.3,5.1-22.1c0-0.4,0.2-0.7,0.6-0.7
		c0.2,0,0.3,0,0.5,0.1c0.4,0.3,0.7,0.9,1,1.7c1.4,4.2,2.4,9.2,3.1,14.9c0,0.4,0.4,0.7,0.8,0.6c0.1,0,0.3-0.1,0.4-0.2
		c4.4-4,3.8-7,3.8-13.7c-0.1-5.9-0.9-10.9-2.6-15c-0.1-0.2,0-0.5,0.2-0.6c0,0,0.1,0,0.1,0c0.3,0,0.6,0.1,0.9,0.5
		c2.6,3.1,4.5,6.7,5.7,11c0.1,0.4,0.6,0.7,1,0.6c0.3-0.1,0.6-0.4,0.6-0.7c1-9.1,0-17.9-3.2-26.3c-0.1-0.2,0-0.5,0.3-0.6
		c0.1-0.1,0.3,0,0.4,0.1c3,2.3,5.1,4.6,6.5,6.9c0.3,0.5,0.9,0.6,1.4,0.3c0.3-0.2,0.5-0.6,0.5-0.9c-0.9-7.1-3.2-13.7-6.8-19.6
		c-0.6-0.9-0.4-2.2,0.4-2.9c1-1,2.2-1.6,3.5-1.7c4-0.6,7.8-1.3,11.3-2.1c5.6-1.3,13.1-6.1,18-7.9c0.5-0.2,1.1,0.1,1.3,0.6
		c0.1,0.3,0.1,0.6,0,0.8c-0.6,1.4-1.4,2.5-2.4,3.4c-9.3,9.2-17.6,18.6-17.4,32.5c0,0.2,0.2,0.4,0.4,0.3c0.1,0,0.1,0,0.2-0.1l4.5-3.3
		c0.3-0.2,0.7-0.1,0.9,0.1c0.1,0.2,0.2,0.4,0,0.6c-2.3,4.1-4.4,9-6,14.8c-0.1,0.3,0.1,0.6,0.4,0.7c0.2,0.1,0.4,0,0.6-0.2l9.7-9.6
		c0.2-0.2,0.6-0.3,0.9,0c0.1,0.1,0.2,0.2,0.2,0.4c0.1,0.7-0.1,1.5-0.4,2.4c-2.2,5.7-4.6,10.7-9.3,15.6c-5.5,5.6-10.5,13.5-17.8,18.7
		c-12.1,8.5-21.2,15.9-23.8,31.2c-0.7,4.6-1.3,8.2-1.7,11.1c-1.1,9-5.2,17.9-9.7,23.9c-5.1,6.9-10,13.5-10.8,21.2
		c-0.7,7.7-1.3,16.5,1.1,23.4c0.1,0.2,0.3,0.3,0.4,0.2c0.1,0,0.2-0.1,0.2-0.2c2.3-6.2,3.4-9.7,6.5-13.8c0.1-0.2,0.4-0.2,0.6-0.1
		c0.1,0.1,0.2,0.3,0.2,0.4c-3,10.7-5.7,20.9,2.4,29.6c1.6,1.8,2.7,3.4,4.2,4.4c0.1,0.1,0.3,0.1,0.4-0.1c0.1-0.1,0.1-0.2,0-0.3
		c-3.7-8.4-6.1-18.6-0.1-26.5c0.1-0.2,0.4-0.3,0.6-0.2c0.2,0.1,0.3,0.4,0.2,0.6l0,0c-4.1,9.5,0.5,16.6,4,24.2
		c0.1,0.2,0.3,0.3,0.5,0.2c0.1-0.1,0.2-0.2,0.2-0.3c0.5-6.3,0.8-10,0.8-11.3c0.1-3.9,0.5-7.6,1.4-11.3c0-0.2,0.2-0.3,0.4-0.3h0.3
		c0.4,0,0.7,0.3,0.7,0.7c0,0,0,0,0,0.1c-0.7,10.2,0.5,20.3,3.6,30.2c0.1,0.3,0.4,0.5,0.7,0.4c0.2-0.1,0.4-0.3,0.4-0.5
		c0.5-3.9,2.2-9.8,5.2-17.9c0.5-1.5,1.4-2.6,2.5-3.2c0.5-0.3,1.1-0.1,1.4,0.4c0.1,0.2,0.1,0.4,0.1,0.6c-0.9,11.5-1.3,23.2-1.1,35
		c0,2.4,0.2,4.5,0.6,6.4c0,0.2,0.3,0.4,0.5,0.3c0.1,0,0.3-0.1,0.3-0.3l3.4-10c0.5-1.6,1.7-2.8,3.2-3.5l0.3-0.1c0.5-0.2,1,0,1.2,0.5
		c0.1,0.2,0.1,0.5,0,0.7c-2.6,7.7-4,13.1-4.2,16.3c-0.7,8.2,0.1,18,2.5,29.4c1.1,5,2.5,9.3,4.3,12.9c2.2,4.4,7,10.1,12.4,12.5
		c0.1,0.1,0.3,0,0.4-0.1c0-0.1,0-0.2,0-0.3c-6.2-10.3-10.2-22.3-12.1-35.8c0-0.2,0.1-0.3,0.3-0.4c0,0,0.1,0,0.1,0l0.6,0.1
		c0.1,0,0.2,0.1,0.2,0.2c0.9,3.3,3.1,9.2,6.5,17.6c5.1,12.4,13.6,22.8,25.2,27.6c0.1,0.1,0.3,0,0.3-0.1s0-0.3-0.1-0.3l0,0
		c-4.2-3.5-7.7-7.7-10.5-12.5c-4.3-7.4-8.4-15.4-12.1-24c0,0,0,0,0,0c0,0,0,0,0,0l0.3-0.2c0.2-0.1,0.4,0,0.5,0.2
		c5.6,9.7,11.7,17.7,18.1,24.1c2.3,2.3,5.3,4.4,8.9,6.5c0.4,0.2,0.8,0.1,1-0.3c0.2-0.3,0.1-0.6-0.1-0.9
		c-9.3-10.9-16.9-24.1-21.2-38.5c-0.5-1.5-0.5-3.1-0.2-4.7c0-0.1,0.2-0.2,0.3-0.2c0.1,0,0.1,0.1,0.2,0.1
		c5.1,13.1,12.6,24.8,22.6,35.2c2.1,2.2,4.2,3.8,6.3,4.9c0.2,0.1,0.3,0,0.4-0.1c0.1-0.1,0-0.2,0-0.3c-1.7-2-4.3-5.5-7.6-10.6
		c-8-12.2-11.1-25.7-11.2-40.6c0-0.1,0.1-0.2,0.2-0.2c0.1,0,0.1,0.1,0.1,0.1c1.1,4.6,2.4,13.1,4.4,18.7c2.9,8.2,6.8,15.5,11.7,21.9
		c0.2,0.2,0.4,0.2,0.6,0.1c0.1-0.1,0.1-0.2,0.2-0.3c0-0.1-0.2-0.4-0.6-0.9c-0.2-0.2-0.4-0.7-0.6-1.5c-1.7-7-3.9-15.5-6.6-25.5
		c-1.4-5.2-2.4-12.5-2.8-21.8c0-0.3,0.2-0.6,0.5-0.6h0c0.3,0,0.6,0.2,0.6,0.5c1.7,16.8,8.1,31,17.3,45.3c0.2,0.4,0.5,0.6,0.8,0.8
		c0.4,0.2,0.8,0,1-0.4c0.1-0.2,0.1-0.3,0-0.5c-3.5-12-6.7-25-9.6-38.9c-1.4-6.8-3.3-12.2-5.6-16.2c-0.2-0.2-0.1-0.5,0.1-0.7
		c0.2-0.2,0.5-0.1,0.7,0.1c1.7,1.7,3.4,4.1,4.8,7.3c6.7,14.5,10.9,23.5,12.6,27.1c0.1,0.3,0.5,0.4,0.7,0.2c0.2-0.1,0.3-0.2,0.3-0.4
		c0.8-4.4,0.5-8.9-0.8-13.7c-2.1-7.7-4.1-14.6-6.1-20.7c-1.4-4.2-3.3-8.6-5.8-13.1c-0.1-0.2-0.1-0.5,0.1-0.6
		c0.2-0.1,0.4-0.1,0.6,0.1c5.4,4.7,8.6,10.8,11.4,17.6c0.1,0.2,0.3,0.3,0.5,0.3c0.2-0.1,0.3-0.2,0.3-0.4c0.4-12.1-5-22.1-13-31.1
		c-0.3-0.3-0.2-0.7,0-0.9c0.2-0.2,0.5-0.2,0.8-0.1c4.8,2.2,9.6,8,13.1,12.3c0.1,0.2,0.4,0.2,0.5,0c0.1-0.1,0.2-0.3,0.1-0.4
		l-8.6-23.1c-0.1-0.4,0-0.8,0.4-1c0.2-0.1,0.4-0.1,0.6,0c5.3,2.6,9.6,8.1,12.7,13.4c0.2,0.4,0.8,0.6,1.2,0.3
		c0.3-0.2,0.5-0.5,0.5-0.8v-14c0-0.3,0.3-0.6,0.6-0.6c0.2,0,0.5,0.1,0.6,0.3c2.2,4.3,3.6,8.5,4.2,12.7c0,0.4,0.4,0.7,0.8,0.6
		c0.3,0,0.6-0.3,0.6-0.6l2.8-13.9c0.1-0.4,0.5-0.7,0.9-0.6c0.3,0.1,0.6,0.3,0.6,0.6c0.4,2.3,0.3,4.9-0.2,7.6c0,0.2,0.1,0.4,0.3,0.4
		c0.1,0,0.3,0,0.4-0.1c2-2.8,5.7-8.2,8.9-9.1c0.5-0.2,1.1,0.1,1.2,0.7c0.1,0.2,0.1,0.5-0.1,0.7c-2,4.3-3.5,8-4.6,11.2
		c-2.4,7-6,13.2-8.5,19.7c-3.9,9.8-6.2,20.3-7.1,31.4c-0.1,0.4,0.3,0.9,0.7,0.9c0.4,0,0.7-0.2,0.8-0.5l9.3-21.2
		c0-0.1,0.1-0.2,0.3-0.3l0.3-0.1c0.2-0.1,0.5,0,0.5,0.2c0,0.1,0,0.2,0,0.3c-2.5,8.4-4,13.9-4.4,16.4c-1.3,8.4-2.5,15.7-3.6,21.9
		c-0.6,3.4-0.6,6.7-0.1,9.9c0,0.2,0.3,0.4,0.5,0.4c0.1,0,0.3-0.1,0.3-0.3c1-2.4,3.4-8.7,7.3-19c1.4-3.8,2.2-7.6,2.7-11.4
		c0-0.2,0.2-0.4,0.5-0.4c0.2,0,0.3,0.2,0.4,0.3c0.4,1.7,0.4,3.7,0.1,5.9c-1.6,10.7-2.8,20.3-3.8,28.7c-0.4,3.8-0.6,7.4-0.7,11
		c0,0.3,0.2,0.5,0.5,0.5c0.2,0,0.3-0.1,0.4-0.2c8.4-14.2,11.8-28.7,10.2-43.5c0-0.4,0.2-0.7,0.6-0.7c0,0,0,0,0,0h0.1
		c0.3,0,0.6,0.2,0.6,0.5c2,16.6,0.6,32.8-4.1,48.5c0,0.2,0.1,0.3,0.2,0.4c0.1,0,0.2,0,0.3-0.1c3.8-4.2,6.7-8.8,8.6-13.7
		c1.5-3.8,2.4-9.6,2.8-17.6c0.2-3.9,0.1-9.9-0.1-18c0-0.3,0.2-0.6,0.5-0.6h0c0.3,0,0.6,0.2,0.6,0.5c1.4,11.2,2.2,20,2.4,26.1
		c0.2,4.8-0.1,9.8-0.8,14.9c0,0.4,0.2,0.7,0.6,0.8c0.3,0,0.5-0.1,0.7-0.3c4.4-8.2,6.6-17,6.5-26.5c0-5.6-0.2-11.9-0.4-18.8
		c0-0.2,0.2-0.4,0.4-0.4c0.2,0,0.3,0.1,0.4,0.3c0.8,2.7,1.3,5.6,1.5,8.8c0.8,14.2,1.3,24.1,1.4,29.9c0,0.2,0.1,0.3,0.3,0.3
		c0.1,0,0.2-0.1,0.3-0.2c1.3-2.3,2.4-5.2,3.2-8.7c1.8-7.3,2.7-15,2.6-22.9c-0.1-6.3-1.2-12.1-1.2-18c0-0.1,0.1-0.2,0.2-0.2h0.3
		c0,0,0,0,0,0c0.6,2.8,1.2,5.5,1.8,8c0.9,3.5,1.4,6.1,1.6,7.8c1.3,11.4,1.6,22.2,0.9,32.6c0,0.1,0.1,0.2,0.2,0.2
		c0.1,0,0.2,0,0.2-0.1c4.3-9.8,6.2-20.1,5.5-30.9c-0.5-8.7-2.2-17.2-3.3-26c-0.3-2.5-0.7-5.8-1.3-9.7c0-0.3,0.2-0.6,0.5-0.7
		c0,0,0,0,0,0l0,0c0.2,0,0.4,0.1,0.5,0.3c0.8,4.5,1.9,9,3.4,13.4c1.9,5.8,6.3,13.6,7.6,20.5c0.9,4.6,1.6,8.7,2.1,12.3
		c0.1,0.3,0.3,0.4,0.6,0.4c0.2,0,0.3-0.2,0.4-0.4c1.7-7.1,2.3-13.7,1.7-19.9c-0.4-4.2-1.7-10.7-3.9-19.6c-2.1-8.5-4.6-16.3-7.3-23.3
		c-0.1-0.3,0-0.7,0.3-0.9l0,0c0.3-0.2,0.7,0,0.9,0.3c2.5,4.5,4.9,8.4,7.4,11.7c0.5,0.6,0.9,1.1,1.4,1.3c0.3,0.2,0.7,0,0.8-0.3
		c0.1-0.1,0.1-0.3,0.1-0.4c-1.7-7.2-3.5-13.6-5.6-19.2c-4-10.6-4.7-25.5-4.5-37.4c0-0.4,0.3-0.7,0.7-0.7c0,0,0,0,0,0l0,0
		c0.4,0,0.7,0.3,0.8,0.7c1.3,10.4,4.6,20.1,9.8,28.9c0.3,0.5,1,0.7,1.5,0.4c0.2-0.1,0.3-0.3,0.4-0.5c0.1-0.3,0.1-0.9,0-1.8
		c-1.1-9.3-2.9-21.6-5.3-36.8c0-0.1,0.1-0.2,0.2-0.2c0.1,0,0.1,0,0.2,0.1c5.4,11,9.2,21.7,11.5,32c0,0.2,0.2,0.3,0.4,0.3
		c0.1,0,0.2-0.1,0.3-0.2c4.8-14.3,0.7-31-6.7-43.6c-1.4-2.3-4-5.2-5.6-7.9c-0.1-0.2,0-0.4,0.2-0.5c0.1-0.1,0.3-0.1,0.4,0
		c5.2,3.4,9,9.4,13.2,13.3c0.1,0.1,0.3,0.1,0.4,0c0.1-0.1,0.1-0.2,0.1-0.3c-3.6-13.4-6.5-20.1-15.1-29c-0.3-0.3-0.3-0.8,0-1.2
		c0.2-0.2,0.6-0.3,0.9-0.2c5.2,1.9,9.6,5.1,13.4,9.5c0.2,0.3,0.7,0.3,0.9,0.1c0.1-0.1,0.2-0.3,0.2-0.4c0.8-6.5-0.1-12.6-2.7-18.2
		c-0.1-0.3,0-0.7,0.3-0.8c0.2-0.1,0.4-0.1,0.6,0.1c2.7,2.3,4.9,5.6,6.7,9.9c0.1,0.3,0.5,0.5,0.9,0.4c0.2-0.1,0.4-0.3,0.4-0.6
		c0.1-8.4-3.1-14-6.9-21.1c-0.1-0.2-0.1-0.5,0.1-0.7c0.2-0.1,0.5-0.1,0.7,0.1l0,0l7.8,8.8c0.2,0.2,0.3,0.4,0.4,0.7l2.9,7.2
		c0,0.1,0.2,0.2,0.3,0.1c0.1,0,0.1-0.1,0.1-0.1c1.2-6.2,0.8-12.2-1.2-18.1c-0.5-1.4-1.5-4.1-2.8-7.9c-0.1-0.4,0.1-0.9,0.5-1
		c0.3-0.1,0.7,0,0.9,0.3l6,8.2c0.3,0.5,1,0.6,1.4,0.2c0.2-0.2,0.4-0.4,0.4-0.7c0.6-3.4,0-6.8-1.6-10.1c-0.1-0.2,0-0.4,0.2-0.5
		c0,0,0,0,0.1,0l0.3-0.1c0.4-0.1,0.9,0,1.1,0.4c1.7,2.3,3.2,5.6,4.6,9.7c0.2,0.6,0.5,1.1,1,1.3c0.5,0.3,1.2,0.1,1.5-0.5
		c0-0.1,0.1-0.1,0.1-0.2c1.6-5.4,2.2-10.8,1.7-16.2c0-0.3,0.2-0.5,0.5-0.6c0.2,0,0.3,0.1,0.5,0.2c2.7,3.3,4.3,7.1,4.8,11.4
		c0,0.3,0.3,0.5,0.6,0.5c0.3,0,0.5-0.2,0.5-0.5c0.3-1.8,0.7-3.4,1.2-4.7c1.8-5.7,0.8-11.5-2.7-16.3c-0.1-0.2-0.1-0.5,0.1-0.6
		c0.1-0.1,0.3-0.1,0.4,0c5.6,2.8,6.3,12.1,6.9,17.9c0,0.3,0.3,0.5,0.6,0.5c0.2,0,0.4-0.2,0.4-0.4c2.2-13-1.1-24.2-9.8-33.7
		c-0.2-0.2-0.2-0.5,0-0.7l0,0c0.2-0.2,0.5-0.2,0.7-0.1c5.7,4.4,10,10.1,12.7,16.9c0.1,0.3,0.4,0.4,0.7,0.3c0.2-0.1,0.3-0.3,0.3-0.5
		c-0.1-9.8-5.7-18.8-11.9-26.1c-3.5-4-5.8-7-6.8-8.8c-0.2-0.4-0.1-0.9,0.3-1.1c0.2-0.1,0.4-0.1,0.6-0.1c0.7,0.2,1.5,0.5,2.4,1
		c6.6,3.6,11.6,6.9,15,9.9c1.1,0.9,2.7,0.8,3.6-0.3c0,0,0.1-0.1,0.1-0.1l4.8-6.6c0.2-0.3,0.7-0.4,1-0.2c0.1,0.1,0.2,0.2,0.2,0.3
		c0.3,0.5,0.3,1.3,0,2.3c-2,8.1-4,13.2-3,17.3c0.1,0.4,0.5,0.7,0.9,0.6c0.2,0,0.3-0.1,0.4-0.3l7.4-8.9c0.2-0.2,0.5-0.3,0.8-0.1
		c0.1,0.1,0.2,0.2,0.2,0.4c0.2,1.7-0.1,3.3-0.6,4.7c-1.8,4.5-5,12.1-5,17.9c0,0.2,0.2,0.4,0.4,0.4c0.1,0,0.2-0.1,0.3-0.1l17.7-19.6
		c0.1-0.2,0.4-0.2,0.5,0c0.1,0.1,0.1,0.2,0.1,0.3c-0.6,3.6-5.5,10.5-10.6,18.9c-0.9,1.5-1.2,3.4-0.8,5.7c0,0.3,0.3,0.5,0.6,0.4
		c0.1,0,0.1,0,0.2-0.1c8.3-4,14.2-11.4,18-19.4c0.1-0.3,0.5-0.4,0.8-0.3c0,0,0.1,0,0.1,0l0,0c0.3,0.2,0.4,0.6,0.3,0.9
		c-3.1,9.1-6.1,16.7-12.4,22.8c-0.2,0.2-0.2,0.5,0,0.7c0.1,0.1,0.4,0.2,0.6,0.1c6.6-2.7,10.6-7.6,18-14.7c0.7-0.6,1.4-0.9,2.1-0.9
		c0.2,0,0.4,0.2,0.4,0.5c0,0.1,0,0.2-0.1,0.3c-1.9,2.4-4.3,6.2-7.3,11.4c-0.4,0.7-1.7,1.6-2.3,2.4c-0.1,0.1-0.1,0.3,0.1,0.4
		c0.1,0.1,0.2,0.1,0.3,0c10.7-5.1,19-10,27.2-20.3c0.4-0.5,0.8-0.8,1.2-1.1c0.2-0.1,0.5-0.1,0.6,0.1c0.1,0.1,0.1,0.2,0,0.4
		c-3.2,8.4-8.2,14.9-14.9,19.6c-0.2,0.1-0.2,0.3-0.1,0.5c0.1,0.1,0.2,0.1,0.3,0.2c4.2,0.5,8.4-0.1,12.6-1.9
		c3.1-1.3,6.9-3.2,11.2-5.9c0.4-0.3,1-0.1,1.2,0.3c0.2,0.3,0.2,0.8-0.1,1.1l-7.6,8.5c-0.1,0.1-0.1,0.4,0,0.5c0,0,0.1,0.1,0.2,0.1
		c3.1,0.5,21.6,2.8,22.3,8.1c0.1,0.6-0.4,1.1-1.1,1.2c-0.1,0-0.3,0-0.4,0c-18.7-3.8-37.2-3.8-55.3-0.2c-2,0.4-3.4,0.9-4.1,1.5
		c-0.3,0.3-0.4,0.8-0.1,1.1c0.1,0.1,0.2,0.2,0.4,0.2l3.5,1c0.5,0.2,0.9,0.7,0.7,1.3c-0.1,0.2-0.2,0.4-0.4,0.5
		c-0.6,0.4-1.1,0.7-1.7,0.7c-4.3,0.4-13.7,1.3-28.2,2.7c-10.6,1-21.1,2.8-27.3,12c-5.4,8-7.9,17-7.6,26.8c0,0.2,0.1,0.3,0.3,0.3
		c0.1,0,0.2-0.1,0.2-0.1c4-6.5,7.1-12.5,12.1-16.6c0.2-0.2,0.6-0.2,0.8,0.1c0.1,0.2,0.2,0.4,0,0.6c-5.8,9.2-8.3,19.3-11.1,30.7
		c-0.1,0.6,0.2,1.1,0.8,1.3c0.4,0.1,0.8,0,1-0.3c4.8-5.3,7.2-12.6,10.3-20.1c1.5-3.6,4.1-6.6,7.7-9c0.3-0.2,0.7-0.1,1,0.2
		c0.2,0.3,0.2,0.6,0,0.8c-2.7,3.4-4.4,7.5-4.9,12.4c-0.1,0.6-1,5.5-2.7,14.7c-1.4,7.2-3.9,12-9.5,18.4c-3.4,3.9-7.3,9.8-11.6,17.6
		c-5.8,10.4-8.9,21.6-9.2,33.4c0,0.2,0.1,0.3,0.3,0.3c0.1,0,0.3-0.1,0.3-0.2c2.2-6.8,5.5-13.3,10-19.4c2.8-3.8,6.4-6.6,10.8-8.2
		c0.2-0.1,0.4,0,0.5,0.2c0.1,0.2,0,0.3-0.1,0.5c-2.3,1.9-4.3,4-5.9,6.5c-7.1,11.1-13.1,27-12.4,40.9c0,0.3,0.3,0.6,0.7,0.6
		c0.1,0,0.2,0,0.3-0.1c0.7-0.5,1.2-1.2,1.5-1.9c3.8-10.8,9.3-20.5,16.7-29.1c0.2-0.2,0.4-0.2,0.6-0.1c0.2,0.1,0.2,0.3,0.1,0.5
		c-0.9,1.8-2.2,4.6-3.8,8.5c-5.1,11.6-7.3,24-6.8,37.1c0,0.2,0.1,0.3,0.3,0.3c0.1,0,0.2-0.1,0.3-0.1c6.1-8.3,7.3-19.6,14-25.4
		c0.2-0.1,0.4-0.1,0.5,0.1c0.1,0.1,0.1,0.2,0.1,0.3c-3.5,9.2-5.9,19.5-7.4,31c-0.1,0.4,0.3,0.8,0.7,0.9c0.3,0,0.5-0.1,0.7-0.2
		c5-5.3,9.4-14.9,13.3-28.8c0.1-0.4,0.3-0.7,0.7-0.8l0.3-0.2c0.2-0.1,0.5,0,0.6,0.2c0,0.1,0.1,0.2,0,0.3c-0.9,4.6-1.5,9.2-2,13.9
		c-0.9,8.6-2.3,14.8-4.3,22.3c0,0.2,0.1,0.3,0.2,0.4c0.1,0,0.2,0,0.3-0.1c7.1-9.1,11.9-19,14.5-29.8c0.1-0.3,0.3-0.4,0.6-0.4
		c0.1,0,0.1,0,0.2,0.1l0,0c0.3,0.2,0.5,0.6,0.5,1.1c-0.9,11.4-3.4,22.4-7.4,33c-0.1,0.4,0,0.8,0.4,1c0.2,0.1,0.5,0.1,0.7-0.1
		c2.4-1.5,3.8-3.8,5.3-5.6c7.3-8.9,10.5-18.9,9.5-30.2c0-0.2,0.1-0.4,0.3-0.4c0.1,0,0.2,0,0.2,0c0.2,0.1,0.4,0.4,0.5,0.9
		c2.9,12.7-0.5,23.8-5.1,35.8c-0.1,0.2,0,0.4,0.2,0.5c0.1,0,0.2,0,0.4,0c7.2-5.4,10-11.4,13.8-20.3c0.2-0.4,0.3-0.8,0.3-1.1l1.8-9.9
		c0-0.2,0.3-0.4,0.5-0.3c0.1,0,0.3,0.1,0.3,0.3c0.1,0.5,0.2,1,0.2,1.5c0.4,10.7-1.6,20.3-6.2,28.8c-0.2,0.3,0,0.7,0.3,0.9
		c0.2,0.1,0.4,0.1,0.6,0c8.6-5.2,13.8-17.5,16.3-27.4c0.7-2.7,1.3-7.8,1.7-15.1c0-0.3,0.3-0.6,0.6-0.6h0c0.4,0,0.7,0.3,0.7,0.6
		c1.5,13.7-0.8,24.6-6.4,36.7c-0.1,0.3,0,0.6,0.3,0.7c0.2,0.1,0.4,0.1,0.6-0.1c7.8-6.8,12.5-15.4,13.9-25.8c0.2-1.7,0.5-4.4,0.8-8.1
		c0-0.2,0.1-0.4,0.3-0.4c0.2,0,0.4,0.1,0.4,0.3c1.9,10.4-0.8,23.5-3.9,33.5c-0.1,0.1,0,0.3,0.1,0.3s0.3,0,0.3-0.1
		c4.7-6.1,8.2-11.3,9.7-19c1.9-9.7,1.3-18.8-1.8-27.4c-0.1-0.3,0-0.6,0.3-0.7l0,0c0.2-0.1,0.4,0,0.5,0.2c4.3,8.2,5.9,16.9,4.8,26.2
		c0,0.1,0,0.1,0.1,0.2c0.1,0,0.1,0,0.1-0.1c3-6.1,4.9-12.7,4.8-20.1c-0.2-8.4-0.6-16.2-1.4-23.5c-0.1-0.6,0.3-1.2,1-1.2
		c0.5-0.1,1,0.2,1.2,0.7l8.4,19.4c0.2,0.4,0.6,0.6,1,0.4c0.2-0.1,0.4-0.3,0.4-0.5c2.2-6.7,2.1-13.7-0.4-21.3
		c-0.1-0.3,0.1-0.6,0.3-0.7c0.1,0,0.3,0,0.4,0l0.6,0.3c0,0,0,0,0,0c2.5,5.9,4.2,11.5,5.3,16.8c0.1,0.5,0.5,0.7,1,0.7
		c0.2,0,0.4-0.2,0.5-0.3l0.6-0.8c1-1.4,1.4-3.1,1.1-4.8l-3.5-19.6c0,0,0-0.1,0.1-0.1c0,0,0,0,0,0l0.7,0.2c0.1,0,0.2,0.1,0.2,0.2
		l7.2,19.4c0.1,0.2,0.2,0.2,0.4,0.2c0.1,0,0.2-0.1,0.2-0.2c1.4-8.8,1.4-17.2-0.1-25.1c-0.1-0.3,0.1-0.6,0.4-0.6c0,0,0,0,0,0l0.4-0.1
		c0.2,0,0.4,0.1,0.4,0.3l7.3,24.1c0.1,0.4,0.5,0.7,0.9,0.6c1.9-0.4,3.2-1.5,3.8-3.5c0.9-3.1,1.1-7,0.7-11.6c-0.3-3.5-2.1-7.2-5.4-11
		c-0.3-0.3-0.2-0.8,0.1-1.1c0,0,0.1,0,0.1-0.1l0,0c0.4-0.2,0.9-0.2,1.2,0.2c5.8,6.6,9.1,14.2,10.1,22.8c0,0.4,0.4,0.6,0.7,0.6
		c0.3,0,0.5-0.2,0.6-0.4c3.9-9.3-3-20.8-2.4-27.8c0-0.5,0.5-0.9,1-0.9c0.3,0,0.5,0.1,0.7,0.4c3.2,3.9,4.6,9.1,6.5,14.8
		c0.1,0.4,0.5,0.6,0.9,0.5c0.2-0.1,0.4-0.2,0.5-0.5l2.5-7.5c0.1-0.4,0.6-0.6,1-0.5c0.3,0.1,0.5,0.3,0.5,0.6c0.4,2.9,0.4,6.3,0,10.4
		c0,0.2,0.1,0.4,0.3,0.4c0.1,0,0.2,0,0.3-0.1c4.3-4.1,6.5-8.9,6.4-14.4c0-0.3,0.2-0.5,0.5-0.5c0.1,0,0.2,0,0.2,0.1
		c0.5,0.3,0.8,0.6,0.9,1c1.4,6,2.2,9.4,2.5,10.2c0.2,0.6,0.9,1,1.5,0.8c0.3-0.1,0.5-0.3,0.7-0.5c2.1-3.5,2.9-6.9,2.5-10.1
		c0-0.3,0.2-0.6,0.5-0.6c0.2,0,0.3,0,0.4,0.1l0.9,0.8c0.4,0.3,0.6,0.8,0.7,1.3l1.2,6.5c0.1,0.7,0.8,1.2,1.6,1.1
		c0.2,0,0.5-0.2,0.7-0.3c1.9-1.7,2.8-3.3,2.9-4.9c0-0.3,0.3-0.5,0.5-0.5c0.1,0,0.1,0,0.2,0.1c1.9,0.9,2.2,3.4,2.1,5.6
		c0,0.8,0.5,1.5,1.3,1.6c3.8,0.6,6.4,1.8,7.9,3.7c0.4,0.5,0.3,1.2-0.2,1.6c-0.2,0.2-0.5,0.3-0.7,0.2c-9-0.4-19.7,0-21.8,10.2
		c-0.1,0.4,0.1,0.9,0.5,1.1c6.1,2.7,10.3,8.2,12.7,16.3c0.2,0.7-0.2,1.5-1,1.7c-0.1,0-0.2,0-0.2,0c-0.3,0-0.7-0.1-1.2-0.3
		c-7.4-3.9-14.3-6.1-20.7-6.7c-11.4-1-22.1-0.5-31.5,6.1c-6.3,4.4-11.7,9.6-16.3,15.6c-3.6,4.7-4.9,9.3-7.4,15.7
		c-0.1,0.2,0,0.5,0.3,0.6c0.2,0.1,0.4,0,0.5-0.1c1.2-1.1,4.2-3.8,8.8-8.1c2-1.8,5.7-3.9,11.1-6.2c0.1,0,0.2-0.1,0.3,0
		c0.2,0.1,0.4,0.2,0.5,0.4c0.1,0.2,0,0.4-0.2,0.5c-7.6,4.4-13.2,11-16.8,19.9c0,0.2,0,0.3,0.2,0.4c0.1,0,0.2,0,0.3,0
		c4.4-3.8,9.4-6.3,15-7.4c0.5-0.1,0.9,0.2,1,0.7c0,0.1,0,0.2,0,0.4c-0.3,1.5-1,2.8-2,4c-1.4,1.7-4.9,5.9-10.4,12.6
		c-1,1.2-2.4,1.8-3.9,1.7c-15.4-1.1-30.5,3.6-40.9,15.2c-0.4,0.4-1,0.5-1.4,0.3c-10.2-5.3-21.3-8.5-33.3-9.6
		c-20.8-1.8-40.7,1.2-57.3,14.3c-1.8,1.4-3.3,2.9-4.4,4.2c-0.2,0.2-0.2,0.6,0.1,0.8c0.1,0.1,0.3,0.1,0.4,0.1
		c8-0.7,14.5-1.6,19.6-2.6c0.4-0.1,0.9,0,1.6,0.2c0.4,0.1,0.6,0.6,0.5,1c-0.1,0.2-0.2,0.4-0.4,0.5c-4.2,2.2-9.1,4.4-14.9,6.7
		c-3.3,1.3-6,2.7-8.2,4.3c-0.6,0.5-0.8,1.3-0.3,2c0,0.1,0.1,0.1,0.2,0.2l2.6,2.6c0.5,0.5,0.5,1.2,0,1.7c-0.2,0.2-0.4,0.3-0.6,0.3
		c-2.1,0.4-4,0.3-5.7-0.2c-18.6-6.4-40.1-7.9-58.4-1.1c-21.6,8-38.2,24.9-47.1,45.6c-1.7,3.9-2.2,7.5-1.7,10.9
		c0.1,0.7-0.4,1.4-1.1,1.5c-0.3,0-0.5,0-0.8-0.1c-4.9-2.3-8-8.5-11.1-12.8c-0.3-0.4-0.6-0.8-1-1.1c-7.7-5.7-19-5-27.8-2.7
		c-19.8,5.1-37.5,8.8-51.5,21.3c-6.2,5.5-11.9,11.6-17.2,18.4c-15.7,20-20.5,43.6-13.9,68.5c1.7,6.5,4.5,13.7,8.2,21.5
		c0.1,0.1,0.2,0.2,0.3,0.2l0.4-0.1c0.2,0,0.4-0.3,0.3-0.5c0,0,0,0,0-0.1c-7.9-22.7-9.3-47.7-1.2-70.6c0-0.1,0.2-0.2,0.3-0.2l0.3,0.1
		c0.3,0.1,0.5,0.4,0.4,0.6c-6.3,26.3-2.8,51.3,10.6,74.9c0.4,0.7,0.7,1.1,1,1.3c0.1,0.1,0.2,0.1,0.3,0c0.1-0.1,0.1-0.2,0-0.2
		c-2.7-6.7-4.1-10.4-4.4-11.1c-0.9-2.5-1.6-6.7-2.1-12.6c-0.5-5.7-0.5-13,0-21.8c0.1-2.6,0.6-4.9,1.5-7c0.1-0.1,0.2-0.2,0.3-0.1
		c0.1,0,0.1,0.1,0.2,0.2c0.1,0.5,0.1,1.8-0.1,3.9c-1,11.3,0.3,22.6,3.9,33.7c3.3,10.3,8.9,18.9,16.8,26c0.1,0.1,0.4,0.1,0.5,0
		c0.1-0.1,0.1-0.3,0-0.4c-5.9-9.5-9.6-20.1-11.1-31.7c-1.3-9.8-1.4-18.6-0.4-26.4c0.1-0.5,0.5-0.8,0.9-0.8h0c0.4,0,0.7,0.4,0.7,0.8
		c-0.2,8.1,0.5,16.3,2.1,24.7c1.9,10.3,6.1,19.9,12.5,28.7c0,0.1,0.1,0.1,0.2,0.1v0c0.1,0,0.1-0.1,0.1-0.2
		c-7.2-14.9-9.2-30.5-6.1-46.9c0-0.3,0.2-0.5,0.5-0.5c0.3,0,0.5,0.2,0.5,0.5c0.5,7.1,1.2,13.4,2,18.9c1.7,10.8,5.3,20.9,11,30.4
		c1.4,2.4,3.3,4.4,5.6,6.2c0,0,0.1,0,0.1,0c0,0,0-0.1,0-0.1c-7.4-11.3-9.6-26.1-8.4-39.5c0-0.1,0.1-0.2,0.3-0.2
		c0.1,0,0.2,0.1,0.2,0.1c0.5,1,0.8,2,0.9,2.9c0.6,14.9,5.7,27.9,15.2,39.1c3.6,4.2,9.2,9,14.6,9.8c0.1,0,0.3-0.1,0.3-0.2
		c0-0.1,0-0.2-0.1-0.3c-2.9-2.4-4.5-3.8-4.7-4.1c-6.7-8.4-11.3-17.6-13.8-27.6c-0.8-3.1-1.2-5.9-1.2-8.5c0-0.1,0.1-0.2,0.3-0.2
		c0.1,0,0.2,0.1,0.2,0.2c4.5,16.4,14,29.6,28.5,39.5c0.2,0.2,0.6,0.1,0.7-0.1c0.1-0.2,0.1-0.4,0-0.6c-3.9-4.7-7.3-10.1-10.2-16.3
		c-2-4.4-3.5-9.5-4.3-15.3c0-0.4,0.2-0.7,0.5-0.8l0,0c0.4-0.1,0.8,0.2,0.9,0.5c4.6,17,19.4,36.7,39.4,34.1c0.1,0,0.2-0.2,0.2-0.3
		c0-0.1-0.1-0.2-0.1-0.2c-2.4-1-5.6-2.5-9.5-4.7c-7.7-4.2-12.2-10.7-16.2-18.6c-1-2-1.7-4-1.9-6c-0.1-0.3,0.1-0.6,0.4-0.6
		c0.3-0.1,0.6,0.1,0.6,0.4l0,0c1.5,3.5,3.8,6.6,6.6,9.3c8.3,7.8,17.5,13.2,27.7,16.3c0.3,0.1,0.7,0,0.9-0.2l0.3-0.2
		c0.2-0.2,0.2-0.4,0.1-0.6c0-0.1-0.1-0.1-0.2-0.1c-10.8-4.6-18.2-12.3-22.3-23.1c-0.1-0.3,0.1-0.5,0.3-0.6c0.2-0.1,0.4,0,0.5,0.2
		c3.4,4.5,7.3,8.3,11.7,11.3c7,4.9,14.7,7.4,23,7.5c0.2,0,0.4-0.2,0.4-0.4c0-0.2-0.1-0.3-0.2-0.4c-8.7-3.9-16.3-9.7-23-17.7
		c-0.2-0.3-0.2-0.7,0.1-0.9c0.2-0.2,0.5-0.2,0.8,0c8.7,6.3,17,10.9,27.6,12.7c0.3,0,0.5-0.1,0.6-0.4c0-0.2,0-0.4-0.2-0.5
		c-2.1-1.6-6.8-6.6-6.4-9.1c0.1-0.8,0.9-1.2,1.7-1.1c0.3,0.1,0.6,0.2,0.8,0.4c0.8,0.8,1.7,1.4,2.8,1.9c6.3,3,12.2,5,17.8,6.1
		c3.2,0.6,6.3,0.7,9.4,0.4c0.1,0,0.2-0.1,0.2-0.2v-0.3c0-0.3-0.2-0.6-0.6-0.6c-3.6-0.2-6.9-1.3-9.9-3.2c-6.5-4.1-12.1-8.2-16.8-12.4
		c-0.3-0.3-0.4-0.8-0.1-1.2c0.2-0.3,0.6-0.4,1-0.2c6,2.7,13,5.6,20.9,8.4c6,2.2,11.7,2.8,17.4,1.8c0.1,0,0.2-0.2,0.2-0.3
		c0-0.1-0.1-0.2-0.2-0.2c-2.2-0.1-4.4-0.7-6.6-1.7c-7.5-3.5-13.9-8-19.1-13.7c-0.1-0.1-0.1-0.4,0-0.5c0.1-0.1,0.3-0.1,0.4,0
		c3.7,2.3,9.9,6.1,15.7,7.8c5.4,1.6,12.3,2.7,20.8,3.2c3.5,0.2,7.1-0.1,10.6-1.1c0.2,0,0.3-0.2,0.2-0.4c0-0.1-0.2-0.2-0.3-0.2
		c-3.6,0.1-6,0-9.3-1.1c-7.1-2.6-13.4-6.7-18.7-12.5c-0.4-0.4-0.6-0.8-0.6-1.3c0-0.4,0.3-0.7,0.6-0.7c0.1,0,0.2,0,0.3,0.1
		c10.7,6,26,11.9,38.1,9.4c0.2,0,0.4-0.2,0.4-0.4c0-0.2-0.2-0.4-0.4-0.4l0,0c-14.7-0.4-25-9.4-33.1-20.6c-0.2-0.2-0.1-0.6,0.1-0.7
		c0.2-0.1,0.4-0.1,0.6,0c11.2,7.7,20.8,14.4,34.9,13.9c0.1,0,0.3-0.1,0.3-0.3c0-0.1-0.1-0.2-0.2-0.2c-8.6-2.9-17.7-7.6-22.8-15.7
		c-0.1-0.2-0.1-0.5,0.1-0.6c0.2-0.1,0.4-0.1,0.5,0l6.1,4.6c0.2,0.1,0.4,0.2,0.6,0.3c11.7,5,21.5,8.1,32.5,3.3
		c0.4-0.2,0.6-0.7,0.4-1.1c-0.1-0.3-0.4-0.5-0.7-0.5c-9.1-0.5-18.4-2.4-28-5.9c-0.3-0.1-0.5-0.4-0.4-0.7c0.1-0.2,0.2-0.3,0.4-0.4
		c1.3-0.3,2.6-0.4,4-0.3c4.8,0.5,11.1,0.6,18.8,0.5c2.5-0.1,4.8-0.5,6.9-1.5c0.3-0.1,0.4-0.5,0.3-0.7c0-0.1-0.1-0.2-0.2-0.3
		c-6.3-3.5-14.8-4.9-19.4-6.5c-0.9-0.3-1.3-1-1.3-2c0-0.6,0.5-1,1.1-1H562c0.4,0,0.6-0.3,0.6-0.6c0-0.1,0-0.2-0.1-0.3
		c-1.4-2.1-3.3-4.2-5.7-6.3c-0.6-0.5-0.9-0.7-0.9-0.8c0.1-1.1,1.1-1.9,2.2-1.8c0.2,0,0.5,0.1,0.7,0.2c6.3,3,12.2,8.4,19.2,3.1
		c5.1-3.9,9.1-8.9,12-15c0.1-0.2,0.3-0.3,0.5-0.2l0.3,0.1c0.4,0.1,0.6,0.5,0.5,0.9c-1.7,6.4-4.6,12.3-8.6,17.5
		c-0.1,0.1-0.1,0.3,0.1,0.3c0.1,0.1,0.2,0.1,0.3,0c3.5-1.6,6.9-3.7,10.1-6.1c3.8-2.9,6.1-6,9.4-9.7c0.1-0.2,0.4-0.2,0.6,0
		c0.1,0.1,0.1,0.2,0.1,0.3c0,0.4-0.1,0.9-0.3,1.5c-2.3,6.7-6.5,12.2-12.4,16.5c-0.2,0.1-0.2,0.4-0.1,0.6c0.1,0.1,0.2,0.2,0.4,0.2
		c7.3-1.1,13.7-4,19.4-8.7c2-1.7,8.3-7.1,18.9-16.1c0.1-0.1,0.3-0.1,0.4,0c0.1,0.1,0.1,0.1,0.1,0.2c-0.1,0.8-0.4,1.6-1,2.4
		c-2.7,3.7-6.7,8.5-12,14.2c-5,5.5-9.8,9.1-14.3,10.9c-0.2,0.1-0.3,0.3-0.2,0.4c0,0.1,0.1,0.1,0.1,0.1l0.4,0.4c0,0,0,0,0.1,0
		c3.4-1.7,6.9-3.2,10.7-4.6c5.3-2,8.8-3.6,10.6-4.9c7-5,12.4-10,16.1-15c1.6-2.1,2.8-3.7,3.6-4.7c0.2-0.2,0.4-0.2,0.6,0
		c0.1,0.1,0.2,0.3,0.1,0.4c-2.8,9.5-11.3,20.2-18.4,26.1c-2.3,1.9-4.6,3.4-6.8,4.5c-0.2,0.1-0.3,0.3-0.2,0.5
		c0.1,0.1,0.2,0.2,0.3,0.2c1.4,0.1,3-0.1,4.6-0.6c8.4-2.7,15.7-7.1,21.8-13.3c8.2-8.2,14.4-17.8,18.7-28.8c0.1-0.2,0.3-0.3,0.6-0.3
		c0.2,0.1,0.3,0.2,0.3,0.4c0,9.6-6.4,21.3-12.3,28.7c-0.1,0.1,0,0.2,0,0.2c0.1,0,0.1,0,0.2,0c11.8-8.9,19-20.2,21.7-33.9
		c0-0.2,0.3-0.4,0.5-0.3c0.1,0,0.1,0.1,0.2,0.1l0.3,0.3c0.3,0.3,0.4,0.7,0.4,1.1c-0.3,9.9-3,18.6-8.1,26.3c-0.1,0.1,0,0.3,0.1,0.3
		c0.1,0,0.2,0,0.2,0c3.8-2.5,7-5.4,9.5-8.8c5.5-7.4,9.9-15.9,13.2-25.4c0.1-0.2,0.3-0.3,0.5-0.2c0.2,0.1,0.3,0.2,0.2,0.4
		c-1.8,12.9-6.3,24.5-13.7,34.9c0,0.1,0,0.2,0.1,0.2c0.1,0,0.1,0,0.2,0c9.9-7.9,17.2-17.3,21.9-28.1c0.2-0.3,0.6-0.5,0.9-0.3
		c0.3,0.1,0.4,0.4,0.4,0.7c-1.5,7.4-4.5,14.2-9,20.4c-1.4,2-2.9,4.1-4.5,6.4c-0.1,0.1-0.1,0.3,0.1,0.4c0.1,0.1,0.2,0.1,0.3,0
		c10.3-4.6,17.5-12.3,21.5-23c0.4-1.1,0.9-2,1.6-2.7c0.2-0.3,0.6-0.3,0.9,0c0.1,0.1,0.2,0.3,0.2,0.5c-0.1,6.4-1.9,12.5-5.3,18.3
		c-0.1,0.2-0.1,0.5,0.2,0.7l0,0c0.2,0.2,0.5,0.1,0.7-0.1c3.1-3.6,5.2-6,6.3-7.3c4.6-5.2,6.2-8.9,10.6-16.6c0.2-0.3,0.5-0.3,0.8-0.2
		c0.2,0.1,0.3,0.4,0.3,0.6c-2.4,10.9-5.5,19.2-13.4,26.5c-0.1,0.1-0.2,0.3-0.1,0.4c0.1,0.1,0.3,0.2,0.4,0.1
		c11.8-5.9,19.2-17.8,27.3-29.3c0.1-0.2,0.4-0.3,0.7-0.1c0.2,0.1,0.2,0.3,0.2,0.5c-3.3,11.4-8.8,21.3-16.7,29.6
		c-0.2,0.2-0.2,0.5,0,0.7c0.2,0.2,0.4,0.2,0.6,0.1c6.8-4.2,12.1-9.2,16-14.9c4.5-6.5,9.9-15.8,12.4-24.1c0.1-0.3,0.5-0.5,0.8-0.4
		c0,0,0.1,0,0.1,0l0,0c0.4,0.2,0.5,0.6,0.5,1c-2.3,11.5-5.9,22.6-10.9,33.1c-0.8,1.7-2.4,4.1-4.1,5.7c-0.1,0.1-0.1,0.3,0,0.4
		c0.1,0.1,0.2,0.1,0.2,0.1c3.5,0,10.9-7.5,12.5-9.5c6-7.6,10.1-15.8,12.2-24.7c0-0.2,0.2-0.3,0.4-0.3l0.3,0.1
		c0.4,0.1,0.6,0.4,0.6,0.7c-0.9,12.1-3.5,24.1-11,34c-0.3,0.3-0.2,0.9,0.1,1.1c0.3,0.2,0.7,0.2,1,0c6.6-4.1,11.7-9.3,15.2-15.7
		c2.2-4.1,3.5-11,4.2-15.6c0-0.2,0.2-0.3,0.4-0.3c0.1,0,0.1,0,0.2,0.1c0.1,0.1,0.1,0.2,0.2,0.5c0.5,6.5,0.1,12.8-1.2,18.8
		c-0.1,0.3,0.1,0.6,0.4,0.6c0.2,0,0.4,0,0.5-0.2c9-10,14.1-15.6,15.2-16.8c0.7-0.8,1.6-1.1,2.5-1c0.3,0.1,0.4,0.3,0.4,0.6
		c0,0,0,0.1,0,0.1c-3.9,8.5-8.7,16-14.4,22.5c-1.3,1.5-2.6,2.8-3.9,3.7c-1.6,1.2-3,2.3-4.2,3.3c-0.2,0.2-0.2,0.5-0.1,0.7
		c0.1,0.2,0.3,0.2,0.5,0.2c11.1-3.5,19.3-10.1,29.1-18.9c0.6-0.5,0.9-0.8,1-0.8c0.9,0.2,1.5,1.1,1.3,2c0,0.2-0.1,0.3-0.2,0.5
		c-5.7,9.9-13.2,16.6-22.5,20.2c-0.2,0.1-0.3,0.3-0.2,0.5c0,0.1,0.2,0.2,0.3,0.2c0.9,0.1,1.9,0.1,2.9-0.1
		c14.1-2.4,24.9-9.6,32.6-21.7c0.2-0.3,0.5-0.4,0.8-0.2c0.2,0.1,0.3,0.3,0.3,0.5c-0.1,6.6-10,18.2-14.7,22.8
		c-2.5,2.4-4.9,4.8-7.3,7.1c-0.1,0.1-0.1,0.3,0,0.4c0.1,0.1,0.2,0.1,0.3,0.1c13.6-3.8,25.6-12.4,33.6-24.2c0.2-0.3,0.5-0.3,0.8-0.2
		l0,0c0.3,0.2,0.4,0.5,0.2,0.8c-2.3,4.1-3.9,7-4.8,8.7c-4.4,8.5-10.6,15-18.5,19.5c-0.1,0-0.1,0.1-0.1,0.2l0.2,0.3
		c0.1,0.1,0.2,0.2,0.4,0.1c7.5-3,14-6.8,19.6-11.6c5.9-5.1,9.4-12.1,12.5-18.8c0.1-0.2,0.3-0.3,0.5-0.3c0.2,0.1,0.3,0.3,0.3,0.5
		c-1.8,9.7-5.5,21.4-13.1,28.2c-0.1,0.1-0.1,0.3,0,0.4c0.1,0.1,0.2,0.1,0.3,0.1c1.8-0.3,3.4-1.1,4.8-2.4
		c9.7-8.6,13.2-19.2,15.9-31.3c0.1-0.6,0.8-1,1.4-0.9c0.5,0.1,0.9,0.5,0.9,1c0.8,7.7,0,15-2.6,21.9c-0.1,0.2,0,0.4,0.2,0.4
		c0.1,0,0.2,0,0.3-0.1c8.1-6.6,13.4-16.2,15.1-26.7c0.1-0.5,1.1-5.3,3-14.6c0.1-0.7,0.5-1,1.2-1.1c0.3,0,0.6,0.2,0.6,0.5
		c0,0,0,0,0,0.1c0.3,9.7-0.6,18.9-2.8,27.6c-1.7,6.6-4.8,12.4-9.5,17.5c-0.2,0.2-0.2,0.5,0,0.6c0.2,0.2,0.4,0.2,0.6,0.1
		c12.1-7.1,19.6-26,21.6-39.5c1.5-9.8,2.1-17.3,1.9-22.6c0-0.4,0.3-0.7,0.7-0.8h0c0.3,0,0.6,0.2,0.6,0.5c1.5,8.5,1.9,17.5,1.4,27.1
		c-0.4,8.4-2.1,16.5-5.1,24.4c-0.1,0.2,0,0.4,0.2,0.4c0.1,0.1,0.3,0,0.4-0.1c6.5-5.1,9-12.9,10.8-20.7c3.1-13.9,3.3-27.9,0.6-42
		c0-0.3,0.1-0.5,0.4-0.6c0.2,0,0.4,0.1,0.5,0.2c1.1,1.8,2,3.9,2.7,6.4c4.1,14.7,3.6,29.5,0.1,43.7c0,0.1,0,0.1,0.1,0.1
		c0,0,0.1,0,0.1-0.1c2.6-5,4.8-10.1,6.7-15.5c1.5-4.4,2.5-9.9,2.8-16.5c0.5-9-0.8-27.4-8.7-32.1c-0.4-0.2-0.7-0.3-1.1-0.3l-33.5,0.4
		c-0.1,0-0.2,0-0.3,0c-2.1,0.5-3.5,1-4.2,1.5c-2.4,1.6-6.8,6-8.7,9.5c-0.9,1.6-1.8,2.8-2.7,3.9c-0.1,0.1-0.2,0.3,0,0.5
		c0.1,0.1,0.3,0.2,0.5,0c1.7-1.1,5.3-3.7,10.8-7.8c1.3-0.9,2.4-1.5,3.5-1.6c0,0,0.1,0,0.1,0.1c0,0,0,0,0,0.1l-13.3,16.1
		c-0.1,0.1-0.1,0.3,0.1,0.4c0.1,0.1,0.2,0.1,0.3,0c5.4-3.4,11.2-7.6,18.7-8.5c0.2,0,0.5,0.1,0.5,0.4c0,0.2-0.1,0.4-0.3,0.5
		c-4.2,2.3-10,6.1-12.5,10.5c-0.3,0.5-0.1,1.1,0.4,1.4c0.2,0.1,0.5,0.2,0.7,0.1l6.4-1.2c0.6-0.1,1.1,0.3,1.3,0.9c0,0.1,0,0.3,0,0.4
		c-0.1,0.7-0.3,1.1-0.7,1.4c-2.8,2.6-5.4,5.1-7.7,7.5c-0.4,0.4-0.4,1,0,1.4c0.1,0.1,0.2,0.1,0.3,0.2c1.1,0.5,1.7,1.3,1.7,2.4
		c0.2,6.9,0.1,12.3-0.3,16.2c0,0.5-0.3,0.8-0.7,1c-4,1.8-8.1-3.1-10.3-6c-6.3-8.2-13.7-13.8-23.6-15.5c-6.6-1.2-13.5-2.3-20.6-3.3
		c-9.2-1.3-20.4-3.4-25.5-11.6c-0.3-0.4-0.1-1,0.3-1.2c0.2-0.1,0.4-0.2,0.7-0.1c6.9,1.4,12.1-0.7,18.8-4.3c0.7-0.4,1.5-0.7,2.3-1
		c3.6-1.3,5.6-2.1,6.1-2.5c4.8-3.7,8.2-9.5,10.3-17.1c0.2-0.9,0.5-1.5,0.7-1.7c0.3-0.3,0.8-0.4,1.2,0c0.1,0.1,0.2,0.3,0.3,0.5
		c1,8.4-5.2,19.1-10.9,25.2c-0.2,0.2-0.2,0.5,0,0.7c0.1,0.1,0.3,0.2,0.5,0.1c11.8-5.8,19-20,22.9-32c0.1-0.2,0.2-0.3,0.4-0.2
		l0.3,0.1c0.3,0.1,0.6,0.4,0.5,0.8c-2.8,12.6-8,24.1-15.7,34.5c-0.1,0.1,0,0.2,0.1,0.3c0.1,0,0.1,0.1,0.2,0
		c15.2-6,24.6-26.2,26.4-41.3c0.3-2.9,0.7-7.7,1-14.2c0-0.2,0.2-0.3,0.3-0.3h0.3c0.3,0,0.6,0.2,0.6,0.5c1,9.2,1.1,18.2,0.4,27
		c0,0.2,0.2,0.4,0.4,0.4c0.2,0,0.3-0.1,0.4-0.2c5.4-16.1,7-34,2.4-50.3c-0.1-0.4,0.1-0.8,0.5-0.9c0.1,0,0.3,0,0.4,0
		c3.6,1.4,7.2,6.6,7.8,9.7c1.2,5.7,1.8,10,3,11.7c0.7,1,2.1,1.2,3.1,0.5c4.4-2.8,7.5-6.7,9.3-11.7c0.1-0.4,0.6-0.7,1-0.5
		c0.4,0.1,0.6,0.5,0.6,0.9c-0.6,3.7-2.1,7.2-4.5,10.5c-2.8,3.9-4.5,6.1-5.2,6.8c-0.4,0.3-0.4,0.9,0,1.2c0.2,0.2,0.4,0.3,0.6,0.3
		c11.5,0.1,12.6-9,17-16.6c0.1-0.2,0.4-0.3,0.7-0.2c0.2,0.1,0.3,0.3,0.3,0.5c-1.2,8.7-2.5,18.4-10.9,22.8c-0.2,0.1-0.3,0.4-0.2,0.6
		c0.1,0.2,0.3,0.2,0.4,0.2c11.6-1,18.8-11.5,20.2-22.1c0-0.2,0.3-0.4,0.5-0.3c0.2,0,0.3,0.2,0.3,0.4c0.7,5.4-0.1,10.7-2.2,15.8
		c-2,4.8-6,7.6-10.3,10.7c-0.2,0.1-0.3,0.4-0.1,0.6c0.1,0.1,0.2,0.1,0.3,0.2c3,0.8,6.2,0.6,9.4-0.7c16.6-6.8,15.7-28,11.1-42.4
		c-0.1-0.2,0-0.5,0.3-0.6c0.2-0.1,0.4,0,0.5,0.2c5.3,6.8,5.8,23.3,4.7,30.8c-0.9,6.1-3.8,11.5-8.7,16.4c-0.1,0.2-0.1,0.4,0,0.6
		c0.1,0.1,0.3,0.1,0.4,0.1c7-2.8,11.3-8,12.8-15.5c1.6-7.7,1.8-16,0.7-24.9c-1.2-9.4-5.1-15.9-11.2-25.1c-2-3-8.7-9.8-12-5.2
		c-0.3,0.4-0.4,0.8-0.4,1.3c0.5,5.2,0.1,10.3-1.1,15.5c-0.5,2.2-0.3,4.7-2.2,6.8c-0.6,0.6-1.6,0.7-2.3,0c-0.2-0.2-0.4-0.5-0.4-0.8
		c-1.2-4.7-2-7.5-2.4-8.6c-4.8-15.2-18.5-26-35-21.5c-9.4,2.6-17.6,13.2-23.8,21.5c-3.8,5.1-6.4,12.1-8.1,16.7
		c-0.1,0.2,0,0.3,0.2,0.4c0.1,0,0.2,0,0.3,0c7.9-5.8,11.9-8.9,12.1-9.2c0.3-0.5,0.9-0.7,1.4-0.4c0.4,0.2,0.6,0.7,0.5,1.2
		c-0.9,3.5-7.2,8.5-10.4,11.7c-0.1,0.1-0.1,0.2,0,0.3c0.1,0.1,0.2,0.1,0.3,0.1l11.4-4.9c0.1,0,0.2,0,0.3,0.1c0,0.1,0,0.1,0,0.2
		c-4.4,6.8-8.2,11.5-15.8,15.9c-6,3.4-11.9,7.9-17.9,13.6c-2.9,2.7-6.7,5.7-10,6.7c-8.6,2.6-20.3,2.2-28.5,2.8
		c-9.7,0.8-18.1,4.4-25.1,11c-0.3,0.3-0.3,0.7,0,1c0.2,0.2,0.4,0.2,0.6,0.2l5.5-1c1-0.2,1.9,0.5,2,1.4c0.1,0.5-0.1,1.1-0.4,1.5
		l-2.6,2.8c-0.4,0.5-0.5,1.2-0.3,1.7c0.6,1.3,0.4,2.4-0.4,3.5c-0.4,0.5-0.6,1-0.6,1.6l0.1,5.1c0,0.2,0,0.4-0.1,0.6l-3.1,8.4
		c-0.4,1.1-1.6,1.7-2.7,1.3c-0.2-0.1-0.3-0.1-0.5-0.2c-3.2-2.2-6-8.4-9.7-11.5c-13.7-11.7-37-9.8-51.9-1.9
		c-6.7,3.6-11.2,6.3-15.5,12.1c-0.3,0.4-0.2,1,0.2,1.3c0.1,0.1,0.2,0.1,0.4,0.2c3.3,0.6,9.1,1.5,10.7,3.9c0.2,0.3,0.1,0.7-0.2,0.8
		c-0.1,0-0.1,0.1-0.2,0.1c-10.7,2.3-18.7,1.1-32.8-0.4c-5.9-0.6-12.7-0.7-20.6-0.1c-17.2,1.3-34.7,11.8-47.1,22.7
		c-4,3.5-6.8,6.1-8.3,7.8c-6.2,6.7-14.3,11-22.4,13.4c-16.3,4.9-34.6,9-48.3,20.6c-6.3,5.3-9.8,12.3-10.5,20.8
		c-0.3,3.2-0.4,5.1-0.5,5.5c-0.1,1.1-1.1,2-2.3,1.9c-0.6-0.1-1.1-0.4-1.5-0.9c-6.2-8.5-14.5-12.9-25-13.3
		c-14.8-0.6-30.7,0.2-41-10.8c-0.3-0.3-0.3-0.9,0-1.2c0.2-0.2,0.6-0.3,0.9-0.2c0.4,0.1,2,0.7,5,1.7c6.8,2.3,14.9,2.5,21.7,1.5
		c0.3,0,0.4-0.3,0.4-0.6c0-0.2-0.1-0.3-0.3-0.4c-10.2-3.8-19.1-9.3-26.8-16.5c-0.2-0.2-0.2-0.4,0-0.6c0.1-0.1,0.3-0.1,0.5-0.1
		c6.6,3.9,13.6,7.3,21.3,10.3c5.3,2.1,9.9,2.8,15.6,3.2c0.1,0,0.1-0.1,0.1-0.1c0,0,0-0.1-0.1-0.1c-7.7-3.4-14-8.3-18.9-14.7
		c-0.2-0.2-0.1-0.6,0.1-0.8c0.2-0.2,0.5-0.2,0.7,0c8.5,6.9,18.1,12.7,29.4,13.4c0.2,0,0.4-0.2,0.4-0.4c0-0.2-0.1-0.3-0.3-0.4
		c-1.7-0.7-3.4-1.7-5.2-3c-4.8-3.8-10.8-8.7-17.8-14.8c-0.1-0.1-0.1-0.2,0-0.3l0.2-0.3c0.2-0.3,0.5-0.3,0.8-0.2
		c11.2,7.1,20.9,13.1,32.8,15.9c0.2,0.1,0.4-0.1,0.4-0.3c0-0.2,0-0.3-0.2-0.4c-8.3-4.9-16.1-11-23.2-18.3c-0.2-0.2-0.2-0.5,0-0.7
		c0.2-0.2,0.4-0.2,0.6-0.1c3.2,1.7,6.8,3.7,10.8,6.2c2.9,1.8,5.9,3.2,9.1,4.3c0.1,0,0.3,0,0.3-0.2c0-0.1,0-0.1,0-0.2
		c-0.5-0.7-2.9-3.9-7.2-9.5c-4.2-5.5-10.6-11.8-14.1-18.5c-0.3-0.5-0.1-1.2,0.4-1.4c0.1-0.1,0.3-0.1,0.4-0.1c1-0.1,5.4,3.3,9.2,5.9
		c0.2,0.1,0.5,0.1,0.6-0.1c0.1-0.1,0.1-0.2,0.1-0.3c0-2.4,0.5-8.7,3.4-9c0.6,0,1.1,0.3,1.2,0.9c1.7,9.4,5.5,18.5,15,22.7
		c0.1,0.1,0.3,0,0.3-0.1c0-0.1,0-0.2,0-0.2l-3.9-6.1c-0.4-0.7-0.5-1.5-0.3-2.3l0.3-0.9c0.1-0.3,0.5-0.5,0.8-0.4
		c0.1,0,0.2,0.1,0.3,0.2c5.4,8.1,12.7,12.6,22.1,13.5c0.2,0,0.4-0.1,0.4-0.3c0-0.1,0-0.2-0.1-0.3c-0.3-0.3-1.5-1.4-3.5-3.1
		c-5.3-4.6-9-10.1-11.1-16.4c-0.2-0.4,0.1-0.9,0.5-1.1c0.4-0.1,0.8,0,1,0.4c6.7,10.1,16.3,15.9,28.8,17.2c0.2,0,0.4-0.1,0.4-0.3
		c0-0.1,0-0.2-0.1-0.3c-4.8-4-10.5-7.3-13.9-11.7c-2-2.5-3.9-5.5-5.9-9c-0.1-0.2,0-0.5,0.2-0.6c0.2-0.1,0.4-0.1,0.5,0
		c0.6,0.5,3.1,2.7,7.3,6.5c2,1.8,6,4.2,11.9,6.9c5.7,2.7,11.6,2.3,17.7-1.1c0.1-0.1,0.2-0.3,0.1-0.4c0-0.1-0.1-0.1-0.2-0.1
		c-5-0.8-9-1.1-12.5-3.2c-4.9-3-8.4-7.5-10.6-13.4c-0.1-0.2,0-0.5,0.3-0.6c0.2-0.1,0.3,0,0.5,0.1c8.3,9.6,19.1,12.8,32.4,9.5
		c2.3-0.6,4.2-1.8,6.6-3.1c0.1,0,0.1-0.1,0-0.2c0,0-0.1-0.1-0.1-0.1c-8.9,2-18.8-3.8-24.1-10.2c-0.2-0.2-0.3-0.5-0.2-0.7
		c0.1-0.4,0.5-0.7,0.9-0.7c0.1,0,0.2,0.1,0.3,0.1c7.3,5.1,15.3,7,24.2,5.9c2.4-0.3,4.4-0.9,5.9-1.9c0.2-0.1,0.2-0.3,0.1-0.5
		c0-0.1-0.1-0.1-0.2-0.2c-0.2,0-1.8-0.1-4.9-0.2c-6.2-0.2-11.8-8.1-14.7-12.7c-0.1-0.2-0.1-0.6,0.2-0.7c0.2-0.1,0.4-0.1,0.6,0
		c2.3,1.8,4.7,4.4,7.5,5.7c5.9,2.9,11.8,2.6,17.7-0.7c0.2-0.1,0.2-0.3,0.1-0.5c0-0.1-0.1-0.2-0.2-0.2c-1.4-0.4-3,0-4.7-0.8
		c-4.3-2.1-11.3-7.5-12.3-12.4c0-0.2,0.1-0.4,0.3-0.5c0.1,0,0.3,0,0.4,0.1c6.5,6.9,13,10.6,22.3,5.9c0.7-0.3,0.9-1.2,0.6-1.8
		c-0.1-0.2-0.3-0.4-0.5-0.6l-19.4-11.2c-0.7-0.4-0.9-1.2-0.5-1.9c0.2-0.4,0.7-0.7,1.2-0.7c5.6-0.1,11.4,0.9,17.4,2.9
		c0.5,0.2,1.1-0.1,1.3-0.6c0-0.1,0-0.1,0-0.2l2-13.7c0-0.3,0.3-0.4,0.6-0.4c0.2,0,0.3,0.2,0.4,0.3c1.3,5.4,1.9,11.1,1.8,17.2
		c0,0.5,0.4,0.9,0.9,0.9c0.1,0,0.3,0,0.4-0.1c3.4-1.4,5.7-13.6,6.1-18c0.2-2.2,0.5-4,0.9-5.4c0-0.2,0.2-0.3,0.4-0.2
		c0.1,0,0.2,0.1,0.2,0.3c1.6,8.2,2.3,16.6,2.1,25.1c0,0.4,0.3,0.7,0.7,0.7c0.1,0,0.3,0,0.4-0.1c4.5-3.1,6.1-10.3,6.8-15.5
		c0.6-4,0.8-8.7,0.7-14.1c0-0.2,0.2-0.4,0.4-0.4c0.1,0,0.2,0.1,0.3,0.1c1.3,1.7,1.3,4.4,1.6,5.8c1.9,8.4,1.2,16.6-2,24.5
		c-0.1,0.3,0,0.6,0.3,0.7c0.2,0.1,0.4,0.1,0.5,0c3.7-2.1,6.5-5,8.5-8.7c3.9-7.2,6.1-15,6.7-23.2c0-0.3,0.3-0.6,0.6-0.6l0,0
		c0.4,0,0.7,0.3,0.7,0.6c0,0,0,0,0,0c0.6,9.9,0.1,20.5-5.5,29.1c-0.1,0.2-0.1,0.5,0.1,0.6c0.1,0,0.1,0.1,0.2,0.1
		c3.2,0.4,7.6-4.9,9.1-7c5.3-7.1,8.6-14.8,10-23.1c0.1-0.3,0.4-0.6,0.7-0.5h0c0.4,0,0.6,0.3,0.7,0.7c0.5,11.1-2.4,21.3-8.8,30.4
		c-0.2,0.4-0.2,0.8,0.2,1.1c0.2,0.2,0.5,0.2,0.8,0.1c2.4-1.2,5.1-3.3,7.9-6.3c6.3-6.7,10.4-14.5,12.5-23.3c0.1-0.4,0.4-0.6,0.8-0.5
		h0c0.4,0.1,0.6,0.4,0.6,0.7c-0.3,10.7-3.2,20.7-8.7,29.9c-0.1,0.2,0,0.5,0.2,0.6c0.1,0.1,0.3,0.1,0.4,0
		c7.5-4.2,13.1-10.2,16.9-18.1c3.2-6.7,4.9-11.8,5.2-15.4c0-0.2,0.2-0.4,0.5-0.4c0.1,0,0.2,0.1,0.3,0.1l0,0.1c0.4,0.4,0.6,1,0.5,1.5
		c-0.7,10.2-3.2,19.1-7.6,26.6c-0.1,0.2,0,0.4,0.1,0.5c0.1,0,0.2,0.1,0.3,0c1.6-0.3,3.3-1.4,5.1-3.2c10.5-10.2,13.1-22.7,14.2-36
		c0-0.3,0.3-0.6,0.6-0.6h0c0.3,0,0.5,0.2,0.5,0.5c0.3,12.4-0.1,24-6,33.7c-0.1,0.2-0.1,0.5,0.2,0.6c0.1,0.1,0.3,0.1,0.4,0
		c8.6-4.7,13.9-16.6,15.5-25.8c0.1-0.7,0.7-3.8,1.7-9.5c0-0.3,0.2-0.5,0.5-0.4c0.3,0,0.5,0.2,0.4,0.5l0,0c0.4,7.7-1,15.1-2.6,22.9
		c-0.1,0.2,0.1,0.4,0.3,0.5c0.2,0,0.3,0,0.4-0.2c8-10.8,10.7-20.7,7.9-34.3c0-0.3,0.1-0.5,0.4-0.6h0c0.4-0.1,0.7,0.1,0.9,0.4
		c2.1,5.8,3,12,2.7,18.7c-0.2,4.8-1,8.2-2.4,10.1c-0.1,0.2-0.1,0.4,0.1,0.6c0.1,0.1,0.2,0.1,0.3,0.1c0.6,0,1.2-0.4,1.8-1.2
		c6-7.6,8.8-16.5,8.2-26.6c0-0.3,0.2-0.6,0.6-0.7c0.3,0,0.5,0.2,0.6,0.4c2.1,6,2.6,12.2,1.5,18.6c0,0.2,0.1,0.5,0.3,0.5
		c0.2,0,0.3,0,0.4-0.2c4.6-6.6,6.1-13.9,4.6-21.9c-0.1-0.3,0.1-0.6,0.4-0.7c0.3-0.1,0.6,0.1,0.7,0.4c3.6,8.6,3.9,17.1,1,25.5
		c-0.1,0.2,0,0.4,0.2,0.5c0.1,0,0.3,0,0.4-0.1c6.7-6,10.7-13.3,11.8-22.1c0.1-0.4,0.5-0.8,0.9-0.7c0.3,0,0.5,0.2,0.6,0.4
		c0.6,1,0.9,2.3,1,4c0.4,5.7-0.9,11.2-3.9,16.2c-0.1,0.1,0,0.3,0.1,0.3c0.1,0,0.2,0,0.2,0c4.4-2.5,10.9-9,12.2-13.9
		c0.7-2.8,1.2-6.1,1.4-9.8c0-0.3,0.3-0.6,0.6-0.6c0.2,0,0.4,0.1,0.5,0.3c4.1,7.9-0.8,18.9-6.6,24.7c-0.2,0.2-0.2,0.4,0,0.6
		c0.1,0.2,0.4,0.2,0.5,0.1c5.1-2.8,9.1-6.6,12.1-11.4c4.3-6.7,6.1-18.1,5.5-25.8c-0.3-3.1-0.4-5.6-0.4-7.4c0-0.1,0.1-0.3,0.3-0.2
		c0.1,0,0.2,0.1,0.2,0.2c4.5,12.1,4.6,24.2,0.3,36.1c-0.3,0.8-1.2,1.6-1.4,2.1c-0.1,0.2,0,0.3,0.2,0.4c0.1,0,0.2,0,0.2,0
		c1.6-0.8,3.7-3.2,6.1-7.3c6.5-10.6,6.6-17.8,6.7-29.1c0-0.3,0.2-0.5,0.5-0.5c0.2,0,0.4,0.2,0.5,0.4c2.6,10.2,2,20.1-1.8,29.6
		c-0.1,0.1,0,0.3,0.1,0.3c0.1,0,0.2,0,0.2,0c4.6-3.1,8.3-6.6,10.4-12.4c2.6-7,3.9-14,4-21c0,0,0,0,0,0l0.9-0.2
		c0.1,0,0.2,0.1,0.2,0.2c0,0,0,0,0,0c0.9,9.6,0.4,18.8-1.4,27.7c0,0.1,0.1,0.2,0.2,0.2c0.1,0,0.1,0,0.2-0.1
		c6.9-8.8,10.2-19,9.8-30.6c0-1,0-2.5,0.1-4.6c0-0.2,0.2-0.4,0.5-0.4c0.2,0,0.4,0.2,0.4,0.3c3,12.2,2,23.7-3.1,34.6
		c0,0.1,0,0.2,0.1,0.3c0.1,0,0.2,0,0.2,0c5.2-6.4,8.3-13.7,9.4-21.9c0.9-6.7,1-13.3,0.3-19.8c0-0.2,0.1-0.4,0.3-0.4l0.3-0.1
		c0.3-0.1,0.7,0.1,0.8,0.4c0,0,0,0,0,0.1c2.4,11.7,2,23.8,0.3,35.8c0,0.3,0.1,0.5,0.4,0.5c0,0,0.1,0,0.1,0c0.2,0,0.3-0.2,0.5-0.5
		c1.3-2.8,2.9-6.8,4.9-12c5.1-13.1,4.8-29.4,2.7-43.2c0-0.3,0.1-0.5,0.4-0.6h0c0.3-0.1,0.6,0.1,0.7,0.4c3.9,13.7,6.6,29,3.6,42.9
		c0,0.2,0.1,0.3,0.3,0.3c0.1,0,0.2,0,0.3-0.2c3-7.1,4.6-14.8,4.7-23c0.1-3.6,0-13-0.2-28.4c-0.1-5-0.7-8.6-1.1-13.1
		c-0.1-0.7,0-1.3,0.3-1.6c0.1-0.1,0.3-0.2,0.5,0c0,0,0.1,0.1,0.1,0.1c3.7,6.8,6.1,13.7,7.2,20.6c1,6.1,1.5,11,1.7,14.8
		c0,0.3,0.2,0.5,0.5,0.5c0.2,0,0.4-0.1,0.4-0.3c5.8-14,6.4-28.2,1.8-42.3c0-0.1,0-0.2,0.1-0.2l0.3-0.1c0.3-0.1,0.6,0,0.7,0.3
		c2,4.1,3.5,7.8,4.4,11c1.7,5.9,2.4,13.1,2.2,21.5c0,0.2,0.2,0.4,0.4,0.4c0.1,0,0.2,0,0.3-0.1c4.2-4.2,6-9.7,5.3-16.4
		c-0.7-6.7-2.1-13-4.1-18.9c-0.6-1.8-1.7-3.5-2-5.3c0-0.2,0.1-0.4,0.3-0.5c0.1,0,0.3,0,0.4,0.1c1.5,1.6,2.8,3.7,3.8,6.4
		c2.7,7.3,4.3,14.7,4.8,22.2c0,0.1,0.1,0.3,0.2,0.3c0.1,0,0.3-0.1,0.3-0.2l0,0c3.1-12.7,0.7-23.9-2.9-36.2c-0.1-0.5,0.2-1,0.6-1.1
		c0.3-0.1,0.7,0,0.9,0.3c3.4,3.9,6.2,8.1,8.6,12.7c0.4,0.7,1.2,1,1.9,0.6c0.2-0.1,0.3-0.2,0.4-0.3c3-3.6,3.4-13.4,3.6-18.2
		c0-0.3,0.2-0.4,0.5-0.4h0c0.3,0,0.5,0.2,0.5,0.5c0.8,7.7,0.6,15.6-0.7,23.6c-0.5,3.5-1.8,6.2-3.1,9.2c-0.1,0.1,0,0.3,0.1,0.4
		c0.1,0,0.2,0,0.3-0.1c4.6-4.6,7.8-9,9.8-15.1c1-3,3-9.6,5.7-11.5c0.1-0.1,0.3-0.1,0.4,0.1c0.1,0.1,0.1,0.2,0,0.3
		c-0.5,1.8-1.7,7.1-3.6,15.8c-1.1,5.2-3.5,9.5-6.9,13c-0.1,0.1-0.1,0.3,0,0.3c0.1,0.1,0.2,0.1,0.2,0.1c8.1-2.6,15.2-10.9,19.4-17.8
		c1.8-3,2-6.2,2.8-10c0-0.2,0.3-0.4,0.5-0.3c0.1,0,0.1,0,0.2,0.1l0.2,0.1c0.3,0.2,0.4,0.5,0.4,0.8c-0.2,11.6-4.3,21.1-12.2,28.5
		c-0.2,0.1-0.2,0.4,0,0.6c0.1,0.1,0.2,0.1,0.4,0.1c11.1-2.6,17.8-9.4,20.3-20.4c0,0,0.1-0.1,0.1-0.1l0.3,0.1c0.2,0,0.4,0.3,0.4,0.5
		c-0.9,10.2-5.2,18.7-12.8,25.5c-0.3,0.2-0.3,0.7-0.1,0.9c0.1,0.1,0.2,0.2,0.4,0.2c0.7,0.1,1.8,0,3.3-0.3c9.5-2.5,14.4-10,14.7-22.5
		c0-0.2,0.2-0.4,0.4-0.4c0.1,0,0.1,0,0.1,0l0,0c0.3,0.1,0.5,0.4,0.5,0.7c1.1,10-0.7,19.2-7.9,26.6c-0.2,0.2-0.2,0.6,0,0.8
		c0.1,0.1,0.3,0.2,0.5,0.1c6.2-1,9.3-5.5,11.4-11.3c6.6-18.5,1.8-33.9-10.6-48.2c-8.1-9.4-15.9-16.3-27.3-22.2
		c-6.7-3.5-13.5-5.3-18.4,2.4c-0.1,0.2,0,0.4,0.1,0.5c0.1,0,0.2,0.1,0.2,0c5.3-1.2,10.6-0.5,16,1.9c0.1,0,0.1,0.1,0.1,0.1l-0.1,0.7
		c0,0.1-0.1,0.2-0.3,0.2c0,0,0,0,0,0c-4.1-1.4-7.9-1.3-11.6,0.2c-1.3,0.5-2.2,1.3-2.7,2.3c-0.1,0.2,0,0.4,0.2,0.5c0.1,0,0.2,0,0.3,0
		c3-1.1,6.5-1.3,10.3-0.7c0.2,0,0.3,0.2,0.2,0.3C843.8,383.7,843.8,383.8,843.7,383.8z M263.9,290.4c-1.7-2-6.7-4.9-15-8.6
		c-0.4-0.2-0.6-0.7-0.4-1.1l0.2-0.4c0.2-0.5,0.7-0.7,1.3-0.6l11.7,3.2c0.3,0.1,0.6-0.1,0.7-0.4c0-0.1,0-0.1,0-0.2
		c-0.3-2.9-0.9-8.9,0.7-11.1c0.7-1,1.8-1.7,3-2l5.8-1.3c0.4-0.1,0.8,0.2,0.9,0.6c0,0.2,0,0.4-0.1,0.6l-2.8,4.9
		c-0.3,0.5-0.5,1.1-0.5,1.7c0.1,4.9,1.8,9.5,5.1,13.8c0.2,0.2,0.5,0.2,0.7,0.1c0.1-0.1,0.2-0.3,0.2-0.5c-1-4.3-1-8.6,0.1-12.8
		c0.1-0.4,0.5-0.6,0.8-0.5c0.3,0.1,0.5,0.3,0.5,0.6c0.2,1.4,0.3,3.1,0.3,5c0.1,5.8,3,10,7,16.8c0.1,0.2,0.4,0.3,0.6,0.2
		c0.2-0.1,0.2-0.3,0.2-0.4c-0.5-6,0.1-13,1.8-20.9c0.1-0.4,0.3-0.7,0.5-1c0.2-0.2,0.4-0.2,0.6,0c0.1,0.1,0.1,0.1,0.1,0.2
		c0.5,3.6-0.3,10.5,1.4,14.6c1.5,3.5,3.5,7.1,6,10.6c0.1,0.2,0.4,0.2,0.5,0.1c0.1-0.1,0.2-0.2,0.2-0.3c-0.9-7.7-1.2-14.5-0.7-20.2
		c0.1-2,0.7-3.7,1.7-5.2c0.1-0.2,0.4-0.3,0.6-0.1c0.2,0.1,0.2,0.3,0.2,0.5c-0.8,4-0.4,8,0.9,12c1.5,4.6,3.4,9.5,5.7,14.7
		c0.3,0.8,1.3,1.2,2.1,0.8c0.4-0.2,0.6-0.4,0.8-0.8c0.2-0.4,0.2-1.1,0.1-2c-1-8.1-1.2-15.8-0.6-23.3c0-0.2,0.2-0.4,0.4-0.4h0
		c0.2,0,0.4,0.2,0.4,0.4c0.3,5,1.3,10,3,14.9c0.1,0.4,0.6,0.6,1,0.4c0.3-0.1,0.5-0.4,0.5-0.7c-0.1-2.6,0-4.8,0.4-6.6
		c0.6-3.3,0.3-6.6-0.3-9.2c-0.1-0.3,0.1-0.6,0.4-0.7c0.2,0,0.5,0,0.6,0.2c1.8,2.5,3.1,5.8,4,9.7c0.1,0.3,0.4,0.5,0.7,0.4
		c0.2-0.1,0.4-0.2,0.4-0.5l1.9-13.6c0-0.3,0.4-0.6,0.7-0.5c0.2,0,0.4,0.2,0.5,0.4l2.4,5.1c0.4,0.9,1.5,1.3,2.3,0.9
		c0.3-0.2,0.6-0.4,0.8-0.7c1.9-3.4,0.8-8-0.1-12.2c-0.1-0.3,0.1-0.6,0.4-0.6c0.1,0,0.2,0,0.3,0c2.4,0.9,5.6,6.5,6.3,7.5
		c0.1,0.2,0.4,0.3,0.7,0.1c0.1-0.1,0.2-0.1,0.2-0.2c1.7-4.9,1.5-9.7-0.5-14.4c-0.3-0.6-0.3-1.1-0.2-1.4c0.1-0.3,0.5-0.5,0.8-0.3
		c0.1,0,0.2,0.1,0.2,0.2c3.4,4.3,5.4,8.6,6,12.8c0.1,0.5,0.5,0.8,1,0.8c0.1,0,0.2,0,0.3-0.1c4.4-2.4,2.2-10.6,0.1-13.6
		c-0.1-0.2-0.1-0.4,0.1-0.5c0,0,0,0,0.1,0l0.4-0.2c0.2-0.1,0.4,0,0.5,0.1l6.6,9c0.2,0.3,0.7,0.4,1.1,0.2c0.2-0.1,0.3-0.3,0.3-0.5
		c0.7-5-0.4-9.8-3.1-14.4c-0.1-0.2-0.1-0.5,0.2-0.6c0,0,0,0,0,0l0.4-0.2c0.2-0.1,0.5-0.1,0.7,0.2l6.8,10.8c0.2,0.3,0.7,0.5,1,0.2
		c0.2-0.1,0.3-0.3,0.3-0.6c0.5-5.3-2-10-4.5-15.8c-0.1-0.4,0-0.8,0.4-0.9c0.2-0.1,0.4-0.1,0.6,0.1l10,6.5c0.3,0.2,0.8,0.1,1-0.2
		c0.1-0.1,0.1-0.3,0.1-0.5c-0.8-6.8-7.5-8.9-11.7-13.3c-1.2-1.3-2.9-1.8-4.7-2.3c-0.1,0-0.2-0.2-0.2-0.3c0-0.1,0.1-0.2,0.2-0.2
		c1-0.2,2-0.1,3.1,0.3c7.4,3,13,5.1,16.9,6.2c1,0.3,2.1-0.3,2.4-1.3c0.1-0.5,0.1-1-0.2-1.5c-2.1-3.7-5-6.5-8.8-8.5
		c-0.1-0.1-0.3-0.1-0.4-0.1l-9.6-1.8c-0.3,0-0.4-0.3-0.4-0.5c0-0.2,0.2-0.3,0.4-0.4c8.1-1.8,16.1-0.7,23.4,4.3
		c0.4,0.2,0.8,0.1,1.1-0.2c0.2-0.2,0.2-0.6,0-0.8c-4-7-11.7-9-19.4-8.6c-0.1,0-0.1,0-0.1-0.1c0-0.1,0-0.1,0.1-0.1l0,0
		c8.5-2.1,16.4-0.8,23.7,4c0.2,0.1,0.5,0.1,0.7-0.1c0.1-0.1,0.1-0.2,0.1-0.3c-0.8-7.2-4.8-11.2-11.8-11.8
		c-16.8-1.5-30.4,7.4-43,17.8c-7,5.7-11.1,12.1-13.6,20.5c-0.2,0.8-1,1.2-1.8,1c-0.1,0-0.2-0.1-0.3-0.1c-3.5-2-7.3-3.1-11.5-3.2
		c-24.1-0.6-47.2,10.5-63,27.9c-4.6,5.1-8.8,12.6-11.8,17.3c-5.3,8.3-7.3,17.7-6.1,28.3c0,0.1,0.1,0.2,0.3,0.2
		c0.1,0,0.2-0.1,0.2-0.2c0.9-3.6,3-7.2,6.3-10.7c0.2-0.3,0.7-0.3,0.9,0c0.1,0.1,0.1,0.1,0.1,0.2c0,0.1-4.5,11.6-4.9,12.9
		c-0.1,0.3,0.1,0.7,0.4,0.7c0.2,0.1,0.5,0,0.6-0.2c3.7-3.9,6.3-6.7,8-8.2c0.9-0.9,1.9-1.4,2.8-1.6c0.7-0.1,1.3,0.3,1.5,0.9
		c0.1,0.2,0,0.5,0,0.7c-0.8,2.3-1.8,5.6-2.8,9.7c-1,4.1-3.3,6.8-7,8.3c-11.6,4.6-22.2,10.7-31.7,18.3c-7.8,6.2-13.5,14.7-17.1,25.7
		c-2,6-3.8,13.7-2.3,18.1c0.5,1.4,0.7,2.3,0.8,2.7c0.1,0.5-0.1,1-0.5,1.3c-7.8,6.6-12.3,10.4-13.5,11.6c-5.6,5.5-9.7,11.8-12.1,19.1
		c-1.4,4.2-2.8,9.9-4.1,17.1c-0.8,4.5-0.4,8.3,1.1,11.4c0.2,0.4,0.6,0.7,1.1,0.8c0.9,0.1,3.2-0.7,6.9-2.6c0.7-0.4,1.6-0.1,1.9,0.6
		c0.1,0.3,0.2,0.6,0.1,0.9l-0.2,0.9c-0.3,1.7-1.3,3.2-2.8,4.1c-10.6,6.9-20.8,15.3-24.6,28.1c-5.2,17.5-3.5,33.9,5.1,49.2
		c3.2,5.6,5.1,9.1,9.6,12.5c0.2,0.1,0.4,0.1,0.5-0.1c0.1-0.1,0.1-0.2,0-0.4c-2.4-5.8-3.8-11.9-4-18.1c0-0.6,0.4-1.1,1-1.1
		c0.3,0,0.6,0.1,0.8,0.3c0.8,0.8,1.3,1.6,1.6,2.3c2.1,5.8,5,12.8,8.6,21.1c7,16.1,12.5,26.7,26.9,33.9c0.1,0.1,0.3,0,0.4-0.1
		c0.1-0.1,0-0.2,0-0.3c-9.4-10.5-15.8-22.8-19.2-36.9c-0.1-0.4,0.1-0.7,0.5-0.8l0,0c0.4-0.1,0.8,0.1,0.9,0.4
		c4.5,10.9,10.4,20.3,17.7,28.1c5.3,5.6,9.3,9.7,12.1,12.4c0.7,0.7,1.4,1.1,2,1.2c0.2,0,0.3-0.1,0.4-0.3c0-0.1,0-0.2-0.1-0.3
		c-8.5-9.8-16.9-24-18.1-37c0-0.2,0.2-0.4,0.4-0.4c0.2,0,0.3,0.1,0.4,0.3c5,15.5,14.2,28.3,27.7,38.3c1.7,1.3,3.3,2,4.9,2.1
		c0.2,0,0.3-0.1,0.3-0.3c0-0.1,0-0.2-0.1-0.2c-9.5-8.9-15.8-19.9-18.8-33.1c-0.1-0.4,0.2-0.8,0.6-0.9c0.3-0.1,0.7,0.1,0.8,0.4
		c1.5,3.2,3.4,8.5,5.8,12c6.1,9.1,13.2,17.1,24.2,20.6c0.1,0.1,0.3,0,0.4-0.1s0-0.3-0.1-0.4l0,0c-8-5-13.2-12.3-15.7-21.9
		c-0.1-0.4,0-0.9,0.3-1.2l0.3-0.3c0.3-0.3,0.7-0.3,1,0c0.1,0.1,0.1,0.1,0.2,0.2c3.3,7.5,10.2,16.8,18.8,17.5
		c3.6,0.3,6.6,0.3,9.2,0.1c0.4,0,0.6-0.4,0.6-0.7c0-0.3-0.2-0.5-0.5-0.6c-8.7-2-14.9-6.7-18.5-13.9c-0.1-0.2,0-0.3,0.1-0.4
		c0.1,0,0.2,0,0.3,0c3.4,1.4,6.1,4.2,9.4,5.5c6.5,2.6,12.9,5.1,19.4,4.5c0.1,0,0.3-0.1,0.3-0.2c0-0.1-0.1-0.3-0.2-0.3
		c-2.9-0.8-6.1-2.1-9.5-4c-8.5-4.8-13.7-8.2-17.7-16.3c-0.1-0.2-0.1-0.4,0.1-0.5c0.2-0.1,0.4-0.1,0.5,0.1l0,0
		c4.8,5.5,10.5,9.7,17.2,12.7c17.1,7.7,35.6,8.5,53.1,0.8c2.1-0.9,3.4-1.8,4.1-2.7c0.1-0.1,0.1-0.4-0.1-0.5
		c-0.1-0.1-0.2-0.1-0.3-0.1c-1.4,0.3-3.2,1.5-5.5,1.9c-12.2,2.1-23,2.3-32.7,0.7c-3.6-0.6-8.7-2.5-15.3-5.6c-0.1,0-0.1-0.1-0.1-0.2
		c0,0,0,0,0,0l0.1-0.3c0.1-0.2,0.3-0.3,0.5-0.2c13.8,5.2,27.4,5.5,40.9,0.9c5.6-1.9,10.3-4,14.1-6.2c0.1,0,0.1-0.1,0.1-0.2
		c0-0.1-0.1-0.1-0.2-0.1c-5.4,1.3-11.5,0.9-17.9,1.6c-9.7,1.1-20,0.4-30.8-2c-0.2,0-0.3-0.2-0.3-0.4c0-0.1,0.1-0.2,0.2-0.2
		c0.6-0.4,1.2-0.6,1.8-0.6c10-0.1,19-1,27-2.6c0.2,0,0.3-0.2,0.3-0.4c0-0.1-0.1-0.3-0.3-0.3l-42.3-6.1c-0.2,0-0.3-0.2-0.2-0.3
		c0-0.1,0.1-0.2,0.1-0.2c1.5-0.8,3.3-1.1,5.4-0.9c7.3,0.7,14.3,0.6,20.8-0.3c0.4,0,0.6-0.4,0.6-0.7c0-0.2-0.2-0.4-0.4-0.5
		c-7-3.3-14.4-4.8-22.3-4.4c-0.8,0-3.1,0.7-6.7,1.9c-0.1,0-0.1,0-0.2-0.1l-0.1-0.3c-0.1-0.2,0-0.5,0.2-0.6c4-2.1,7.6-3.3,10.7-3.4
		c5.3-0.2,8.6-0.5,9.9-0.8c0.2,0,0.4-0.3,0.3-0.5c0-0.2-0.2-0.3-0.4-0.4l-15.8-1.7c-0.1,0-0.2,0-0.4,0l-6.5,0.4
		c-0.3,0-0.5-0.2-0.6-0.5c0-0.2,0.1-0.5,0.4-0.5c5-1.4,10.6-2.1,17-2.2c0.2,0,0.3-0.1,0.3-0.3c0-0.1-0.1-0.2-0.2-0.3
		c-2.5-1.5-6.1-2.8-10.8-3.8c-6.8-1.4-11.7-2.1-14.9-2.1c-0.3,0-0.6-0.3-0.6-0.6c0,0,0,0,0,0v-0.1c0-0.3,0.2-0.5,0.5-0.5
		c6.5-0.6,12.8-0.6,18.9,0c0.2,0,0.4-0.1,0.4-0.4c0-0.1,0-0.2-0.1-0.3c-1.4-1.9-3.2-3.3-5.3-4.3c-6.9-3.3-13.4-5.7-19.6-7.2
		c-5.6-1.4-16-2.4-22,0.2c-6.9,3-13.4,6-19.5,8.9c-0.6,0.3-1.7,0.6-3.3,1c-1.2,0.2-2.3-0.5-2.6-1.6c0-0.2-0.1-0.3,0-0.5
		c0.1-2.3,1.1-4.6,3-7c0.2-0.3,0.2-0.7-0.1-0.9c-0.1-0.1-0.2-0.1-0.2-0.1l-12.1-3.3c-0.5-0.1-0.9-0.7-0.7-1.3
		c0.1-0.2,0.2-0.4,0.4-0.5c2.6-2,7.6-1.6,10.6-1.9c0.2,0,0.3-0.2,0.3-0.4c0-0.1-0.1-0.2-0.2-0.3c-3.9-2.4-8-4-12.2-4.6
		c-0.3,0-0.5-0.3-0.5-0.6c0,0,0,0,0,0l0.1-0.4c0.1-0.4,0.5-0.8,1-0.7l6.2,0.9c0.2,0,0.5-0.1,0.5-0.4c0-0.1,0-0.2-0.1-0.3
		c-4.1-5.1-9.4-7.9-16-8.2c-0.3,0-0.5-0.3-0.5-0.5c0,0,0-0.1,0-0.1l0.1-0.6c0,0,0,0,0,0c0,0,0,0,0,0l12.3,0.9c0.1,0,0.3-0.1,0.3-0.2
		c0-0.1,0-0.2-0.1-0.2c-4.2-3.5-7.4-6.8-9.7-10.2c-0.4-0.6-0.3-1.3,0.3-1.7c0.3-0.2,0.7-0.3,1.1-0.2l5.5,1.9
		c0.6,0.2,1.3-0.1,1.6-0.8c0.1-0.2,0.1-0.4,0.1-0.6l-1.9-14.1c-0.1-0.5,0.1-1,0.4-1.3c3.1-3.8,6.6-9.4,12-12.1
		c0.7-0.4,1.6-0.1,1.9,0.6c0,0.1,0.1,0.1,0.1,0.2c0.1,0.3,0,0.8-0.2,1.3c-4.2,7.9-4.2,12.2-4.2,23.8c0,5.8,2.4,10.3,5.3,15.9
		c0.8,1.5,1.9,2.6,3.3,3.3c0.2,0.1,0.4,0,0.5-0.2c0-0.1,0-0.2,0-0.2c-1.9-6.7-1.3-13.2,1.7-19.7c0.1-0.2,0.3-0.3,0.6-0.2h0
		c0.3,0.1,0.4,0.4,0.4,0.7c-1.4,5.7-1,11.5,1.3,17.4c1.3,3.3,2.4,5.3,3.4,6c0.2,0.2,0.5,0.1,0.7-0.1c0.1-0.1,0.1-0.2,0.1-0.3
		c-0.7-7.2-0.6-13.6,0.1-19.2c0-0.3,0.3-0.4,0.6-0.4c0.2,0,0.4,0.2,0.4,0.4c0.6,8.1,1.9,14.8,6.9,21.2c0.4,0.5,1,0.9,1.6,1l0.4,0.1
		c0.3,0.1,0.5-0.1,0.6-0.4c0-0.1,0-0.3-0.1-0.4c-3.5-5.9-3.6-16.8-2.9-22.9c0.1-0.4,0.2-0.8,0.4-1.1c0.2-0.3,0.6-0.4,0.9-0.1
		c0.1,0.1,0.2,0.2,0.3,0.4c1.5,10.3,3.4,18.5,11.7,25.4c0.2,0.1,0.4,0.1,0.5,0c0.1-0.1,0.1-0.2,0.1-0.3c-1.9-7.8-2.5-15.4-1.8-22.7
		c0-0.3,0.3-0.5,0.6-0.5h0c0.4,0,0.7,0.3,0.7,0.7c0,9.2,3.6,16.9,10.6,23.3c0.3,0.3,0.7,0.2,1,0c0.2-0.2,0.2-0.5,0.1-0.8
		c-3.8-6.6-4.8-13.9-3-21.9c0.1-0.3,0.3-0.5,0.6-0.4c0.2,0.1,0.4,0.3,0.4,0.5c0.1,5.4-0.2,8.9,2.1,12.5c2.1,3.4,4.8,6.4,8.1,9.1
		c0.2,0.2,0.5,0.1,0.6-0.1c0.1-0.1,0.1-0.2,0.1-0.3c-0.5-4.4-0.9-17,2.2-19.9c0.3-0.3,0.7-0.3,1,0c0.1,0.1,0.2,0.3,0.2,0.5
		c0.6,9.4,0.6,19.9,9.9,24.7c0.2,0.1,0.4,0,0.5-0.2c0-0.1,0.1-0.2,0-0.3c-1.4-3.5-1.8-7.4-1.4-11.6c0.1-0.7,0.7-1.2,1.4-1.2
		c0.3,0,0.6,0.2,0.9,0.5c3.7,4.3,5.4,10.3,7.5,16.3c0.3,0.9,0.7,1.8,1.1,2.6c3.6,6.5,9.1,13,16.3,19.5c1.1,1,2.1,1.6,3.2,2
		c0.2,0.1,0.3,0,0.4-0.2c0-0.1,0-0.2,0-0.3c-3.1-4.9-5.4-10-6.7-15.5c-0.1-0.3,0.1-0.6,0.4-0.7l0.3-0.1c0.5-0.2,1,0.1,1.1,0.5
		c3.9,9.7,11.2,20.6,21,23.7c0.2,0.1,0.3,0,0.4-0.2c0-0.1,0-0.2-0.1-0.3c-5.3-6.8-9.6-14.3-12.8-22.7c-0.1-0.3,0-0.6,0.3-0.7l0,0
		c0.3-0.1,0.6,0,0.8,0.3c7.4,13.4,18.1,23.1,32.3,29.1c0.2,0.1,0.3,0,0.4-0.1c0.1-0.1,0-0.3-0.1-0.4c-8.1-8.2-14.8-15.8-19.5-24.2
		c-0.1-0.2,0-0.4,0.1-0.4c0.1-0.1,0.3,0,0.4,0.1c2.3,2.3,3.8,3.8,4.4,4.6c10.2,11.8,27.5,24.9,44.2,24.1c0.2,0,0.4-0.2,0.3-0.4
		c0-0.1-0.1-0.3-0.2-0.3c-13-4.1-23.6-11.7-31.8-22.8c-0.2-0.2-0.1-0.5,0.1-0.7c0.1,0,0.1-0.1,0.2-0.1l0.4-0.1c0.1,0,0.2,0,0.3,0.1
		c4.5,4.2,9.5,8,15.1,11.3c10.8,6.5,21.6,8.4,33,2.6c0.1,0,0.2-0.2,0.2-0.3s-0.2-0.2-0.3-0.2c-12.1,2.3-28.5-2.6-37-12.3
		c-0.3-0.3-0.3-0.8,0-1.1c0.1-0.1,0.2-0.1,0.3-0.1c0.2-0.1,0.5,0,0.8,0.2c10.3,7,21.6,10.1,34,9.2c0.2,0,0.3-0.2,0.3-0.3
		c0-0.1-0.1-0.2-0.2-0.3c-8.9-2.3-15.1-4.4-22.9-9.9c-0.6-0.4-1.1-0.9-1.4-1.4c-0.1-0.2-0.1-0.5,0.2-0.6c0.1-0.1,0.3-0.1,0.4,0
		c9.1,3.5,18.2,5.8,27.3,6.9c0.1,0,0.2,0,0.3-0.2c0-0.1,0-0.2-0.1-0.2c-9.4-5.2-18.6-8.9-27.9-15.6c-2.4-1.7-5-3.3-8.1-4.7
		c-0.3-0.1-0.4-0.4-0.3-0.7c0.1-0.3,0.4-0.4,0.7-0.3c6.4,1.5,11.2,5.7,17.3,7.6c0.2,0.1,0.4,0,0.4-0.2c0-0.1,0-0.2,0-0.3
		c-12.1-19.6-32.2-36.4-55.2-40.5c-9.6-1.7-19.2-1.7-28.7,0c-1,0.2-1.9,0.1-2.5-0.1c-1.2-0.5-1.7-1.8-1.3-3c0.1-0.2,0.2-0.3,0.3-0.5
		c1.3-1.7,2.8-3.3,4.5-4.8c1.6-1.4,1.7-2.6,0.3-3.8c-7.2-5.7-19.3-7.3-28.7-7.9c-9.1-0.6-17.2,1.5-24.4,6.3
		c-1.3,0.9-2.5,0.8-3.6-0.1c-0.3-0.2-0.4-0.6-0.3-0.9l2.2-6.4c0.1-0.4-0.1-0.8-0.4-0.9c0,0-0.1,0-0.1,0c-0.4-0.1-0.8-0.1-1.4,0.1
		c-0.5,0.1-1.1-0.2-1.2-0.7c-0.1-0.3,0-0.5,0.1-0.8c1-1.5,2.3-2.8,4-4.1c0.3-0.2,0.4-0.7,0.1-1c-0.1-0.1-0.2-0.2-0.4-0.3l-6.7-1.3
		c-0.3-0.1-0.5-0.4-0.4-0.7c0,0,0-0.1,0-0.1l0.2-0.4c0.1-0.2,0.3-0.4,0.6-0.4l10.2,0.3c0.3,0,0.6-0.3,0.6-0.6c0-0.2-0.1-0.4-0.3-0.5
		c-3.5-1.5-6.3-3.2-8.5-5.2c-1.5-1.4,1.3-0.8,8.5,2c0.5,0.2,1-0.1,1.2-0.5c0.1-0.3,0.1-0.7-0.2-0.9l-3.7-4.2c-1-1.1-2.3-1.9-3.8-2.1
		c-5.3-0.7-10.5,2.3-15.6,4.6c-1.4,0.6-2.6,0.6-3.8,0.1c-0.6-0.3-0.8-0.9-0.6-1.5c0.1-0.1,0.2-0.3,0.3-0.4l5-4.3
		c0.6-0.5,0.6-1.3,0.1-1.9c-0.2-0.2-0.4-0.4-0.7-0.4l-3-0.7c-0.4-0.1-0.8-0.5-0.8-0.9v0c0-0.4,0.3-0.7,0.7-0.8l8.2-0.7
		c0.1,0,0.2-0.1,0.2-0.3c0-0.1,0-0.1-0.1-0.2l-7.4-7.4c-0.2-0.2-0.2-0.6,0-0.8c0.1-0.1,0.4-0.2,0.5-0.1c3.2,0.9,6.6,2.3,10.1,4.3
		c0.6,0.3,1.3,0.1,1.6-0.4c0.2-0.4,0.2-0.8,0-1.2l-7-12.2c-0.2-0.3-0.1-0.7,0.2-0.9c0.2-0.1,0.5-0.1,0.7,0c3.3,2.5,6.5,5.6,9.6,9.1
		c0.1,0.2,0.4,0.2,0.6,0c0.1-0.1,0.1-0.2,0.1-0.3c-0.6-6.7-2.4-13-5.3-19c-0.3-0.5-1.5-1.9-3.8-4.2c-0.1-0.1-0.1-0.2,0-0.2
		c0,0,0,0,0,0l0.3-0.3c0.1-0.1,0.3-0.1,0.5,0c4.8,3.6,9.1,9.3,11.8,15.2c0.1,0.2,0.3,0.3,0.6,0.2c0.2-0.1,0.3-0.2,0.2-0.4
		c-0.1-4.1-1-8.1-2.6-11.9c-1.6-3.9-3.8-10.3-5.5-12.7c-0.2-0.3-0.2-0.8,0.2-1c0.3-0.2,0.7-0.2,0.9,0.1l11,11c0.3,0.3,0.8,0.3,1.1,0
		c0.1-0.1,0.2-0.3,0.2-0.5c0.4-6.5-0.1-12.8-1.5-19.1c-1.4-6.2-2.1-9.4-2.2-9.7c0-0.1,0.1-0.2,0.2-0.3c0.1,0,0.2,0,0.2,0.1
		l10.6,16.9c0.1,0.2,0.4,0.2,0.5,0.1c0.1-0.1,0.2-0.2,0.2-0.3c0.1-2.2,0-4.1-0.4-5.8c-2.1-10.1-3.5-17.4-4.2-22.1
		c-0.1-0.7,0.4-1.3,1.1-1.4c0.2,0,0.5,0,0.7,0.1c0.8,0.4,1.6,1.3,2.3,2.7c1.1,2.1,2.6,4.4,4.3,6.8c0.3,0.4,0.7,0.5,1.1,0.3l20.5-9.6
		c0.5-0.2,1,0,1.2,0.4c0.1,0.2,0.1,0.5,0,0.7c-0.5,1.2-1.4,2.4-2.6,3.6c-4.4,4.1-9.6,8.7-12.3,14.8c-2.9,6.5-4.5,13.3-4.7,20.5
		c0,0.3,0.2,0.6,0.5,0.6c0.2,0,0.3-0.1,0.4-0.2l5.2-5.2c0.5-0.5,1.3-0.5,1.7,0c0.2,0.2,0.3,0.5,0.4,0.7c0.4,3.4-0.4,6.6-2.4,9.6
		c-6.7,9.9-19.6,16.8-15.7,32.9c1.1,4.3,1.8,7,2.3,8.1c2.3,5,6,8.6,11.1,10.8c0.2,0.1,0.5,0,0.6-0.2c0.1-0.2,0-0.4-0.1-0.5
		c-1-0.9-1.8-1.9-2.3-3c-3.3-6.8-4.9-13.5-4.9-20.2c0-0.3,0.2-0.5,0.5-0.5h0c0.3,0,0.5,0.2,0.5,0.4c2.1,11,8,18.8,17.9,23.4
		c1.4,0.7,2.8,1,4.1,1.1c0.3,0,0.6-0.3,0.6-0.6c0-0.2-0.1-0.3-0.2-0.5c-5.7-5-11.3-16-10-23c0-0.2,0.2-0.3,0.4-0.3
		c0.1,0,0.2,0.1,0.3,0.2c2.7,9.3,8.3,16.4,16.6,21.5c0.1,0.1,0.3,0,0.3-0.1c0-0.1,0.1-0.1,0-0.2c-3-8.2-3.5-16.7-1.6-25.6
		c0.1-0.5,0.6-0.8,1.1-0.7c0.4,0.1,0.7,0.4,0.7,0.9l0.5,6.9c0,0.3,0.1,0.7,0.2,1l4.6,12.4c0.1,0.2,0.3,0.3,0.5,0.2
		c0.1,0,0.2-0.1,0.2-0.2c1.3-5.3,4.4-9.3,9.4-12.2c0.5-0.3,1.1-0.1,1.4,0.4c0.1,0.2,0.2,0.5,0.1,0.8c-1.2,3.9-2.1,8.2-2.5,12.9
		c-0.8,9.4,5.9,18.4,13.6,22.8c0.2,0.2,0.6,0.1,0.7-0.2c0.1-0.2,0.1-0.4,0-0.6c-5.1-8.1-7.3-16.8-6.6-26.3c0-0.2,0.3-0.4,0.5-0.4
		c0.2,0,0.3,0.2,0.4,0.3c1.7,12.3,9.4,25.8,19.2,32c0.1,0.1,0.3,0,0.4-0.1c0-0.1,0-0.2,0-0.3c-5.4-8.8-8.2-18-8.7-27.6
		c0-0.1,0-0.1,0.1-0.1l0.3-0.1c0.2,0,0.4,0.1,0.5,0.3c2.8,12.7,9.7,22.8,20.6,30.1c0.2,0.1,0.5,0.1,0.6-0.2c0.1-0.1,0.1-0.3,0-0.5
		c-6.4-7.9-10.5-16.9-12.5-27.1c0-0.2,0.1-0.4,0.3-0.4c0.2,0,0.3,0.1,0.4,0.2c3.6,6.8,8.3,13.4,14.1,19.7c3,3.3,6.7,5.4,10.3,7.8
		c0.2,0.1,0.5,0.1,0.6-0.1c0.1-0.1,0.1-0.3,0-0.5l-15.8-25.1c-0.2-0.2-0.2-0.6,0.1-0.8s0.6-0.2,0.8,0.1l0,0l20.8,20.8
		c0.1,0.1,0.2,0.1,0.3,0c0.1-0.1,0.1-0.2,0.1-0.2c-3.6-11-10.4-19.7-18.4-27.4c-0.2-0.1-0.2-0.4,0-0.6c0.1-0.1,0.3-0.2,0.5-0.1
		c2,0.8,4,2.1,6,3.9c4.8,4.2,9.4,8.5,13.8,12.7c0.2,0.2,0.5,0.2,0.7,0c0.1-0.1,0.2-0.3,0.1-0.5c-0.9-3.3-2.1-6.9-3.5-10.6
		c-3.1-8.3-10.2-13.5-15-18.5c-0.2-0.1-0.2-0.4,0-0.6c0.1-0.1,0.4-0.2,0.5-0.1c6.4,3.9,12.1,8.4,17,13.4c0.2,0.2,0.6,0.2,0.8,0
		c0.2-0.2,0.2-0.5,0.1-0.7c-3-5.5-6.6-11.3-11.3-15.5c-3.6-3.3-6.8-7.3-10.7-9.9c-13.9-9.2-27.9-15.3-43.4-6.7
		c-0.6,0.3-1.3,0.1-1.6-0.5c-0.1-0.2-0.2-0.5-0.1-0.7c0.6-4.2,3-6.7,7.1-7.3c0.4-0.1,0.8-0.5,0.7-0.9c0-0.1,0-0.1,0-0.2
		c-1.6-4.2-6.3-5.9-11.3-8.9c-0.2-0.1-0.2-0.3-0.1-0.5c0.1-0.1,0.2-0.2,0.4-0.1l13.7,4.6c0.4,0.2,0.9-0.1,1.1-0.5
		c0.1-0.2,0.1-0.5,0-0.7l-1.1-2.4c-0.5-1.1-1.4-2-2.6-2.5l-6.3-2.8c-0.3-0.1-0.4-0.4-0.3-0.7c0-0.1,0.1-0.2,0.2-0.2l0.6-0.3
		c0.3-0.2,0.7-0.2,1-0.1l13.8,4.7c0.2,0.1,0.3,0,0.4-0.2c0-0.1,0-0.2,0-0.3l-14.3-19.4c-0.2-0.3-0.2-0.7,0.2-1
		c0.2-0.1,0.4-0.2,0.6-0.1c5.3,2.1,9.6,5.3,13.1,9.7c0.1,0.1,0.3,0.1,0.4,0c0.1-0.1,0.1-0.1,0.1-0.2c-1.5-8.9-6.2-14.8-12.1-21.3
		c-0.3-0.3-0.3-0.8,0-1c0.2-0.2,0.5-0.2,0.7-0.2c3.8,1.2,7.3,3.2,10.5,5.9c0.3,0.2,0.7,0.2,0.9-0.1c0.1-0.2,0.2-0.4,0.1-0.6
		c-1.3-5.4-7-9.7-12-12.3c-0.4-0.2-0.5-0.6-0.3-1c0.1-0.3,0.5-0.4,0.8-0.4c4.6,0.7,8.6,1.9,12.2,3.5c0.4,0.2,0.8,0,1-0.4
		c0.1-0.2,0.1-0.5,0-0.7c-3.9-6.9-9.6-11-17.1-12.4c-0.1,0-0.2-0.1-0.3-0.2c-0.1-0.1,0-0.3,0.2-0.6c0.1-0.1,0.2-0.2,0.4-0.2
		c6.6,0.2,13,2,19,5.4c0.2,0.1,0.5,0,0.6-0.2c0.1-0.1,0.1-0.3,0-0.4c-3.1-5.9-6.8-8.1-13.6-11.6c-0.1-0.1-0.2-0.2-0.3-0.3
		c-0.1-0.2-0.1-0.3-0.1-0.3c0-0.4,0.4-0.7,0.9-0.7c0,0,0.1,0,0.1,0l15.9,4.4c0.9,0.2,1.8-0.3,2-1.2c0,0,0,0,0,0
		c1.3-6.2-13.8-11-18.5-11.4c-0.1,0-0.2-0.1-0.2-0.2c0-0.1,0.1-0.2,0.2-0.2c8.6-1,15.5,1.8,24.3,5.5c0.3,0.1,0.6,0,0.7-0.3
		c0.1-0.2,0-0.3-0.1-0.5c-2.8-4-6.4-7.2-10.6-9.5c-8.2-4.6-20.8-0.8-28.7,3.3c-0.2,0.1-0.4,0.1-0.5,0.1c-0.5-0.4-0.7-0.8-0.4-1.4
		c2.9-5.8,7.6-7.2,13.2-9.5c0.4-0.2,0.5-0.6,0.4-1c-0.1-0.2-0.3-0.4-0.5-0.4l-11.3-2.5c-0.4-0.1-0.6-0.5-0.5-0.8
		c0-0.2,0.2-0.4,0.4-0.5c0.5-0.3,1.4-0.4,2.6-0.5c5-0.2,9.2,0.2,12.7,1.1c0.2,0.1,0.5,0,0.6-0.2c0.1-0.2,0-0.5-0.2-0.6l0,0
		c-3.6-2.4-11.8-8.3-15.2-8.1c-3.5,0.2-5.5,0.4-6.2,0.4c-0.4,0-0.8-0.3-0.8-0.7c0-0.3,0.2-0.7,0.5-0.8c5.2-1.8,10.3-2,15-0.5
		c0.1,0,0.3,0,0.3-0.2C263.9,290.6,263.9,290.5,263.9,290.4z M132.2,601.6c1.2,1.4,2.8,3.3,4.6,6c6.9,9.6,15.7,16.3,25.9,22.5
		c2.5,1.5,4.7,2.3,6.8,2.5c0.2,0,0.4-0.2,0.5-0.4c0-0.1,0-0.2-0.1-0.3c-4.3-5.1-12.3-12.6-13.8-18.7c-0.2-0.6-0.2-1-0.2-1.2
		c0.1-0.4,0.4-0.6,0.8-0.5c0.1,0,0.2,0.1,0.3,0.1c3.6,2.6,7.6,7.5,10.9,10.5c9.3,8.5,20.7,14.4,34.1,17.9c0.3,0.1,0.6,0.1,0.9,0
		c0.1,0,0.2-0.2,0.2-0.3c0-0.1-0.1-0.1-0.1-0.2c-11.3-4.5-19.6-15.1-28.5-22.6c-0.2-0.2-0.3-0.6-0.1-0.8c0.2-0.2,0.5-0.3,0.7-0.1
		c2.7,1.4,5.5,3.2,8.4,5.2c6.7,4.7,12.2,8.2,16.5,10.4c11.2,5.8,23,8.6,35.6,8.6c9.7,0,16.5,0,20.4-0.1c0.2,0,0.4-0.2,0.3-0.4
		c0-0.1-0.1-0.3-0.2-0.3c-1.5-0.7-3.1-1.2-4.8-1.4c-13-1.3-22.6-2.6-28.8-3.8c-7.6-1.5-14.3-3.3-19.4-7.3c-0.2-0.1-0.2-0.3-0.1-0.5
		c0.1-0.1,0.3-0.2,0.4-0.1c12.9,4.3,25.7,4,40.7,3.7c11.6-0.2,21.6,1.3,29.9,4.1c0.1,0,0.5,0.1,1.3,0.1c0.2,0,0.4-0.2,0.5-0.4
		c0-0.1,0-0.3-0.2-0.4c-8.1-6.2-19-8.4-29.3-9c-11-0.6-19.5-1.3-25.4-2.1c-3.1-0.4-5.8-1.2-8.1-2.3c-0.2-0.1-0.3-0.4-0.2-0.7
		c0.1-0.2,0.3-0.3,0.6-0.3c3.7,0.8,7.6,1.2,11.8,1.2c7.6-0.1,15.2-0.3,22.6-0.5c13.4-0.4,24.7,1.6,36.9,5.4c0.2,0.1,0.4,0,0.4-0.2
		c0.1-0.2,0-0.3-0.2-0.4c-20.3-12.3-42.8-12.7-65.7-12.6c-0.3,0-0.5-0.2-0.5-0.5v0c0-0.3,0.2-0.5,0.4-0.5c22.1-2.4,44.2-3,65.1,3.7
		c2.1,0.7,4,1.5,5.6,2.4c0.1,0.1,0.3,0,0.4-0.1l0,0c0.1-0.1,0-0.3-0.1-0.4c-2.8-1.9-5.9-3.6-9.2-4.9c-18.8-7.8-37.3-9.3-56.9-4.9
		c-12.8,2.9-31.1,6.6-42-0.8c-3-2-8.3-5.8-15.9-11.1c-11.3-8.1-20.5-20.3-28.4-31c-3.4-4.5-7.5-7.5-12.4-8.9c-2.6-0.8-4-1.2-4.3-1.4
		c-0.3-0.2-0.6-0.5-0.9-0.9c-0.7-1.1-2.9-4.6-6.8-10.4c-2.1-3.2-5-5.9-8.6-8.3c-0.6-0.4-0.7-1.1-0.4-1.7c0.1-0.1,0.2-0.2,0.3-0.3
		c3-2.2,5.1-3.2,6.7-8.1c0.2-0.5,0.2-1.1,0.2-1.6c-0.3-8.6-0.9-17.8,1.7-26.4c3.6-12,10-22.1,19-30.1c0.2-0.2,0.3-0.6,0.1-0.8
		c-0.1-0.1-0.2-0.1-0.2-0.2c-1-0.3-1.8-0.2-2.8-1.1c-2.6-2.2-6.3-4.8-11.1-8.1c-0.3-0.2-0.3-0.5-0.2-0.8c0.1-0.2,0.4-0.3,0.6-0.2
		c5,1.2,9.2,3.8,15,3c0.3,0,0.5-0.3,0.4-0.6c0-0.1-0.1-0.3-0.2-0.3l-18.4-12c-0.2-0.1-0.2-0.3-0.1-0.5c0.1-0.1,0.2-0.2,0.3-0.2
		c1.6,0.1,2.9,0.4,4.1,0.8c4.3,1.5,8.6,3,12.8,4.4c0.3,0.1,0.6-0.1,0.7-0.4c0.1-0.2,0-0.3,0-0.5c-1.4-2.4-3.2-4.8-5.6-7.3
		c-6-6.4-10.8-11.2-14.4-14.6c-0.1-0.1-0.2-0.4-0.1-0.5l0.2-0.3c0.3-0.4,0.8-0.4,1.1-0.2c0,0,0,0,0,0l20.6,15c0,0,0.1,0,0.1,0
		c0,0,0,0,0-0.1c-3.3-8.4-10-14.9-15.7-20.5c-0.2-0.2-0.2-0.4-0.1-0.6l0.3-0.4c0.1-0.1,0.3-0.2,0.4-0.1l15.4,10
		c0.2,0.1,0.4,0.1,0.5-0.1c0.1-0.1,0.1-0.2,0.1-0.3c-0.8-2.4-1.8-5-3.2-7.1c-4-5.9-8.2-12.3-12.4-19c-0.1-0.1,0-0.3,0.1-0.4
		c0.1-0.1,0.2-0.1,0.3,0c1.6,0.8,3.3,2.1,5.2,4c4,3.9,8.5,8.6,13.5,14c0.1,0.1,0.2,0.1,0.3,0c0.1-0.1,0.1-0.1,0.1-0.2
		c-0.4-3.7-1.3-6.6-2.7-8.9c-2.9-5-7-10-8.3-14.4c-0.1-0.3,0.1-0.7,0.4-0.8c0.2-0.1,0.5,0,0.7,0.2c3.7,4.6,8.3,8.6,13.9,12
		c0.7,0.4,1.5,0.2,1.9-0.5c0.1-0.1,0.1-0.2,0.1-0.3c0.6-2.1,0.6-4.6-0.5-6.6c-2.9-5.7-6.5-12-8-17.6c-0.1-0.3,0.1-0.7,0.4-0.8
		c0.2-0.1,0.4,0,0.6,0.2c0.8,0.8,1.5,1.7,2.1,2.6c2.2,3.8,5.1,7,8.4,9.7c0.4,0.3,1,0.3,1.3-0.1c0.1-0.2,0.2-0.4,0.2-0.6v-17.5
		c0-0.3,0.2-0.5,0.4-0.5l0.4-0.1c0.2,0,0.4,0.1,0.4,0.3c0,0,0,0,0,0l0.9,5.2c0.1,0.6,0.3,1.1,0.6,1.6c0.9,1.4,2.1,3.8,3.7,7.2
		c0.2,0.5,0.7,0.6,1.2,0.4c0.1,0,0.1-0.1,0.2-0.1c0.1-0.1,0.2-0.3,0.3-0.6c1.5-5.6,3.3-10.9,5.3-15.8c1.8-4.6,4.6-9.4,8.3-14.4
		c4.6-6.2,8.8-10.9,12.4-14c0.2-0.2,0.3-0.5,0.1-0.8c-0.1-0.1-0.2-0.1-0.3-0.2l-2.3-0.8c-0.1,0-0.2-0.1-0.3-0.2l-10.7-9.7
		c-0.2-0.2-0.2-0.5,0-0.7c0.1-0.1,0.2-0.2,0.4-0.2c0.6,0,1.4,0.1,2.4,0.5c3.2,1.2,6.8,2.7,10.8,4.6c0.2,0.1,0.3,0,0.4-0.1
		c0.1-0.1,0-0.3,0-0.4l-5.7-7.7c-0.1-0.2-0.1-0.4,0.1-0.5c0.1-0.1,0.2-0.1,0.3,0c4,1.8,8.4,5.8,12.3,6.6c2.9,0.6,4.9,0.8,6,0.7
		c0.2,0,0.4-0.3,0.4-0.5c0-0.1-0.1-0.2-0.2-0.3c-4.7-2.9-8.7-7.1-12.2-12.8c-0.1-0.2-0.1-0.4,0.1-0.6c0.2-0.1,0.4-0.1,0.5,0
		c1.4,1,3.5,2.5,6.2,4.5c3.4,2.5,7.5,3.9,12.5,4.1c0.2,0,0.3-0.1,0.3-0.3c0-0.1,0-0.1-0.1-0.2l-12.1-14c-0.2-0.2-0.1-0.5,0.1-0.7
		c0.1-0.1,0.2-0.1,0.4-0.1c4.6,0.9,10.7,5.8,13.6,7.6c0.2,0.1,0.4,0,0.5-0.1c0-0.1,0.1-0.2,0-0.2c-1.1-4.9-3.8-8.3-8.2-10.2
		c-0.8-0.3-1.3-0.8-1.5-1.4c-0.1-0.3,0-0.6,0.3-0.8c0.1,0,0.1,0,0.2,0c3.4-0.3,6.5,0.1,9.5,1.1c0.3,0.1,0.6-0.1,0.7-0.4
		c0,0,0-0.1,0-0.1c1.3-9.1-8.3-8-13.8-5.9c-13.3,5.2-23.6,13.6-33.2,24c-6.3,6.8-10.9,14.8-13.8,23.9c0,0.1,0,0.2,0.1,0.3
		c0.1,0,0.2,0,0.2-0.1l3.2-4.4c0.4-0.5,0.9-0.9,1.5-1.2l8.5-3.7c0.3-0.2,0.8,0,0.9,0.3c0.1,0.3,0,0.7-0.2,0.9l-10,7.3
		c-0.2,0.1-0.2,0.3-0.1,0.5c0.1,0.1,0.2,0.2,0.4,0.1c4.7-1,9.3-1.2,13.9-0.7c0.9,0.1,1.6,0.9,1.5,1.9c0,0.2-0.1,0.3-0.1,0.5
		c-0.8,1.7-1.9,2.9-3.5,3.7c-6.2,3.1-11.8,6.2-16.9,9.2c-14.3,8.4-23.8,14.4-32.8,26.9c-7.6,10.5-10.7,21.4-10.9,33.8
		c-0.2,9.6-0.5,19.1,2.1,26.1c2.2,6,3.9,10.5,5.2,13.4c0.3,0.6,0,1.4-0.7,1.7c-0.2,0.1-0.5,0.1-0.7,0.1c-4.5-0.8-7.6-0.1-10.8,3.3
		c-6.3,6.8-9.1,16.9-9.6,26.2c-1.2,21.7-2,37.6-2.3,47.8c-0.2,5.6-0.1,14.6,1.3,18.5c2.6,6.9,5.8,13.4,9.8,19.4
		c0.1,0.2,0.3,0.2,0.5,0.1c0.1-0.1,0.2-0.2,0.1-0.3c-0.9-5.6-0.9-11.6,0-17.8c0-0.2,0.3-0.4,0.5-0.4c0.2,0,0.3,0.2,0.4,0.4
		c0.3,1.4,0.6,3.7,1.1,6.8c0.8,5.8,3.2,11.2,7.2,16c0.1,0.1,0.3,0.2,0.5,0c0.1-0.1,0.1-0.2,0.1-0.3c-0.2-7.1-0.7-14.2-1.2-21.5
		c0-0.5,0.1-1,0.5-1.6c0.3-0.4,0.8-0.5,1.2-0.2c0.1,0.1,0.2,0.2,0.3,0.4c4.2,9.8,8.2,17.4,12.7,28.4c6.8,16.5,19.8,39.8,39.7,42
		c0.1,0,0.3-0.1,0.3-0.2c0-0.1,0-0.2-0.1-0.3l-10-6.4c-0.3-0.2-0.5-0.4-0.7-0.6c-7.9-7.8-14.5-17-19.7-27.8c-0.1-0.2,0-0.3,0.1-0.4
		C131.9,601.5,132.1,601.5,132.2,601.6z M812.9,675.2c-3-3-6.4-5.4-10.4-7.1c-12.8-5.8-23.7-7.9-40.5-11.2
		c-15.6-3.1-32.8-3.5-47.9-3.3c-9.4,0.1-17.6-0.9-25.5-1.1c-7.8-0.2-16.9,0.1-27.3,1.1c0,0,0,0,0,0l0,0l-0.1,0.5
		c0,0.1,0,0.2,0.2,0.3c0,0,0,0,0.1,0c9.2-0.4,18-0.4,26.5,0c8.7,0.4,16.1,1.3,26.4,1.4c15.4,0.2,26.2,0.6,32.6,1.1
		c7.4,0.6,16,1.9,25.8,3.9c14.3,2.9,28.4,7.1,39.8,14.9c0.1,0.1,0.2,0,0.3,0l0,0C813,675.4,813,675.3,812.9,675.2z M809.7,687.2
		c0.2,0.2,0.5,0.1,0.6-0.1c0.2-0.2,0.1-0.5-0.1-0.6c-3.9-4-8.8-7.7-14.8-11.2c-4.6-2.7-10.4-5-17.1-7c-27.9-8.1-47.4-7.3-84.2-8.3
		c-9.5-0.2-17.4-0.1-23.8,0.4c-8.7,0.7-16.6,1.1-23.8,1.2c-0.3,0-0.6,0.3-0.5,0.6c0,0,0,0,0,0v0c0,0.3,0.2,0.5,0.5,0.5
		c16.3,0.3,27.3,0.7,32.9,1.1c31,2.5,56.4,4.9,76,7.3c16.6,2,31.6,5.8,45.2,11.5C804.2,684.2,807.2,685.7,809.7,687.2z M640.1,671.7
		c4.7-0.3,10-0.1,16,0.7c14.6,1.9,28.6,3.8,41.9,5.8c8.8,1.3,18.9,2.4,30.1,3.5c9.6,0.9,22.6,2.6,38.9,5
		c16.6,2.5,32.2,5.8,45.4,14.9c0.2,0.1,0.4,0.1,0.5,0c0.1-0.1,0.1-0.3,0-0.5c-6-7.6-13.5-11.2-22.8-15.1c-11-4.6-22.9-7.8-35.5-9.7
		c-13.8-2.1-29.3-3.8-46.5-5.2c-6.7-0.6-27.9-0.9-63.5-1c-2,0-3.5,0.4-4.6,1.3c-0.1,0.1-0.1,0.2,0,0.3
		C640,671.7,640.1,671.7,640.1,671.7z M631.4,680.4c0.3,0.2,4,0.4,11.3,0.6c3.4,0.1,7,0.4,10.7,1c14.5,2.1,27.2,3.7,42.1,6.7
		c15.1,3.1,29.4,5.5,42.8,7.3c28.8,3.9,53.2,7.1,76.7,20.3c0.3,0.2,0.7,0.1,0.9-0.2c0.1-0.2,0.1-0.3,0.1-0.5
		c-0.1-0.2-0.2-0.5-0.5-0.8c-5.4-6.2-12.7-11.1-21.9-14.8c-12.7-5.1-25.8-8.8-39.1-10.9c-12-1.9-22.1-4-33.5-4.9
		c-13.7-1-25-3-37.7-3.4c-1.1,0-6-0.4-14.7-1.2c-9.5-0.8-21.9-0.8-37.2-0.1c-0.1,0-0.2,0.1-0.2,0.2c-0.2,0.4-0.1,0.7,0.1,0.8
		C631.3,680.4,631.4,680.4,631.4,680.4z M807.2,723.7c-1.3-1.8-3.2-3.6-6-5.3c-6.5-4.1-12.5-7.4-20.1-9.3c-4.3-1.1-8.8-2.2-13.4-3.4
		c-2.4-0.6-18.4-4-48-10c-15.4-3.1-36.6-5.7-63.6-7.7c-4-0.3-10.8-0.1-20.3,0.7c-0.1,0-0.2,0.1-0.2,0.2v0.3c0,0.2,0.2,0.4,0.4,0.4
		c13.6,0.8,26,2.3,37.2,4.5c8.1,1.5,26.1,5.2,53.8,10.9c17,3.5,35.9,5.9,52.1,9.5c9.1,2,18.4,5.2,27.8,9.6c0.1,0.1,0.3,0,0.3-0.1
		C807.3,723.9,807.3,723.8,807.2,723.7z M637.5,697.7l10.6,1.1c0,0,0.1,0,0.1,0c18.2,3.6,40,8.7,59.4,13.8
		c8.1,2.2,16.7,3.9,25.8,5.3c7.9,1.2,18.6,3.2,32.1,6c6,1.3,11.1,2.5,15.3,3.9c0.7,0.2,5.8,1.8,15.1,4.7c0.6,0.2,1.2-0.1,1.4-0.7
		c0.1-0.4,0-0.9-0.3-1.2c-8.4-6.9-20.5-10.8-31.4-13.6c-26-6.7-52.1-12.3-78.5-16.9c-15.5-2.7-33.1-4.7-49.5-3.1
		c-0.1,0-0.2,0.2-0.2,0.3C637.3,697.6,637.4,697.7,637.5,697.7z M566.1,707.9c12.8,10.3,20.3,22.7,30,36.3c4,5.7,7.5,11.9,11,17.2
		c2,3,4.4,7.4,7.4,13.4c6.9,13.8,16.6,29.4,23.4,43.2c8.4,16.7,15.9,30.8,22.7,42.4c1.1,1.8,2.1,3.3,3.2,4.6c0.2,0.3,0.7,0.3,1,0.1
		c0.1-0.1,0.2-0.2,0.2-0.3c0.9-3.1,0.7-6.2-0.3-9.4c-6.4-19.2-16.7-38.3-27-56.4c-2.5-4.4-4.6-7.9-6.4-10.6
		c-6.2-9.5-10-16.6-16.8-25.9c-6.1-8.2-10.9-16.5-17.2-24.5c-1.5-1.9-3.7-4.8-6.5-8.6c-4.5-6-11.4-13-20.7-20.9
		c-1.1-0.9-2.3-1.3-3.8-1.2c-0.2,0-0.3,0.2-0.3,0.4C566,707.8,566,707.9,566.1,707.9z M649.2,709c3.9-0.3,11.9,0.3,17.3,1.6
		c10.9,2.8,18.6,5,22.9,6.8c15.6,6.2,31.4,10.6,47.4,13.1c13.7,2.2,29.2,4.4,46.5,6.7c0.9,0.1,1.5,0.1,1.7,0.1
		c0.2-0.1,0.3-0.3,0.3-0.5c0-0.1-0.1-0.2-0.2-0.3c-7.6-2.8-17.8-5.9-27.6-8.3c-20.2-5-40.3-10-60.1-15c-13.4-3.4-26-5.5-38-6.4
		c-4.2-0.3-7.7,0-10.3,0.9c-0.3,0.1-0.5,0.4-0.4,0.8C648.6,708.8,648.9,709,649.2,709z M592,756.3c-0.1,0.1-0.2,0-0.3,0
		c-4.2-4.8-7.7-8.7-10.6-11.6c-15.4-15.6-35.8-27.8-57.5-31.2c-0.2,0-0.5,0.1-0.5,0.4c0,0.2,0.1,0.4,0.2,0.5
		c9.4,4.7,22.4,10.7,31.7,18.5c6.1,5.1,9.8,8.2,10.9,9.2c15,12.7,28.3,27.3,39.8,43.7c12.2,17.5,21.9,33.9,29,49.5
		c7.1,15.5,12,25.9,14.4,31.2c0.7,1.5,2.1,2.6,3.7,2.8l1.2,0.2c1.2,0.2,2.3-0.6,2.5-1.8c0.1-0.4,0-0.8-0.1-1.1
		c-8.5-21.1-17.3-40.8-26.5-59.1c-1-1.9-6.6-12-16.9-30.2c-6.4-11.3-15.1-23.5-20.5-30.9c-5.7-7.8-12.9-15.9-21.6-24.4
		c-6.5-6.3-16.7-14.1-25.7-14.5c-0.2,0-0.4,0.2-0.4,0.4c0,0.2,0.1,0.3,0.3,0.4c7.5,3.5,14.2,8.2,20.3,14c6,5.8,9.6,9.5,10.9,11
		c3.8,4.7,9.1,12.2,15.9,22.7C592.1,756,592.1,756.2,592,756.3L592,756.3z M674.6,861.2c0.1,0,0.2-0.1,0.2-0.2
		c-0.9-6-2.2-11.3-4-15.9c-6.6-17.3-14.6-33.5-24-48.5c-10.8-17.2-17.8-28.1-20.8-32.7c-8.6-13.2-16-23.7-24.6-37
		c-2.5-3.9-7.8-10.3-16-19.3c-0.1-0.1-0.3-0.1-0.4,0v0c-0.1,0.1-0.1,0.2,0,0.3c5.8,7.6,10.2,14,13.3,19.3
		c21.3,36.7,36.1,62,44.5,75.8c14.3,23.4,22,36.5,23.1,39.2c0,0,1,1.7,2.9,5c2.2,3.7,4.6,10.1,5.1,13.7
		C674,861.1,674.2,861.3,674.6,861.2C674.5,861.2,674.5,861.2,674.6,861.2L674.6,861.2z M647.7,717.3l7.7,1.3c0.1,0,0.2,0,0.3,0.1
		c10.3,3.3,20.3,6.7,30,10.3c8.9,3.3,16.7,5.7,23.3,7.2c12.3,2.9,20.3,4.6,23.9,5.1c15.6,2.2,32,4.5,49.3,7c1.5,0.2,3.7,0.3,6.6,0.3
		c0.3,0,0.6-0.3,0.6-0.6c0-0.2-0.1-0.5-0.4-0.6c-3.2-1.4-7.8-2.8-11.6-3.5c-27.1-5-53.4-11.1-79-18.4c-15.1-4.3-26.6-6.7-40.9-8.4
		c-4.8-0.5-8.1-0.6-10-0.1c-0.1,0-0.1,0.1-0.1,0.1C647.6,717.3,647.6,717.3,647.7,717.3L647.7,717.3z M775.1,755.5
		c-3.6-1.3-7.1-1.4-11.6-2.3c-3.4-0.8-16-3.6-37.9-8.6c-13.1-3-35.5-9.8-55.1-14.4c-4.8-1.1-9.3-1.6-13.7-1.4
		c-0.2,0-0.3,0.1-0.3,0.3c0,0.1,0.1,0.3,0.2,0.3c1.4,0.7,3.5,0.6,5.1,1.1c2.5,0.8,9.7,3.2,21.5,7.2c8.4,2.8,17.2,6.5,26.4,8.9
		c21.6,5.6,43.3,8.7,65.2,9.2c0.1,0,0.2-0.1,0.2-0.2C775.2,755.6,775.2,755.6,775.1,755.5z M754.3,762c-18.1-2.3-34.3-5.9-48.5-10.8
		c-17.1-5.8-31.5-9.3-43.2-10.5c-0.2,0-0.3,0.1-0.3,0.2v0c0,0.2,0.1,0.5,0.3,0.5c11.5,3.1,22.1,5.8,34.2,10.1
		c8.8,3.1,17.4,5.7,25.8,7.6c8.6,2,19.3,3.1,32,3.5c0,0,0,0,0,0l0,0l0.1-0.4C754.6,762.2,754.5,762.1,754.3,762
		C754.3,762,754.3,762,754.3,762z M731.9,768.6c-14.7-3-28.7-6.7-44.2-12.7c-2.6-1-8.5-2.2-17.8-3.5c-0.1,0-0.1,0-0.1,0.1
		c0,0,0,0,0,0l-0.1,0.6c0,0.1,0,0.2,0.1,0.2c0,0,0,0,0,0c5.9,1.2,11.4,3,16.5,5.4c6.3,3,10.5,4.8,12.4,5.4c11.2,3.3,22.2,5,33.1,5.1
		c0.2,0,0.3-0.1,0.3-0.2C732.1,768.7,732,768.6,731.9,768.6L731.9,768.6z M633.6,765.2c9,14.5,17.7,28.8,26.1,42.8
		c7.4,12.3,15.5,29.3,24.3,50.8c0.1,0.2,0.3,0.4,0.6,0.3h0c0.4-0.1,0.6-0.5,0.5-0.8c-0.7-3.6-1.5-6.2-2.2-7.8
		c-11-24.4-21.1-43.7-30.5-57.8c-6.4-9.6-12.5-18.9-18.5-27.8c0-0.1-0.1-0.1-0.2,0c0,0,0,0,0,0C633.5,764.8,633.5,765.1,633.6,765.2
		C633.6,765.2,633.6,765.2,633.6,765.2z"/>
	<path d="M479.9,294.2l0.3-0.1c0.1,0,0.2,0,0.2,0.1c0,0,0,0,0,0c4.2,12.2,7.2,23.9,8.9,35c0,0.2,0.3,0.4,0.5,0.3
		c0.2,0,0.3-0.2,0.3-0.3c1.6-9,1.4-17.8-0.6-26.4c-0.6-2.7-2.6-8.1-5.8-16.2c-0.1-0.3,0-0.6,0.3-0.7l0,0c0.2-0.1,0.5,0,0.6,0.2
		c6.1,10.1,10.9,20.6,14.3,31.4c0.2,0.5,0.7,0.7,1.1,0.6c0.2-0.1,0.4-0.2,0.5-0.4c0.5-0.9,0.7-2,0.7-3.3c-0.1-9.4-2.3-18.1-6.8-26.1
		c0,0-1.4-2.6-4.1-7.8c-0.1-0.2,0-0.6,0.2-0.7c0,0,0,0,0,0l0.3-0.2c0.1,0,0.1,0,0.2,0c4.5,6.2,8.2,11.3,11.1,15.4
		c3,4.2,4.8,9.1,7.4,13.9c0.2,0.3,0.5,0.4,0.8,0.2c0.2-0.1,0.3-0.3,0.3-0.5c0.3-14.7-6.9-28.2-15.6-39.3c-0.1-0.1-0.1-0.3,0-0.4
		c0.1-0.1,0.3-0.1,0.4,0l0,0c6.4,4.6,11.3,11,16.3,17.3c0.5,0.6,1.3,0.7,1.9,0.2c0.4-0.3,0.6-0.9,0.5-1.4c-2.4-8.7-6.3-17.7-14.6-22
		c-3.9-2-13.4-6.4-14.6-9.1c-0.1-0.3,0-0.7,0.3-0.9c0.1-0.1,0.3-0.1,0.5,0c4.4,1.4,10.6,3.1,18.4,5c1.5,0.4,4.5,1.8,8.8,4.3
		c0.4,0.2,1,0.1,1.2-0.3l1.3-2c0.2-0.4,0.6-0.6,1.1-0.7c3.7-0.6,3.5,4.3,3.6,7.3c0,0.2,0.2,0.4,0.4,0.4c0.1,0,0.3-0.1,0.3-0.2
		c2.2-3.7,4.2-7.6,6-11.5c1.4-3,3.1-5.6,5.1-7.7c0.2-0.2,0.4-0.2,0.6,0c0.1,0.1,0.1,0.1,0.1,0.2c0.5,2.9-2.2,10.5-4.4,18.4
		c-0.6,2-0.7,4.8-0.8,6.7c0,0.5,0.4,0.9,0.9,1c0.3,0,0.6-0.1,0.8-0.3c1.7-2,3.8-5.3,6.5-10c2.9-5.1,4.1-11.5,6.6-16
		c0.1-0.2,0.3-0.3,0.5-0.2c0.1,0,0.1,0.1,0.1,0.1c0.1,0.2,0.1,0.6,0.1,1.3c-1,8.1-3.2,15.6-6.7,22.4c-0.1,0.1,0,0.3,0.1,0.3
		c0.1,0,0.2,0,0.3,0c5-4.7,9.5-10,12.7-16.4c1.3-2.6,3-5.3,5-8c0.2-0.2,0.5-0.3,0.7-0.1c0.1,0.1,0.2,0.3,0.2,0.5l-4.2,15.4
		c-0.1,0.3,0.1,0.6,0.4,0.7c0.1,0,0.3,0,0.4-0.1c7.5-4.3,11.6-10.7,12.4-19c0-0.2,0.2-0.4,0.4-0.4h0.3c0.1,0,0.2,0.1,0.2,0.2
		c0.3,5.6-0.6,10.8-2.7,15.6c-0.1,0.3,0,0.6,0.3,0.7c0.2,0.1,0.5,0.1,0.6-0.1l4.1-4.4c0.1-0.1,0.3-0.3,0.4-0.5
		c1.4-2.4,3.2-5.6,5.3-9.7c0.1-0.3,0.4-0.4,0.7-0.4c0.4,0,0.8,0.3,0.8,0.7c0,0.1,0,0.2,0,0.3l-4.5,13.2c-0.1,0.3,0.1,0.6,0.3,0.7
		c0.2,0.1,0.3,0,0.5-0.1c5.8-4.3,10.1-8.8,12.8-13.6c0.3-0.4,0.8-0.6,1.3-0.3c0.1,0.1,0.3,0.2,0.3,0.3c1.9,3.3-1.7,11.3-3.9,13.7
		c-3.2,3.4-6.9,5.9-11.3,7.5c-8.2,2.9-15.1,5.7-20.8,8.5c-8.6,4.3-15,10.8-19.1,19.5c-0.3,0.6-0.5,1.2-0.6,1.8
		c-0.5,2.5-0.9,4.3-1.2,5.3c-0.7,2.6-2.3,5.2-3.3,7.5c-0.1,0.3,0,0.5,0.3,0.7l0,0c0.1,0.1,0.3,0,0.4-0.1c2-2.7,4.2-4.8,6.7-6.5
		c0.4-0.3,1-0.2,1.3,0.2c0.2,0.2,0.2,0.5,0.1,0.8c-2,7-6.7,13.6-13.2,17.1c-9.2,5-16.8,9.9-21.6,19.3c-3,5.9-5.6,11.7-9.2,16.5
		c-6.2,8.2-10,14.5-11.7,25c-1.1,6.7-8.8,4.2-12.8,2.3c-0.9-0.4-1.2-1.5-0.8-2.3c0.2-0.3,0.4-0.6,0.7-0.8l4.2-2.2
		c0.4-0.2,0.6-0.7,0.4-1.1c-0.1-0.2-0.4-0.4-0.6-0.4c-4.2-0.5-8.6-1.7-13.2-3.6c-0.1-0.1-0.2-0.2-0.1-0.3c0-0.1,0.1-0.1,0.2-0.1
		h11.6c0.1,0,0.2-0.1,0.2-0.2c0-0.1,0-0.2-0.1-0.2l-11.2-7.1c-0.1-0.1-0.3-0.1-0.4-0.2l-4.3-1.2c-0.2-0.1-0.3-0.2-0.2-0.4
		c0-0.1,0.1-0.2,0.2-0.2c1.2-0.4,2.5-0.4,3.9,0.1c6.1,2,10.8,3.4,14.3,4.3c0.2,0,0.3-0.1,0.4-0.2c0-0.1,0-0.2-0.1-0.3
		c-6-5.1-10.8-9-14.4-11.8c-0.3-0.2-0.3-0.4-0.2-0.6c0.1-0.1,0.1-0.2,0.2-0.3c0.1-0.1,0.3-0.1,0.4-0.1l13.3,5.9c0.7,0.3,1.6,0,2-0.8
		c0.1-0.3,0.2-0.5,0.1-0.8l0-0.3c-0.4-1.3-1.4-2.4-2.6-2.8c-7.5-2.7-13.9-7-19-12.8c-0.4-0.4-0.4-1.1,0.1-1.5
		c0.2-0.2,0.5-0.3,0.9-0.3l8.8,1.3c0.4,0.1,0.8-0.2,0.9-0.7c0-0.2,0-0.5-0.2-0.7c-3.2-3.6-7.1-6.1-11.7-7.7
		c-0.3-0.1-0.5-0.4-0.4-0.7c0.1-0.2,0.3-0.4,0.5-0.4c5.3-0.1,9.9,1.5,13.6,4.9c0.1,0.1,0.2,0.1,0.3,0c0.1-0.1,0.1-0.1,0.1-0.2
		c-1.5-5.6-4.5-10.1-9-13.6c-0.3-0.3-0.4-0.8-0.1-1.1c0.1-0.2,0.4-0.3,0.6-0.3c4.3,0,8,5,10.8,7.3c0.2,0.1,0.4,0.1,0.5,0
		c0.1-0.1,0.1-0.2,0.1-0.4c-2.1-7.2-3.3-14.4-3.5-21.6c0-0.2,0.2-0.4,0.4-0.4c0,0,0,0,0,0h0.3c0.1,0,0.2,0.1,0.2,0.2
		c0.9,5.1,5.5,20.8,10.7,23.6c0.2,0.1,0.5,0.1,0.6-0.2c0.1-0.1,0.1-0.2,0-0.3c-0.7-3.2-2.3-12.1-4.9-26.9c-0.1-0.6,0.1-0.9,0.5-0.9
		c0.4,0,0.7,0.3,0.8,0.6l9.9,26.6c0.1,0.3,0.4,0.4,0.7,0.3c0.2-0.1,0.3-0.2,0.3-0.4c0.7-4.7,0.9-9.3,0.8-14.1
		c-0.2-6.9-1.4-14.6-3.5-23.1C479.7,294.4,479.8,294.3,479.9,294.2z"/>
</g>
</svg>
