<?xml version="1.0" encoding="UTF-8"?><svg id="a" xmlns="http://www.w3.org/2000/svg" viewBox="0 0 567.771 120.803"><path d="M0,118.319L47.989,2.983h19.028l47.827,115.336h-28.3l-28.953-76.619-29.29,76.619H0ZM34.421,98.792l8.107-23.169h29.95l8.444,23.169h-46.501Z" fill="#4f46e5"/><path d="M140.115,120.137c-7.063,0-13.076-1.845-18.039-5.542s-8.747-8.767-11.339-15.224c-2.592-6.451-3.885-13.763-3.885-21.924,0-9.157,1.488-16.881,4.464-23.169,2.983-6.289,7.009-11.09,12.08-14.396,5.077-3.313,10.645-4.962,16.719-4.962,3.858,0,7.609.828,11.251,2.478,3.636,1.656,6.78,4.363,9.433,8.114,2.646,3.75,4.41,8.881,5.292,15.386l-4.464-3.643V2.983h24.819v115.336h-24.819v-20.187l5.124-4.969c-1.32,7.615-3.474,13.352-6.451,17.21-2.976,3.865-6.262,6.457-9.844,7.777-3.589,1.326-7.036,1.986-10.342,1.986ZM147.892,97.304c3.414,0,6.309-.801,8.686-2.404,2.37-1.596,4.188-3.885,5.461-6.861,1.266-2.983,1.906-6.511,1.906-10.592s-.64-7.588-1.906-10.511c-1.273-2.922-3.091-5.185-5.461-6.78-2.377-1.603-5.272-2.404-8.686-2.404-3.313,0-6.181.774-8.605,2.316-2.431,1.549-4.276,3.784-5.548,6.706-1.266,2.922-1.899,6.477-1.899,10.672s.633,7.777,1.899,10.753c1.273,2.983,3.118,5.245,5.548,6.787,2.424,1.542,5.292,2.316,8.605,2.316Z" fill="#4f46e5"/><path d="M233.755,120.803c-12.793,0-23.277-3.313-31.438-9.932-8.168-6.619-13.13-15.446-14.894-26.476l25.317-6.289c1.212,6.619,3.724,11.561,7.528,14.813,3.811,3.252,8.578,4.882,14.315,4.882,2.868,0,5.434-.444,7.696-1.326s4.053-2.209,5.38-3.973c1.32-1.764,1.986-3.858,1.986-6.289,0-2.202-.667-4.161-1.986-5.871-1.326-1.71-3.474-3.367-6.457-4.962-2.976-1.603-6.949-3.34-11.911-5.218-7.838-3.084-14.234-6.37-19.197-9.844s-8.605-7.474-10.922-11.999c-2.316-4.518-3.474-9.703-3.474-15.554,0-6.397,1.569-12.053,4.713-16.961s7.555-8.767,13.238-11.581c5.683-2.815,12.275-4.222,19.776-4.222,8.053,0,15.197,1.852,21.432,5.542,6.228,3.703,11.225,9.299,14.975,16.8l-20.685,12.578c-2.094-3.865-4.552-6.814-7.366-8.854-2.808-2.04-5.871-3.064-9.184-3.064-1.986,0-3.804.391-5.461,1.158-1.65.774-2.976,1.852-3.966,3.225-.997,1.387-1.495,3.01-1.495,4.882s.579,3.643,1.737,5.299,3.286,3.34,6.376,5.043c3.084,1.717,7.386,3.616,12.901,5.71,7.393,2.761,13.487,5.797,18.288,9.104,4.801,3.313,8.41,7.144,10.841,11.501,2.424,4.356,3.643,9.575,3.643,15.635,0,7.063-1.744,13.325-5.218,18.786-3.474,5.461-8.329,9.736-14.558,12.827-6.235,3.084-13.548,4.633-21.931,4.633Z" fill="#4f46e5"/><path d="M315.647,120.137c-7.501,0-13.898-1.185-19.19-3.555-5.299-2.37-9.602-5.568-12.908-9.595-3.313-4.027-5.71-8.551-7.198-13.574-1.495-5.016-2.235-10.174-2.235-15.473,0-5.07.741-10.147,2.235-15.224,1.488-5.07,3.804-9.703,6.949-13.898,3.144-4.188,7.279-7.555,12.41-10.093s11.332-3.804,18.618-3.804c6.397,0,12.019,1.071,16.881,3.225,4.848,2.148,8.902,5.158,12.16,9.016,3.252,3.865,5.71,8.444,7.366,13.736,1.65,5.299,2.478,11.09,2.478,17.379,0,1.104-.027,2.262-.081,3.474-.061,1.212-.195,2.7-.417,4.464h-53.611c.66,4.417,2.727,7.615,6.201,9.602,3.481,1.986,7.474,2.976,11.999,2.976,3.973,0,8.053-.687,12.248-2.067,4.188-1.38,7.831-3.279,10.922-5.71l10.592,17.54c-4.303,2.868-8.221,5.158-11.75,6.868-3.535,1.71-7.144,2.922-10.841,3.643-3.697.714-7.972,1.071-12.827,1.071ZM328.723,73.804c.222-.882.411-1.764.579-2.646s.249-1.71.249-2.485c0-2.094-.391-3.939-1.158-5.542-.774-1.596-1.852-2.949-3.225-4.053-1.387-1.104-2.956-1.959-4.72-2.565s-3.643-.909-5.622-.909c-3.643,0-6.599.66-8.854,1.986-2.262,1.32-3.946,2.922-5.05,4.794-1.104,1.879-1.818,3.697-2.148,5.461h38.225l-8.275,5.959Z" fill="#4f46e5"/><path d="M377.338,120.137c-5.959,0-10.975-1.791-15.056-5.373-4.087-3.589-6.127-9.292-6.127-17.13V2.983h24.826v89.688c0,1.65.465,2.815,1.407,3.474.936.66,2.121.99,3.555.99.882,0,1.737-.081,2.565-.249.828-.162,1.683-.357,2.565-.579v21.183c-2.538.997-4.996,1.683-7.366,2.067-2.37.391-4.491.579-6.37.579Z" fill="#4f46e5"/><path d="M413.415,120.137c-5.959,0-10.975-1.791-15.056-5.373-4.087-3.589-6.127-9.292-6.127-17.13V2.983h24.826v89.688c0,1.65.465,2.815,1.407,3.474.936.66,2.121.99,3.555.99.882,0,1.737-.081,2.565-.249.828-.162,1.683-.357,2.565-.579v21.183c-2.538.997-4.996,1.683-7.366,2.067-2.37.391-4.491.579-6.37.579Z" fill="#4f46e5"/><path d="M430.639,118.319v-23.499h25.479v23.499h-25.479Z" fill="#4f46e5"/><path d="M490.64,120.137c-5.851,0-11.171-1.131-15.972-3.387-4.801-2.262-8.605-5.488-11.42-9.683s-4.215-9.043-4.215-14.564c0-4.74,1.017-8.881,3.057-12.41s4.774-6.228,8.195-8.107c2.532-1.434,5.4-2.485,8.605-3.144,3.198-.667,6.619-.997,10.255-.997h24.496v18.369h-20.853c-1.326,0-2.512.114-3.555.33-1.05.222-1.959.613-2.734,1.158-.774.559-1.38,1.246-1.818,2.074-.444.828-.66,1.737-.66,2.727,0,2.316.963,4.168,2.895,5.542,1.926,1.38,4.491,2.074,7.689,2.074,3.091,0,5.932-.633,8.524-1.906,2.592-1.266,4.659-3.003,6.208-5.212,1.542-2.209,2.316-4.74,2.316-7.615l5.292,14.066c-2.094,5.629-4.606,9.932-7.528,12.908-2.922,2.983-6.013,5.023-9.265,6.127-3.259,1.098-6.43,1.65-9.514,1.65ZM513.641,118.319l-1.986-9.595v-42.198c0-3.865-1.38-6.619-4.141-8.275-2.754-1.656-6.174-2.485-10.255-2.485-4.303,0-8.881.801-13.736,2.404-4.855,1.596-8.935,3.555-12.248,5.871l-10.592-17.54c6.511-4.303,12.827-7.306,18.948-9.016,6.127-1.71,12.713-2.565,19.776-2.565,11.581,0,20.658,2.841,27.223,8.518,6.558,5.683,9.844,13.379,9.844,23.089v51.793h-22.833Z" fill="#4f46e5"/><path d="M542.285,25.486V2.983h25.486v22.503h-25.486ZM542.453,118.319V36.737h24.988v81.581h-24.988Z" fill="#4f46e5"/></svg>