<svg version="1.1" id="Layer_1" xmlns="http://www.w3.org/2000/svg" xmlns:xlink="http://www.w3.org/1999/xlink" x="0px" y="0px"
	 width="100%" viewBox="0 0 640 400" enable-background="new 0 0 640 400" xml:space="preserve">
<path fill="#FFFEFE" opacity="1.000000" stroke="none" 
	d="
M421.000000,401.000000 
	C280.700256,401.000000 140.900513,401.000000 1.050383,401.000000 
	C1.050383,267.732300 1.050383,134.464569 1.050383,1.098425 
	C214.216431,1.098425 427.432922,1.098425 640.824707,1.098425 
	C640.824707,134.333145 640.824707,267.666565 640.824707,401.000000 
	C567.797852,401.000000 494.648926,401.000000 421.000000,401.000000 
M64.281281,269.499939 
	C64.281281,306.242584 64.281281,342.985229 64.281281,379.709656 
	C235.533783,379.709656 405.904297,379.709656 576.334717,379.709656 
	C576.334717,260.312042 576.334717,141.287552 576.334717,22.287186 
	C405.561340,22.287186 235.191345,22.287186 64.281387,22.287186 
	C64.281387,104.605728 64.281387,186.552841 64.281281,269.499939 
z"/>
<path fill="#C1161C" opacity="1.000000" stroke="none" 
	d="
M64.281334,268.999939 
	C64.281387,186.552841 64.281387,104.605728 64.281387,22.287186 
	C235.191345,22.287186 405.561340,22.287186 576.334717,22.287186 
	C576.334717,141.287552 576.334717,260.312042 576.334717,379.709656 
	C405.904297,379.709656 235.533783,379.709656 64.281281,379.709656 
	C64.281281,342.985229 64.281281,306.242584 64.281334,268.999939 
M184.500000,359.067657 
	C308.085236,359.067657 431.670441,359.067657 555.491394,359.067657 
	C555.491394,253.425476 555.491394,148.399979 555.491394,43.225075 
	C398.732239,43.225075 242.348068,43.225075 85.700378,43.225075 
	C85.700378,148.564438 85.700378,253.598068 85.700378,359.067688 
	C118.558594,359.067688 151.029297,359.067688 184.500000,359.067657 
z"/>
<path fill="#FDEFEF" opacity="1.000000" stroke="none" 
	d="
M184.000000,359.067688 
	C151.029297,359.067688 118.558594,359.067688 85.700378,359.067688 
	C85.700378,253.598068 85.700378,148.564438 85.700378,43.225075 
	C242.348068,43.225075 398.732239,43.225075 555.491394,43.225075 
	C555.491394,148.399979 555.491394,253.425476 555.491394,359.067657 
	C431.670441,359.067657 308.085236,359.067657 184.000000,359.067688 
M135.500015,51.839962 
	C121.912506,51.839962 108.324989,51.839962 94.625565,51.839962 
	C94.625565,151.627609 94.625565,250.641449 94.625565,349.790039 
	C245.439087,349.790039 395.815765,349.790039 546.531067,349.790039 
	C546.531067,250.483521 546.531067,151.461426 546.531067,51.839893 
	C409.632416,51.839893 273.066223,51.839893 135.500015,51.839962 
z"/>
<path fill="#C21118" opacity="1.000000" stroke="none" 
	d="
M136.000031,51.839928 
	C273.066223,51.839893 409.632416,51.839893 546.531067,51.839893 
	C546.531067,151.461426 546.531067,250.483521 546.531067,349.790039 
	C395.815765,349.790039 245.439087,349.790039 94.625565,349.790039 
	C94.625565,250.641449 94.625565,151.627609 94.625565,51.839962 
	C108.324989,51.839962 121.912506,51.839962 136.000031,51.839928 
M180.012360,229.500000 
	C179.982178,238.997314 180.134903,248.499619 179.875778,257.990692 
	C179.546906,270.036072 175.678787,273.994019 163.594849,274.875183 
	C159.337814,275.185608 155.039124,274.924774 150.580338,274.924774 
	C150.580338,277.421326 150.580338,278.979889 150.580338,280.756592 
	C152.012878,280.859283 153.148224,281.011383 154.283615,281.011749 
	C183.944153,281.021942 213.606171,281.170593 243.263947,280.883057 
	C249.169769,280.825836 255.236710,279.692902 260.924194,278.019104 
	C280.567413,272.238098 293.374603,255.710602 294.191162,235.861801 
	C294.939606,217.668472 284.300842,202.818604 264.866821,194.917862 
	C263.382019,194.314209 261.915985,193.664352 259.879181,192.796524 
	C262.832062,191.545670 265.156128,190.722275 267.333221,189.610931 
	C276.558350,184.901825 283.076721,177.881119 285.148499,167.480194 
	C288.217133,152.074921 279.024445,136.793228 263.199158,130.882828 
	C251.330673,126.450211 238.882828,124.982079 226.359314,125.153534 
	C203.208664,125.470451 180.067276,126.420242 156.918427,126.948601 
	C152.269440,127.054710 151.495331,128.915451 153.265289,133.029007 
	C154.958893,133.029007 156.614105,133.023758 158.269287,133.029800 
	C176.579254,133.096741 179.940247,136.359604 179.986893,154.515289 
	C180.050278,179.176712 180.008850,203.838409 180.012360,229.500000 
M472.056030,167.501724 
	C472.336884,160.521255 472.208313,153.493164 473.012878,146.573593 
	C473.829376,139.551300 478.335388,135.294708 485.292938,133.871323 
	C488.337036,133.248550 491.432068,132.874695 494.809540,132.339386 
	C494.685394,130.286957 494.580872,128.559067 494.471527,126.750900 
	C474.383728,126.750900 454.825775,126.750900 435.163361,126.750900 
	C435.163361,128.909698 435.163361,130.652664 435.163361,132.515015 
	C439.078217,133.072708 442.689667,133.538162 446.284180,134.109772 
	C453.075104,135.189651 456.845367,139.339035 458.024231,145.969009 
	C458.402832,148.098145 458.791046,150.264267 458.798370,152.414764 
	C458.879578,176.242828 459.444214,200.087234 458.755920,223.894806 
	C458.076965,247.380127 445.433838,263.207001 424.389374,268.745941 
	C410.930084,272.288452 397.201019,272.672150 383.868744,268.816589 
	C377.003632,266.831238 370.088135,263.466949 364.451355,259.103394 
	C351.875275,249.368027 348.178772,235.179718 348.062592,219.973236 
	C347.885620,196.811096 348.019470,173.646561 348.026215,150.483047 
	C348.026581,149.316971 348.028259,148.147858 348.105896,146.985291 
	C348.703308,138.035309 352.443237,134.089737 361.343475,133.128311 
	C363.950287,132.846725 366.581360,132.789490 369.106812,132.635193 
	C370.227356,126.466919 370.154724,126.358307 364.378754,126.355865 
	C347.047760,126.348534 329.716797,126.357460 312.385803,126.359932 
	C309.935181,126.360275 307.484528,126.359978 304.843933,126.359978 
	C304.843933,128.817017 304.843933,130.694016 304.843933,132.665405 
	C308.200104,132.945938 311.201416,133.020523 314.143646,133.476501 
	C322.266418,134.735382 324.650940,137.284485 325.363312,145.511292 
	C325.679016,149.157181 325.742188,152.833496 325.747437,156.496277 
	C325.779572,178.826508 325.610626,201.158096 325.798248,223.486816 
	C326.051910,253.671539 343.860687,275.861633 373.094727,283.005829 
	C386.893433,286.377899 400.811371,286.708984 414.786407,284.749878 
	C450.901428,279.687103 472.056274,255.320068 472.056061,218.994125 
	C472.055939,202.163071 472.056030,185.332031 472.056030,167.501724 
z"/>
<path fill="#FDF7F6" opacity="1.000000" stroke="none" 
	d="
M180.012360,229.000000 
	C180.008850,203.838409 180.050278,179.176712 179.986893,154.515289 
	C179.940247,136.359604 176.579254,133.096741 158.269287,133.029800 
	C156.614105,133.023758 154.958893,133.029007 153.265289,133.029007 
	C151.495331,128.915451 152.269440,127.054710 156.918427,126.948601 
	C180.067276,126.420242 203.208664,125.470451 226.359314,125.153534 
	C238.882828,124.982079 251.330673,126.450211 263.199158,130.882828 
	C279.024445,136.793228 288.217133,152.074921 285.148499,167.480194 
	C283.076721,177.881119 276.558350,184.901825 267.333221,189.610931 
	C265.156128,190.722275 262.832062,191.545670 259.879181,192.796524 
	C261.915985,193.664352 263.382019,194.314209 264.866821,194.917862 
	C284.300842,202.818604 294.939606,217.668472 294.191162,235.861801 
	C293.374603,255.710602 280.567413,272.238098 260.924194,278.019104 
	C255.236710,279.692902 249.169769,280.825836 243.263947,280.883057 
	C213.606171,281.170593 183.944153,281.021942 154.283615,281.011749 
	C153.148224,281.011383 152.012878,280.859283 150.580338,280.756592 
	C150.580338,278.979889 150.580338,277.421326 150.580338,274.924774 
	C155.039124,274.924774 159.337814,275.185608 163.594849,274.875183 
	C175.678787,273.994019 179.546906,270.036072 179.875778,257.990692 
	C180.134903,248.499619 179.982178,238.997314 180.012360,229.000000 
M201.485657,236.499939 
	C201.616394,242.660355 201.425476,248.848328 201.950592,254.974930 
	C202.813354,265.040527 207.735260,270.613525 217.705032,272.110992 
	C223.901749,273.041718 230.354218,273.298737 236.591125,272.737762 
	C254.642120,271.114197 265.715118,260.860199 269.205719,244.139938 
	C272.430176,228.694717 266.275055,210.043808 250.370514,202.044144 
	C234.658340,194.141235 218.143372,197.919403 201.485291,196.740829 
	C201.485291,210.213974 201.485291,222.856964 201.485657,236.499939 
M201.418106,140.700134 
	C201.418106,157.294983 201.418106,173.889832 201.418106,191.639465 
	C215.236496,190.961426 228.485703,190.641342 241.657959,189.461868 
	C245.558853,189.112564 249.653275,186.921188 252.955795,184.581375 
	C267.758148,174.093887 265.113831,146.351044 248.385925,136.736832 
	C233.612915,128.246185 217.584549,131.167587 201.417526,131.568176 
	C201.417526,134.805695 201.417526,137.281677 201.418106,140.700134 
z"/>
<path fill="#FDF5F4" opacity="1.000000" stroke="none" 
	d="
M472.056030,168.001343 
	C472.056030,185.332031 472.055939,202.163071 472.056061,218.994125 
	C472.056274,255.320068 450.901428,279.687103 414.786407,284.749878 
	C400.811371,286.708984 386.893433,286.377899 373.094727,283.005829 
	C343.860687,275.861633 326.051910,253.671539 325.798248,223.486816 
	C325.610626,201.158096 325.779572,178.826508 325.747437,156.496277 
	C325.742188,152.833496 325.679016,149.157181 325.363312,145.511292 
	C324.650940,137.284485 322.266418,134.735382 314.143646,133.476501 
	C311.201416,133.020523 308.200104,132.945938 304.843933,132.665405 
	C304.843933,130.694016 304.843933,128.817017 304.843933,126.359978 
	C307.484528,126.359978 309.935181,126.360275 312.385803,126.359932 
	C329.716797,126.357460 347.047760,126.348534 364.378754,126.355865 
	C370.154724,126.358307 370.227356,126.466919 369.106812,132.635193 
	C366.581360,132.789490 363.950287,132.846725 361.343475,133.128311 
	C352.443237,134.089737 348.703308,138.035309 348.105896,146.985291 
	C348.028259,148.147858 348.026581,149.316971 348.026215,150.483047 
	C348.019470,173.646561 347.885620,196.811096 348.062592,219.973236 
	C348.178772,235.179718 351.875275,249.368027 364.451355,259.103394 
	C370.088135,263.466949 377.003632,266.831238 383.868744,268.816589 
	C397.201019,272.672150 410.930084,272.288452 424.389374,268.745941 
	C445.433838,263.207001 458.076965,247.380127 458.755920,223.894806 
	C459.444214,200.087234 458.879578,176.242828 458.798370,152.414764 
	C458.791046,150.264267 458.402832,148.098145 458.024231,145.969009 
	C456.845367,139.339035 453.075104,135.189651 446.284180,134.109772 
	C442.689667,133.538162 439.078217,133.072708 435.163361,132.515015 
	C435.163361,130.652664 435.163361,128.909698 435.163361,126.750900 
	C454.825775,126.750900 474.383728,126.750900 494.471527,126.750900 
	C494.580872,128.559067 494.685394,130.286957 494.809540,132.339386 
	C491.432068,132.874695 488.337036,133.248550 485.292938,133.871323 
	C478.335388,135.294708 473.829376,139.551300 473.012878,146.573593 
	C472.208313,153.493164 472.336884,160.521255 472.056030,168.001343 
z"/>
<path fill="#C2141A" opacity="1.000000" stroke="none" 
	d="
M201.485474,235.999939 
	C201.485291,222.856964 201.485291,210.213974 201.485291,196.740829 
	C218.143372,197.919403 234.658340,194.141235 250.370514,202.044144 
	C266.275055,210.043808 272.430176,228.694717 269.205719,244.139938 
	C265.715118,260.860199 254.642120,271.114197 236.591125,272.737762 
	C230.354218,273.298737 223.901749,273.041718 217.705032,272.110992 
	C207.735260,270.613525 202.813354,265.040527 201.950592,254.974930 
	C201.425476,248.848328 201.616394,242.660355 201.485474,235.999939 
z"/>
<path fill="#C2151B" opacity="1.000000" stroke="none" 
	d="
M201.417816,140.228897 
	C201.417526,137.281677 201.417526,134.805695 201.417526,131.568176 
	C217.584549,131.167587 233.612915,128.246185 248.385925,136.736832 
	C265.113831,146.351044 267.758148,174.093887 252.955795,184.581375 
	C249.653275,186.921188 245.558853,189.112564 241.657959,189.461868 
	C228.485703,190.641342 215.236496,190.961426 201.418106,191.639465 
	C201.418106,173.889832 201.418106,157.294983 201.417816,140.228897 
z"/>
</svg>