<svg version="1.1" id="Layer_1" xmlns="http://www.w3.org/2000/svg" xmlns:xlink="http://www.w3.org/1999/xlink" x="0px" y="0px"
	 width="100%" viewBox="0 0 300 210" enable-background="new 0 0 300 210" xml:space="preserve">
<path fill="#C61823" opacity="1.000000" stroke="none" 
	d="
M1.000000,73.000000 
	C1.000000,48.666676 1.000000,24.833347 1.000000,1.000016 
	C100.999962,1.000011 200.999924,1.000011 300.999908,1.000005 
	C300.999939,70.999947 300.999939,140.999893 300.999969,210.999878 
	C201.000092,210.999908 101.000175,210.999908 1.000131,210.999954 
	C1.000000,165.166672 1.000000,119.333336 1.000000,73.000000 
M13.368516,72.499802 
	C13.368516,114.418625 13.368516,156.337448 13.368516,198.470963 
	C15.515318,198.565674 16.985941,198.687180 18.456575,198.687317 
	C106.765907,198.696335 195.075302,198.658676 283.384430,198.799301 
	C287.995728,198.806641 288.818787,197.286469 288.809357,193.073776 
	C288.678741,134.756577 288.722748,76.439003 288.711395,18.121513 
	C288.711090,16.668697 288.566254,15.215909 288.482697,13.648364 
	C196.671783,13.648364 105.177330,13.648364 13.368546,13.648364 
	C13.368546,33.212605 13.368546,52.356201 13.368516,72.499802 
z"/>
<path fill="#F7E0E2" opacity="1.000000" stroke="none" 
	d="
M13.368531,71.999802 
	C13.368546,52.356201 13.368546,33.212605 13.368546,13.648364 
	C105.177330,13.648364 196.671783,13.648364 288.482697,13.648364 
	C288.566254,15.215909 288.711090,16.668697 288.711395,18.121513 
	C288.722748,76.439003 288.678741,134.756577 288.809357,193.073776 
	C288.818787,197.286469 287.995728,198.806641 283.384430,198.799301 
	C195.075302,198.658676 106.765907,198.696335 18.456575,198.687317 
	C16.985941,198.687180 15.515318,198.565674 13.368516,198.470963 
	C13.368516,156.337448 13.368516,114.418625 13.368531,71.999802 
M282.603607,193.028076 
	C282.737823,192.684738 282.872070,192.341415 283.188049,191.076309 
	C283.200043,135.043411 283.213135,79.010521 283.215088,22.977633 
	C283.215118,21.985891 283.081329,20.994146 283.034851,19.382652 
	C282.685852,19.240593 282.336884,19.098534 281.068207,18.769688 
	C195.039383,18.756336 109.010559,18.742195 22.981739,18.739414 
	C21.990463,18.739384 20.999186,18.886631 19.409048,18.945614 
	C19.286369,19.293619 19.163689,19.641626 18.872257,20.915007 
	C18.862055,75.290695 18.849035,129.666382 18.850174,184.042068 
	C18.850229,186.697449 18.974361,189.352844 19.005983,192.591492 
	C19.336031,192.722595 19.666079,192.853683 20.918653,193.166168 
	C106.952766,193.177673 192.986877,193.189880 279.020996,193.192261 
	C280.014130,193.192291 281.007294,193.065369 282.603607,193.028076 
z"/>
<path fill="#C51823" opacity="1.000000" stroke="none" 
	d="
M20.007908,18.965128 
	C20.999186,18.886631 21.990463,18.739384 22.981739,18.739414 
	C109.010559,18.742195 195.039383,18.756336 281.670227,19.063707 
	C282.481934,19.614075 282.727875,19.828966 283.010010,20.002403 
	C283.081329,20.994146 283.215118,21.985891 283.215088,22.977633 
	C283.213135,79.010521 283.200043,135.043411 282.902832,191.675537 
	C282.371552,192.481308 282.165833,192.722290 282.000427,192.997711 
	C281.007294,193.065369 280.014130,193.192291 279.020996,193.192261 
	C192.986877,193.189880 106.952766,193.177673 20.324894,192.887802 
	C19.534620,192.370422 19.304480,192.170029 19.040718,192.008224 
	C18.974361,189.352844 18.850229,186.697449 18.850174,184.042068 
	C18.849035,129.666382 18.862055,75.290695 19.145130,20.309048 
	C19.649157,19.484695 19.845791,19.238708 20.007908,18.965128 
M65.503586,147.585846 
	C62.101898,148.192932 58.676559,148.695572 55.310040,149.457947 
	C53.941811,149.767776 52.701488,150.642456 51.402966,151.260132 
	C52.732288,151.815765 54.058491,152.846069 55.391411,152.854843 
	C71.712578,152.962128 88.034988,152.967026 104.356354,152.872818 
	C107.333076,152.855637 110.351723,152.501724 113.273674,151.916824 
	C125.686600,149.432159 134.089890,140.149445 135.535690,127.544510 
	C136.755539,116.909477 130.600204,107.784309 118.688156,102.556992 
	C117.884361,102.204254 117.100037,101.807159 115.981110,101.276222 
	C118.402283,99.978661 120.530685,99.055748 122.426346,97.785507 
	C132.184509,91.246712 133.787170,78.116135 125.146431,70.290527 
	C121.510559,66.997650 116.481911,64.342728 111.689415,63.385601 
	C92.875221,59.628136 73.859985,61.999260 54.921524,62.843716 
	C54.088364,62.880867 53.321381,64.402283 52.523571,65.232323 
	C55.934036,66.282333 58.459351,66.032379 60.913742,66.342941 
	C64.302917,66.771774 67.559494,67.721527 67.599976,72.705315 
	C67.423126,74.679855 67.096848,76.654076 67.092682,78.628975 
	C67.053345,97.283302 67.132103,115.938110 67.019569,134.591843 
	C66.994652,138.721786 66.349602,142.847977 65.503586,147.585846 
M145.097656,62.247425 
	C142.420059,62.041306 140.744385,62.654362 142.078354,65.801453 
	C153.518631,67.084335 153.979797,67.602882 153.987457,79.026833 
	C153.996597,92.690880 153.828613,106.358109 154.068787,120.018135 
	C154.345840,135.776169 163.031830,148.398148 178.044815,152.617981 
	C186.177567,154.903931 195.172638,155.702576 203.607849,155.029831 
	C227.090622,153.157013 239.684036,138.615311 239.697052,114.984375 
	C239.703476,103.319847 239.664246,91.655182 239.708786,79.990822 
	C239.746643,70.080788 241.008911,68.590012 250.722275,66.043304 
	C251.548340,65.826729 252.143753,64.730415 252.846313,64.042793 
	C252.050247,63.446945 251.260239,62.342110 250.457214,62.332573 
	C240.460464,62.213833 230.460571,62.183369 220.465607,62.361336 
	C219.446945,62.379478 218.454941,63.895008 216.576370,65.429993 
	C230.810852,67.814293 231.869324,68.968430 231.957550,81.809586 
	C232.042267,94.139618 232.175751,106.476959 231.859436,118.800087 
	C231.499939,132.806183 224.551193,142.551270 211.977890,145.370834 
	C205.305878,146.867050 197.999054,147.248428 191.239670,146.291122 
	C175.943878,144.124878 167.457947,134.002686 167.136078,118.542671 
	C166.837845,104.218185 166.980606,89.882324 167.085190,75.552612 
	C167.133957,68.869705 169.355072,66.812256 176.057465,66.033867 
	C177.354050,65.883278 178.542068,64.798035 179.780151,64.143936 
	C178.512863,63.511734 177.253586,62.350529 175.977020,62.331211 
	C165.981140,62.179977 155.981949,62.247757 145.097656,62.247425 
z"/>
<path fill="#C10713" opacity="1.000000" stroke="none" 
	d="
M19.708477,18.955372 
	C19.845791,19.238708 19.649157,19.484695 19.229507,19.846359 
	C19.163689,19.641626 19.286369,19.293619 19.708477,18.955372 
z"/>
<path fill="#C10713" opacity="1.000000" stroke="none" 
	d="
M283.022430,19.692528 
	C282.727875,19.828966 282.481934,19.614075 282.130066,19.157101 
	C282.336884,19.098534 282.685852,19.240593 283.022430,19.692528 
z"/>
<path fill="#C10713" opacity="1.000000" stroke="none" 
	d="
M19.023350,192.299866 
	C19.304480,192.170029 19.534620,192.370422 19.863632,192.797119 
	C19.666079,192.853683 19.336031,192.722595 19.023350,192.299866 
z"/>
<path fill="#C10713" opacity="1.000000" stroke="none" 
	d="
M282.302002,193.012894 
	C282.165833,192.722290 282.371552,192.481308 282.811951,192.136414 
	C282.872070,192.341415 282.737823,192.684738 282.302002,193.012894 
z"/>
<path fill="#FDF9F9" opacity="1.000000" stroke="none" 
	d="
M68.017288,71.995110 
	C67.559494,67.721527 64.302917,66.771774 60.913742,66.342941 
	C58.459351,66.032379 55.934036,66.282333 52.523571,65.232323 
	C53.321381,64.402283 54.088364,62.880867 54.921524,62.843716 
	C73.859985,61.999260 92.875221,59.628136 111.689415,63.385601 
	C116.481911,64.342728 121.510559,66.997650 125.146431,70.290527 
	C133.787170,78.116135 132.184509,91.246712 122.426346,97.785507 
	C120.530685,99.055748 118.402283,99.978661 115.981110,101.276222 
	C117.100037,101.807159 117.884361,102.204254 118.688156,102.556992 
	C130.600204,107.784309 136.755539,116.909477 135.535690,127.544510 
	C134.089890,140.149445 125.686600,149.432159 113.273674,151.916824 
	C110.351723,152.501724 107.333076,152.855637 104.356354,152.872818 
	C88.034988,152.967026 71.712578,152.962128 55.391411,152.854843 
	C54.058491,152.846069 52.732288,151.815765 51.402969,151.260132 
	C52.701488,150.642456 53.941811,149.767776 55.310040,149.457947 
	C58.676559,148.695572 62.101898,148.192932 66.083771,147.129822 
	C67.405289,143.841553 68.763329,141.014877 68.789070,138.176147 
	C68.972893,117.900848 68.906807,97.623024 68.846161,77.346214 
	C68.840820,75.561707 68.306122,73.778770 68.017288,71.995110 
M83.228798,65.114616 
	C82.550911,66.013077 81.296303,66.903465 81.283600,67.811226 
	C81.143822,77.800201 81.159584,87.792313 81.276421,97.781898 
	C81.284943,98.511185 82.405235,99.227470 83.939194,100.055923 
	C89.596596,100.015854 95.269043,100.222328 100.907906,99.878326 
	C109.513252,99.353355 114.582069,95.572716 116.395889,88.901421 
	C119.243744,78.426964 113.929161,68.420807 103.354271,66.247437 
	C97.113541,64.964821 90.491104,65.539497 83.228798,65.114616 
M81.861603,138.695862 
	C81.975983,139.123138 82.090363,139.550415 82.179749,140.641083 
	C82.720253,141.579437 83.260765,142.517776 84.065414,144.079590 
	C88.286392,148.783875 93.963387,148.278244 99.403679,148.137604 
	C113.206276,147.780792 121.175011,139.778168 121.422455,126.310097 
	C121.646782,114.099686 112.824203,104.889641 99.239204,103.688522 
	C93.312569,103.688522 87.385933,103.688522 81.914711,103.688522 
	C81.914711,115.485001 81.914711,126.757858 81.861603,138.695862 
z"/>
<path fill="#FDF7F7" opacity="1.000000" stroke="none" 
	d="
M145.540710,62.247696 
	C155.981949,62.247757 165.981140,62.179977 175.977020,62.331211 
	C177.253586,62.350529 178.512863,63.511734 179.780151,64.143936 
	C178.542068,64.798035 177.354050,65.883278 176.057465,66.033867 
	C169.355072,66.812256 167.133957,68.869705 167.085190,75.552612 
	C166.980606,89.882324 166.837845,104.218185 167.136078,118.542671 
	C167.457947,134.002686 175.943878,144.124878 191.239670,146.291122 
	C197.999054,147.248428 205.305878,146.867050 211.977890,145.370834 
	C224.551193,142.551270 231.499939,132.806183 231.859436,118.800087 
	C232.175751,106.476959 232.042267,94.139618 231.957550,81.809586 
	C231.869324,68.968430 230.810852,67.814293 216.576370,65.429993 
	C218.454941,63.895008 219.446945,62.379478 220.465607,62.361336 
	C230.460571,62.183369 240.460464,62.213833 250.457214,62.332573 
	C251.260239,62.342110 252.050247,63.446945 252.846313,64.042793 
	C252.143753,64.730415 251.548340,65.826729 250.722275,66.043304 
	C241.008911,68.590012 239.746643,70.080788 239.708786,79.990822 
	C239.664246,91.655182 239.703476,103.319847 239.697052,114.984375 
	C239.684036,138.615311 227.090622,153.157013 203.607849,155.029831 
	C195.172638,155.702576 186.177567,154.903931 178.044815,152.617981 
	C163.031830,148.398148 154.345840,135.776169 154.068787,120.018135 
	C153.828613,106.358109 153.996597,92.690880 153.987457,79.026833 
	C153.979797,67.602882 153.518631,67.084335 142.078354,65.801453 
	C140.744385,62.654362 142.420059,62.041306 145.540710,62.247696 
z"/>
<path fill="#CA2C37" opacity="1.000000" stroke="none" 
	d="
M67.808632,72.350212 
	C68.306122,73.778770 68.840820,75.561707 68.846161,77.346214 
	C68.906807,97.623024 68.972893,117.900848 68.789070,138.176147 
	C68.763329,141.014877 67.405289,143.841553 66.327034,146.824860 
	C66.349602,142.847977 66.994652,138.721786 67.019569,134.591843 
	C67.132103,115.938110 67.053345,97.283302 67.092682,78.628975 
	C67.096848,76.654076 67.423126,74.679855 67.808632,72.350212 
z"/>
<path fill="#C51924" opacity="1.000000" stroke="none" 
	d="
M82.204742,139.977692 
	C82.090363,139.550415 81.975983,139.123138 82.110764,138.013290 
	C82.547913,129.870636 82.811333,122.411514 82.906105,114.950241 
	C83.045921,103.943024 81.810783,105.027504 92.719727,104.879494 
	C95.154137,104.846458 97.581314,104.280006 100.011818,103.959145 
	C112.824203,104.889641 121.646782,114.099686 121.422455,126.310097 
	C121.175011,139.778168 113.206276,147.780792 99.403679,148.137604 
	C93.963387,148.278244 88.286392,148.783875 83.954453,143.414978 
	C83.297241,141.826141 82.750992,140.901917 82.204742,139.977692 
z"/>
<path fill="#C51A24" opacity="1.000000" stroke="none" 
	d="
M84.040314,65.278923 
	C90.491104,65.539497 97.113541,64.964821 103.354271,66.247437 
	C113.929161,68.420807 119.243744,78.426964 116.395889,88.901421 
	C114.582069,95.572716 109.513252,99.353355 100.907906,99.878326 
	C95.269043,100.222328 89.596596,100.015854 83.431206,99.538910 
	C82.903847,92.871170 82.727722,86.715706 82.913673,80.571205 
	C83.068130,75.467087 83.648575,70.375862 84.040314,65.278923 
z"/>
<path fill="#CA2D36" opacity="1.000000" stroke="none" 
	d="
M99.625511,103.823837 
	C97.581314,104.280006 95.154137,104.846458 92.719727,104.879494 
	C81.810783,105.027504 83.045921,103.943024 82.906105,114.950241 
	C82.811333,122.411514 82.547913,129.870636 82.137314,137.680725 
	C81.914711,126.757858 81.914711,115.485001 81.914711,103.688522 
	C87.385933,103.688522 93.312569,103.688522 99.625511,103.823837 
z"/>
<path fill="#CC353F" opacity="1.000000" stroke="none" 
	d="
M83.634552,65.196770 
	C83.648575,70.375862 83.068130,75.467087 82.913673,80.571205 
	C82.727722,86.715706 82.903847,92.871170 82.965927,99.485840 
	C82.405235,99.227470 81.284943,98.511185 81.276421,97.781898 
	C81.159584,87.792313 81.143822,77.800201 81.283600,67.811226 
	C81.296303,66.903465 82.550911,66.013077 83.634552,65.196770 
z"/>
<path fill="#CA2D36" opacity="1.000000" stroke="none" 
	d="
M82.192245,140.309387 
	C82.750992,140.901917 83.297241,141.826141 83.822388,143.103241 
	C83.260765,142.517776 82.720253,141.579437 82.192245,140.309387 
z"/>
</svg>