<?xml version="1.0" encoding="UTF-8"?><svg id="a" xmlns="http://www.w3.org/2000/svg" viewBox="0 0 1024 1024"><path d="M411.97,21.86l131.6.11c25.04.04,58.64-.61,83.13,1.2,89.2,5.8,174.05,39.94,241.71,97.26,68.15,57.99,114.53,136.71,131.71,223.6,6.78,33.99,9.1,69.79,8.09,104.35-2.04,69.2,4.65,140.01-4.63,208.75-10.3,76.31-43.09,146.97-94.09,205.34-68.86,77.8-165.01,127.36-269.39,138.83-30.79,3.26-60.13,1.52-91.09,1.46l-145.06-.09c-23.1,0-65.72-1.18-87.55.6l-1.38.12v-147s-.05-90.84-.05-90.84l189.85.09c36.49.06,80.39,1.28,115.96-1.7,43.53-5.19,81.44-30.97,108.04-62.86,45.94-53.2,38.48-125.56,39.55-190.66.54-33.08.32-69.56-3.32-102.7-5.23-47.58-29.82-88.4-68.63-117.52-22.66-16.74-49.28-27.59-77.36-31.52-26.98-3.77-86.03-2.05-116.19-2.04l-211.92-.02-180.98-.05-54.43-.06c-10.49,0-25.61-.35-35.72.97l.11-235.39c41.25-.76,85.41.03,126.98,0l265.08-.25Z" fill="#10233f"/><path d="M19.91,312.09c4.69.46,9.87.54,14.6.57,74.86.51,149.87-.83,224.72.02-.9,17.33-.14,43.14-.18,61.19l.02,130.21.27,323.72c.08,57.52,1.18,117.92.06,175.1-47.31-.73-96.09-.18-143.49-.21-28.42-.01-68.48-1.13-96.02.69l.03-691.29Z" fill="#10233f"/></svg>