<?xml version="1.0" encoding="UTF-8"?>
<svg id="Layer_1" xmlns="http://www.w3.org/2000/svg" version="1.1" viewBox="0 0 160 102">
  <!-- Generator: Adobe Illustrator 29.5.1, SVG Export Plug-In . SVG Version: 2.1.0 Build 141)  -->
  <defs>
    <style>
      .st0 {
        stroke: #dd8697;
      }

      .st0, .st1, .st2 {
        fill: none;
        stroke-width: .2px;
      }

      .st3 {
        fill: #013d9f;
      }

      .st4 {
        fill: #ba0c2f;
      }

      .st1 {
        stroke: #809ecf;
      }

      .st5 {
        fill: #fff;
      }

      .st2 {
        stroke: #dd6c1a;
      }

      .st6 {
        fill: #ffcb04;
      }
    </style>
  </defs>
  <g>
    <path class="st1" d="M13.1,4.5s0,0,0,0l48.3,35.8s0,0,0,0V4.5s0,0,0,0H13.1" vector-effect="non-scaling-stroke"/>
    <path class="st0" d="M154.1,4.6s0,0,0,0h-84.8s0,0,0,0v36.5s0,0,0,0L154.1,4.6" vector-effect="non-scaling-stroke"/>
    <path class="st1" d="M57.8,47s0,0,0,0L5.8,8.4s0,0,0,0v38.6s0,0,0,0h52" vector-effect="non-scaling-stroke"/>
    <path class="st0" d="M75.5,51s0,0,0,0c0,0,0,0,0,0-1.4,1.3-3,2.8-5,4.5,0,0,0,0,0,0h64.8c.1,0,.2,0,.3,0,3.2-1.5,6.5-3,9.7-4.5,0,0,0,0,0,0s0,0,0,0c-3.2-1.5-6.5-3-9.7-4.5,0,0-.2,0-.3,0h-64.8s0,0,0,0c1.9,1.7,3.6,3.2,5,4.5,0,0,0,0,0,0,0,0,0,0,0,0" vector-effect="non-scaling-stroke"/>
    <path class="st1" d="M57.8,55.1s0,0,0,0H5.8s0,0,0,0v38.6s0,0,0,0l52-38.6" vector-effect="non-scaling-stroke"/>
    <path class="st0" d="M154.1,97.5s0,0,0,0l-84.9-36.5s0,0,0,0v36.5s0,0,0,0h84.9" vector-effect="non-scaling-stroke"/>
    <path class="st1" d="M13.1,97.4s0,0,0,0h48.3s0,0,0,0v-35.9s0,0,0,0L13.1,97.4" vector-effect="non-scaling-stroke"/>
    <path class="st0" d="M134.8,8.7s0,0,0,0h-62.3s0,0,0,0v26.5s0,0,0,0l62.3-26.5" vector-effect="non-scaling-stroke"/>
    <path class="st2" d="M77.9,51s0,0,0,0c0,0,0,0,0,0-1,.9-2,1.8-3,2.7,0,0,0,0,0,0,37.1,0,57.1,0,60.2,0,.2,0,.3,0,.5-.1,3.1-1.4,5.1-2.3,5.9-2.7,0,0,0,0,0,0s0,0,0,0c-.8-.4-2.8-1.3-5.9-2.7-.2,0-.3-.1-.5-.1-3,0-23.1,0-60.2,0,0,0,0,0,0,0,1,.9,2,1.8,3,2.7,0,0,0,0,0,0,0,0,0,0,0,0" vector-effect="non-scaling-stroke"/>
    <path class="st0" d="M134.8,93.3l-62.3-26.5s0,0,0,0v26.5s0,0,0,0h62.3s0,0,0,0" vector-effect="non-scaling-stroke"/>
  </g>
  <path class="st5" d="M160,0v102H0V0h160ZM13.1,4.5s0,0,0,0l48.3,35.8s0,0,0,0V4.5s0,0,0,0H13.1ZM154.1,4.6s0,0,0,0h-84.8s0,0,0,0v36.5s0,0,0,0L154.1,4.6ZM57.8,47s0,0,0,0L5.8,8.4s0,0,0,0v38.6s0,0,0,0h52ZM75.5,51s0,0,0,0c0,0,0,0,0,0-1.4,1.3-3,2.8-5,4.5,0,0,0,0,0,0h64.8c.1,0,.2,0,.3,0,3.2-1.5,6.5-3,9.7-4.5,0,0,0,0,0,0s0,0,0,0c-3.2-1.5-6.5-3-9.7-4.5,0,0-.2,0-.3,0h-64.8s0,0,0,0c1.9,1.7,3.6,3.2,5,4.5,0,0,0,0,0,0,0,0,0,0,0,0ZM57.8,55.1s0,0,0,0H5.8s0,0,0,0v38.6s0,0,0,0l52-38.6ZM154.1,97.5s0,0,0,0l-84.9-36.5s0,0,0,0v36.5s0,0,0,0h84.9ZM13.1,97.4s0,0,0,0h48.3s0,0,0,0v-35.9s0,0,0,0L13.1,97.4Z"/>
  <path class="st3" d="M13.1,4.5h48.3s0,0,0,0v35.8s0,0,0,0L13.1,4.6s0,0,0,0Z"/>
  <path class="st4" d="M154.1,4.6l-84.8,36.5s0,0,0,0V4.5s0,0,0,0h84.8s0,0,0,0ZM134.8,8.7s0,0,0,0h-62.3s0,0,0,0v26.5s0,0,0,0l62.3-26.5Z"/>
  <path class="st3" d="M57.8,47H5.8s0,0,0,0V8.4s0,0,0,0l52,38.6s0,0,0,0Z"/>
  <path class="st5" d="M134.8,8.7l-62.3,26.5s0,0,0,0V8.7s0,0,0,0h62.3s0,0,0,0Z"/>
  <path class="st4" d="M145.4,51s0,0,0,0c-3.2,1.5-6.5,3-9.7,4.5,0,0-.2,0-.3,0h-64.8s0,0,0,0c1.9-1.7,3.6-3.2,5-4.5,0,0,0,0,0,0,0,0,0,0,0,0s0,0,0,0c0,0,0,0,0,0-1.4-1.3-3-2.8-5-4.5,0,0,0,0,0,0h64.8c.1,0,.2,0,.3,0,3.2,1.5,6.5,3,9.7,4.5,0,0,0,0,0,0ZM77.9,51s0,0,0,0c0,0,0,0,0,0-1,.9-2,1.8-3,2.7,0,0,0,0,0,0,37.1,0,57.1,0,60.2,0,.2,0,.3,0,.5-.1,3.1-1.4,5.1-2.3,5.9-2.7,0,0,0,0,0,0s0,0,0,0c-.8-.4-2.8-1.3-5.9-2.7-.2,0-.3-.1-.5-.1-3,0-23.1,0-60.2,0,0,0,0,0,0,0,1,.9,2,1.8,3,2.7,0,0,0,0,0,0,0,0,0,0,0,0Z"/>
  <path class="st6" d="M141.4,51s0,0,0,0c-.8.4-2.8,1.3-5.9,2.7-.2,0-.3.1-.5.1-3,0-23.1,0-60.2,0,0,0,0,0,0,0,1-.9,2-1.8,3-2.7,0,0,0,0,0,0,0,0,0,0,0,0s0,0,0,0c0,0,0,0,0,0-1-.9-2-1.8-3-2.7,0,0,0,0,0,0,37.1,0,57.1,0,60.2,0,.2,0,.3,0,.5.1,3.1,1.4,5.1,2.3,5.9,2.7,0,0,0,0,0,0Z"/>
  <path class="st3" d="M57.8,55.1L5.8,93.6s0,0,0,0v-38.6s0,0,0,0h52s0,0,0,0Z"/>
  <path class="st4" d="M154.1,97.5h-84.9s0,0,0,0v-36.5s0,0,0,0l84.9,36.5s0,0,0,0ZM134.8,93.3l-62.3-26.5s0,0,0,0v26.5s0,0,0,0h62.3s0,0,0,0Z"/>
  <path class="st3" d="M13.1,97.4l48.3-35.9s0,0,0,0v35.9s0,0,0,0H13.1s0,0,0,0Z"/>
  <path class="st5" d="M134.8,93.3s0,0,0,0h-62.3s0,0,0,0v-26.5s0,0,0,0l62.3,26.5Z"/>
</svg>