<?xml version="1.0" encoding="UTF-8"?><svg id="a" xmlns="http://www.w3.org/2000/svg" viewBox="0 0 1119.4663 234.5902"><path d="M426.0046,3.1753h51.3949c33.3647,0,55.7763,24.0967,55.7763,60.9999,0,21.2321-7.4143,38.2514-20.8951,48.5303-9.4363,7.0774-21.569,10.9532-36.7345,10.9532h-49.5415V3.1753h-.0002ZM473.9448,99.2249c19.6404,0,29.799-12.3602,29.799-34.5403,0-22.0107-10.6666-36.2331-29.4604-36.2331h-17.9473v70.7734h17.6087Z" fill="#10233f"/><path d="M536.7466,81.1445c0-25.359,17.7351-44.7516,43.5918-44.7516,12.0994,0,21.7126,3.9778,29.0058,10.6078,10.1105,9.2817,15.083,24.0333,14.9171,41.2711h-60.9948c1.6571,11.4366,7.9557,18.5635,19.0608,18.5635,7.1269,0,11.768-3.1491,14.0883-8.453h26.354c-1.8234,7.6242-6.7959,14.9175-14.2542,20.0555-7.1273,4.9725-15.7462,7.7902-26.5195,7.7902-28.0115,0-45.2493-19.3926-45.2493-45.0834h0ZM597.1846,71.421c-1.0112-10.2787-7.4142-16.8504-16.3452-16.8504-10.447,0-15.8392,6.5717-17.6929,16.8504h34.0381Z" fill="#10233f"/><path d="M630.742,37.7194h26.1188v11.7956h.5319c5.3922-8.4493,13.6489-14.3471,26.1183-14.3471,11.2896,0,24.2646,15.1896,24.2646,15.1896h.7383c6.7096-10.3998,15.9353-15.0966,27.0059-15.0966,19.4576,0,29.1862,13.2513,29.1862,32.541v55.8567h-27.8038v-51.2255c0-9.2679-3.9261-14.6601-12.291-14.6601-8.8771,0-13.8277,7.2455-13.8277,17.5247v48.3609h-26.9613v-51.2255c0-9.2679-3.9265-14.6601-12.2913-14.6601-8.7061,0-13.8275,7.2455-13.8275,17.5247v48.3609h-26.9613V37.7195h0Z" fill="#10233f"/><path d="M773.9739,37.7194h26.9613v10.953h.1596c5.8978-8.2806,14.3232-13.5045,26.1179-13.5045,22.9173,0,36.9031,19.7154,36.9031,45.665,0,27.9721-14.9971,45.8337-37.577,45.8337-11.1209,0-19.0411-4.3814-24.4329-11.4335h-.3283v37.0718h-27.8038V37.7194h.0001ZM836.312,81.8442c0-14.8288-5.5604-24.6019-17.356-24.6019-11.9634,0-18.0299,10.6157-18.0299,24.6019s6.7403,23.5907,18.5359,23.5907c10.447,0,16.85-8.931,16.85-23.5907h0Z" fill="#10233f"/><path d="M865.1348,95.8547h25.687c1.001,8.507,6.672,12.677,15.679,12.677,8.173,0,13.344-3.0025,13.344-8.507,0-7.6725-10.3419-8.5065-21.684-10.5081-14.845-2.502-30.6902-6.505-30.6902-26.521,0-18.0141,16.6792-27.3546,36.8621-27.3546,24.1852,0,37.1952,10.5081,38.5301,27.3546h-25.02c-1.001-7.6725-6.1711-10.0076-13.6771-10.0076-6.672,0-11.843,2.502-11.843,7.8395,0,6.0046,9.6741,6.8386,20.5161,8.8401,15.012,2.502,32.6921,6.3385,32.6921,28.189,0,18.6811-16.5122,28.3556-38.8632,28.3556-25.02,0-40.699-11.509-41.533-30.3575h.0002Z" fill="#10233f"/><path d="M947.634,81.1445c0-25.359,17.7347-44.7516,43.591-44.7516,12.0994,0,21.7134,3.9778,29.0062,10.6078,10.1101,9.2817,15.0826,24.0333,14.9175,41.2711h-60.9956c1.6575,11.4366,7.9557,18.5635,19.0612,18.5635,7.127,0,11.7676-3.1491,14.0887-8.453h26.3531c-1.8226,7.6242-6.795,14.9175-14.2538,20.0555-7.127,4.9725-15.7462,7.7902-26.5199,7.7902-28.0107,0-45.2485-19.3926-45.2485-45.0834h0ZM1008.0717,71.421c-1.0112-10.2787-7.4142-16.8504-16.3448-16.8504-10.4478,0-15.8396,6.5717-17.6934,16.8504h34.0382Z" fill="#10233f"/><path d="M1039.3742,131.2414h9.453c8.1036,0,11.3109-3.2073,11.3109-9.1158,0-3.7138-1.6881-8.7783-5.2334-17.8941l-25.4904-66.5121h28.856l11.5924,36.6251c2.6875,8.4004,5.3759,19.8251,5.3759,19.8251h.3363s2.3521-11.4247,5.0403-19.8251l11.2561-36.6251h27.595l-29.7821,87.3273c-6.899,20.1912-15.1437,27.2582-32.4745,27.2582h-17.8353v-21.0635h-.0001Z" fill="#10233f"/><path d="M446.9568,170.7215h12.4711l20.9512,59.446h-12.5542l-3.9905-12.6373h-21.4506l-3.9074,12.6373h-12.2218l20.7023-59.446h0ZM445.2108,208.3017h15.7133l-5.321-17.1273c-.9976-3.1595-2.4108-9.1454-2.4108-9.1454h-.1666s-1.4963,5.9858-2.4939,9.1454l-5.321,17.1273h0Z" fill="#10233f"/><path d="M598.3504,222.1856h-.1662c-4.0741,6.8177-9.6444,9.2293-16.7113,9.2293-8.9791,0-15.963-3.2426-20.8685-8.6467-4.9051-5.4872-7.7318-13.1367-7.7318-22.1159,0-9.8933,3.4915-18.54,9.7271-24.2765,4.8224-4.4069,11.141-6.8177,19.1225-6.8177,14.9654,0,23.529,8.2304,25.4412,19.8705h-11.8063c-1.33-5.7365-5.7365-9.8941-13.3856-9.8941-11.2237,0-16.7945,9.3124-16.7945,21.1178,0,12.1387,6.4022,21.0347,16.6282,21.0347,9.2289,0,15.2978-6.9008,15.2978-13.4683v-.3332h-14.3002v-9.3116h25.0257v31.5936h-9.0627l-.4155-7.9819h.0001Z" fill="#10233f"/><path d="M689.9323,170.7215h43.7319v10.1434h-31.6763v13.3029h27.7689v9.8933h-27.7689v16.0461h31.926v10.0603h-43.9816v-59.446h0Z" fill="#10233f"/><path d="M814.4214,170.7215h12.221l19.7882,33.1734c1.9122,3.2426,4.1568,8.3143,4.1568,8.3143h.1662s-.3324-6.1529-.3324-10.3096v-31.1781h11.8894v59.446h-11.6401l-20.286-32.841c-1.913-3.1587-4.2407-8.2304-4.2407-8.2304h-.1662s.3324,6.2351.3324,10.3927v30.6787h-11.8885v-59.446h-.0001Z" fill="#10233f"/><path d="M942.2267,200.6522c0-17.6259,10.9744-31.0942,28.5172-31.0942,14.6326,0,23.2794,8.7298,24.5267,20.0367h-11.9725c-1.0803-5.9858-5.5703-9.8933-12.5542-9.8933-10.9744,0-16.2123,9.1454-16.2123,20.9508,0,12.1387,6.3191,20.8685,16.2954,20.8685,7.067,0,12.0555-4.2399,12.8035-10.4758h11.8063c-.3324,5.2379-2.577,10.3096-6.5684,14.0508-4.0737,3.8243-9.8102,6.3191-18.0414,6.3191-16.7109,0-28.6003-12.8874-28.6003-30.7626h0Z" fill="#10233f"/><path d="M1087.2935,207.2206l-19.7874-36.4991h13.1367l8.9791,17.6259c1.8291,3.575,3.9073,8.4805,3.9073,8.4805h.1663s2.2446-4.9055,3.9905-8.4805l8.8129-17.6259h12.6373l-19.7874,36.4991v22.9469h-12.0555v-22.9469h.0001Z" fill="#10233f"/><path d="M93.716.0242l31.4498.0263c5.9841.0096,14.0138-.1458,19.8664.2868,21.317,1.3861,41.5944,9.5449,57.7638,23.2432,16.2865,13.8584,27.3704,32.6709,31.476,53.4359,1.6203,8.1229,2.1747,16.6784,1.9334,24.9376-.4875,16.5374,1.1113,33.4596-1.1065,49.887-2.4615,18.2366-10.2976,35.1229-22.4856,49.0721-16.4562,18.5926-39.4341,30.4365-64.3788,33.1776-7.3582.7791-14.3699.3633-21.7687.3489l-34.6664-.0215c-5.5204,0-15.7058-.282-20.9227.1434l-.3298.0287v-35.13l-.0119-21.7089,45.3703.0215c8.7204.0143,19.2116.3059,27.7121-.4063,10.4028-1.2403,19.4625-7.4012,25.8194-15.0223,10.9787-12.7137,9.1959-30.0063,9.4517-45.5639.129-7.9055.0765-16.6234-.7934-24.5432-1.2499-11.3707-7.1264-21.1258-16.4012-28.0849-5.4153-4.0005-11.7769-6.5935-18.4875-7.5326-6.4477-.901-20.5594-.4899-27.7671-.4875l-50.6446-.0048-43.2506-.0119-13.0077-.0143c-2.5069,0-6.1203-.0836-8.5364.2318L.0263.0794c9.8579-.1816,20.4113.0072,30.3457,0l63.3488-.0597-.0048.0048v-.0003Z" fill="#10233f"/><path d="M.0216,69.3833c1.1208.1099,2.3587.1291,3.4891.1362,17.89.1219,35.8159-.1984,53.7036.0048-.2151,4.1415-.0335,10.3096-.043,14.6232l.0048,31.1176.0645,77.3626c.0191,13.7461.282,28.1805.0143,41.8454-11.3061-.1745-22.9636-.043-34.2912-.0502-6.7918-.0024-16.3653-.27-22.9468.1649l.0072-165.2044h-.0025Z" fill="#10233f"/><line x1="331.1585" x2="331.1585" y2="234.5877" fill="none" stroke="#10233f" stroke-miterlimit="10" stroke-width="3"/></svg>