<svg xmlns="http://www.w3.org/2000/svg" xmlns:xlink="http://www.w3.org/1999/xlink" viewBox="0,0,256,256" width="100px" height="100px" fill-rule="nonzero"><g fill="#fcc419" fill-rule="nonzero" stroke="none" stroke-width="1" stroke-linecap="butt" stroke-linejoin="miter" stroke-miterlimit="10" stroke-dasharray="" stroke-dashoffset="0" font-family="none" font-weight="none" font-size="none" text-anchor="none" style="mix-blend-mode: normal"><g transform="scale(2.56,2.56)"><path d="M53.21094,14.53125c-1.29006,-0.02433 -2.70098,0.13185 -4.14453,0.46484c-2.57338,-0.86395 -5.38329,-0.32063 -7.58789,0.4043c-2.1111,0.69418 -3.4423,1.46905 -3.67578,1.60156c-0.74357,-0.04351 -10.07416,-0.4362 -14.92773,6.67578c-2.69053,2.5332 -3.57585,3.78511 -4.83398,4.43359c-1.67473,0.86321 -4.38858,2.96561 -5.37695,6.31836c-1.20179,1.01412 -1.82252,1.92867 -2.17383,2.75977c-0.37696,0.89179 -0.54631,1.59988 -1.32031,2.75195c-1.68516,2.5083 -3.49582,5.56445 -3.16211,10.46289c-1.30609,7.1723 -0.17366,12.30294 3.33594,15.35156c0.00195,0.00131 0.0039,0.00261 0.00586,0.00391c2.56465,2.19786 5.06996,2.21266 6.81641,2.19531c0.22196,1.71613 0.75406,3.82675 1.99805,5.79102c1.44849,2.28718 3.88108,4.25111 7.33594,4.25391c1.77657,0.05483 2.79667,0.05566 3.37305,0.04102c0.17149,-0.0044 0.24659,-0.01128 0.35352,-0.01758c0.28131,0.32434 0.63916,0.84514 1.82617,1.4668c1.19407,0.62535 2.98676,0.8842 5.04102,0.64063c-1.12054,3.52467 -2.54883,8.07031 -2.54883,8.07031c-0.08928,0.28525 -0.04629,0.59548 0.11719,0.8457c0,0 0.12378,0.17086 0.26953,0.34961c-0.05042,0.71787 0.44219,1.00353 1.17188,1c0.83938,0.47834 2.16258,0.72568 3.41797,-0.04297c1.28712,-0.78809 2.15968,-2.09323 2.91211,-3.38672c0.75243,-1.29349 1.37987,-2.61556 1.9043,-3.41992c0.66715,-1.02327 1.48145,-2.69487 2.30273,-4.23047c0.41064,-0.7678 0.81754,-1.49364 1.17383,-2.04687c0.35629,-0.55324 0.74184,-0.93798 0.72266,-0.92578c0.42261,-0.26873 1.72138,-0.85876 3.02148,-1.85937c1.10723,-0.85217 2.18626,-2.15814 2.95117,-3.8457c5.55297,1.34685 11.90951,2.67612 17.05078,-0.81055c2.42113,-1.64194 4.05318,-2.48332 5.23047,-3.23828c0.58864,-0.37748 1.08284,-0.74033 1.47656,-1.22461c0.39373,-0.48428 0.64226,-1.09113 0.72461,-1.73828c0.11341,-0.89128 0.32496,-1.38147 0.4668,-1.625c0.03188,-0.05474 0.04291,-0.05962 0.06641,-0.0918c0.26017,-0.05177 1.311,-0.25797 2.87109,-0.61328c1.74045,-0.39638 3.72841,-0.88314 4.9668,-1.36523c2.50595,-0.97554 5.06338,-3.72068 5.53125,-7.41406c1.66433,-1.26424 2.67747,-2.64101 3.07422,-4.08594c0.40274,-1.46671 0.25907,-2.90794 0.04688,-4.32617c0.86328,-1.40218 0.9984,-2.83782 0.71484,-3.85937c-0.24476,-0.88177 -0.55605,-1.20823 -0.74805,-1.46094c0.0043,-0.73744 -0.16565,-6.52292 -6.32227,-9.54883c-2.25116,-3.39784 -4.33026,-5.05409 -5.94531,-5.76172c-0.8174,-0.35814 -1.50591,-0.48083 -2.01953,-0.50781c-0.23689,-0.60133 -0.63554,-1.39189 -1.42773,-2.27148c-1.3594,-1.50938 -3.8333,-3.03931 -7.83398,-3.59766c-4.81198,-3.92383 -10.47268,-1.61695 -11.48437,-1.1543c-0.49746,-0.227 -2.96034,-1.34087 -6.73828,-1.41211zM53.1582,16.5332c3.66968,0.06805 6.4082,1.36719 6.4082,1.36719c0.2801,0.13509 0.6071,0.13221 0.88477,-0.00781c0,0 5.60628,-2.82906 9.89648,0.86523c0.15054,0.1293 0.33615,0.21088 0.5332,0.23438c3.8341,0.46108 5.81927,1.84062 6.90039,3.04102c0.64998,0.72169 0.94564,1.3209 1.09375,1.70898c-1.88098,2.02499 -3.68359,2.58074 -5.06836,2.67187c-1.47401,0.09701 -2.39648,-0.32617 -2.39648,-0.32617c-0.32624,-0.14883 -0.7072,-0.11161 -0.99846,0.09757c-0.29126,0.20917 -0.44824,0.55827 -0.41144,0.91497c0.0368,0.3567 0.26176,0.66639 0.58959,0.81168c0,0 1.40666,0.62579 3.34766,0.49805c1.86098,-0.12248 4.28427,-0.97098 6.5332,-3.45117c0.04527,-0.00104 0.00818,-0.00626 0.09961,-0.00195c0.28151,0.01324 0.73397,0.08329 1.3418,0.34961c1.21566,0.53264 3.07515,1.87334 5.24805,5.23633c0.10235,0.15802 0.24723,0.28394 0.41797,0.36328c5.86965,2.72519 5.42383,8.03516 5.42383,8.03516c-0.01524,0.25918 0.07091,0.51412 0.24023,0.71094c0,0 0.36714,0.43213 0.56055,1.12891c0.19341,0.69678 0.24249,1.53346 -0.5918,2.60547c-0.16934,0.21747 -0.24142,0.4952 -0.19922,0.76758c0.2233,1.43407 0.32621,2.65963 0.02734,3.74805c-0.29886,1.08841 -0.97302,2.13024 -2.61328,3.2793c-0.2457,0.17195 -0.40127,0.44509 -0.42383,0.74414c-0.22881,3.04883 -2.56868,5.44319 -4.36523,6.14258c-0.96562,0.37591 -2.977,0.89018 -4.68555,1.2793c-0.80013,0.18223 -0.91157,0.197 -1.47266,0.31445c0.13968,-0.50009 0.28173,-1.05273 0.40039,-1.6875c0.17137,-0.91677 0.29934,-1.95023 0.2793,-3.00391c0.73984,-0.10192 1.83817,-0.30804 2.95117,-0.77539c0.92479,-0.38832 1.86845,-0.95263 2.49609,-1.88867c0.62764,-0.93604 0.81753,-2.24553 0.33984,-3.63281c-0.7744,-2.24902 -0.99134,-3.73876 -0.93555,-4.60937c0.0558,-0.87061 0.26941,-1.06108 0.51563,-1.21289c0.38645,-0.23013 0.57172,-0.68993 0.4528,-1.12371c-0.11892,-0.43377 -0.51279,-0.7348 -0.96257,-0.73567c-0.19158,-0.00081 -0.37937,0.05342 -0.54102,0.15625c-0.79179,0.48819 -1.37699,1.47917 -1.46094,2.78906c-0.08395,1.30989 0.21842,2.99969 1.04102,5.38867c0.32082,0.93172 0.19,1.41584 -0.11133,1.86523c-0.30133,0.4494 -0.89434,0.86073 -1.60742,1.16016c-0.93298,0.39176 -1.80834,0.54404 -2.42969,0.62695c-0.12043,-0.48635 -0.28184,-0.96576 -0.51172,-1.42578c-0.96776,-1.93665 -2.5822,-3.53845 -3.7832,-5.09766c-1.201,-1.5592 -1.928,-2.92053 -1.63086,-4.40625c0.36274,-1.81369 2.92969,-3.13672 2.92969,-3.13672c0.43032,-0.18558 0.67407,-0.64507 0.58641,-1.10543c-0.08766,-0.46036 -0.48323,-0.79811 -0.95164,-0.81254c-0.15695,-0.00491 -0.31285,0.02721 -0.45508,0.09375c0,0 -3.43305,1.38205 -4.07031,4.56836c-0.46586,2.32928 0.69636,4.31948 2.00586,6.01953c1.30949,1.70005 2.82684,3.26413 3.58008,4.77148c0.68749,1.37579 0.62754,3.44353 0.30664,5.16016c-0.28697,1.53515 -0.68638,2.60009 -0.77734,2.83789c-0.12308,0.13268 -0.26174,0.30938 -0.40234,0.55078c-0.29441,0.50547 -0.58302,1.26423 -0.72461,2.37695c-0.04515,0.35485 -0.11982,0.5175 -0.29297,0.73047c-0.17315,0.21297 -0.49005,0.47321 -1.00391,0.80273c-1.02772,0.65904 -2.76761,1.56757 -5.27148,3.26563c-4.29451,2.91242 -10.00311,1.84836 -15.48047,0.5293c0.00713,-0.00724 0.01831,-0.0182 0.02539,-0.02539c-4.846,-2.719 -8.02338,-0.91578 -12.48437,-2.67578c-4.461,-1.76 -11.53481,-1.44248 -16.25781,-0.77148c-4.723,0.67 -8.20703,0.76953 -8.20703,0.76953c0,0 0,0.00389 0,0.00391c-0.01171,-0.00086 -0.02343,-0.00151 -0.03516,-0.00195c-1.88309,0 -3.9609,0.2827 -6.34375,-1.75586c-2.85533,-2.48029 -3.94101,-6.69728 -2.67383,-13.5625c0.01585,-0.08562 0.02044,-0.17295 0.01367,-0.25977c-0.33926,-4.30512 1.0503,-6.67597 2.64453,-9.06641c0.23265,0.09784 0.53169,0.24547 0.80273,0.45898c0.53194,0.41905 0.90947,0.81611 0.5957,1.91016c-0.11127,0.34729 -0.02468,0.72763 0.22597,0.99252c0.25065,0.26489 0.62562,0.37236 0.97853,0.28043c0.35291,-0.09192 0.62781,-0.36866 0.71738,-0.72217c0.52224,-1.82095 -0.35174,-3.3025 -1.2793,-4.0332c-0.36059,-0.28406 -0.71775,-0.47489 -1.03906,-0.625c0.31321,-0.66164 0.50694,-1.21665 0.68945,-1.64844c0.30179,-0.71396 0.58749,-1.23133 1.78906,-2.18555c0.17301,-0.13685 0.29593,-0.32706 0.34961,-0.54102c0.68077,-2.7222 3.17586,-4.67705 4.48828,-5.35352c1.78744,-0.9213 2.68968,-2.3107 5.28906,-4.75781c0.057,-0.0538 0.10747,-0.11411 0.15039,-0.17969c3.71712,-5.65792 11.23907,-5.97431 13.10352,-5.96289l2.70898,3.47852c0.2188,0.28126 0.57072,0.42486 0.92383,0.37695c0,0 1.2816,-0.17324 2.73438,-0.125c1.45278,0.04824 2.97292,0.4592 3.36719,0.92578c0.22523,0.28951 0.59088,0.43248 0.95275,0.37255c0.36187,-0.05993 0.6619,-0.31315 0.78178,-0.65981c0.11988,-0.34666 0.04036,-0.73113 -0.20719,-1.0018c-1.19774,-1.41742 -3.1789,-1.58 -4.82812,-1.63477c-1.32191,-0.04389 -2.04629,0.06507 -2.46094,0.11328l-1.94531,-2.49805c0.64091,-0.30611 1.53896,-0.69669 2.57422,-1.03711c2.07415,-0.68203 4.63077,-1.09026 6.54102,-0.36328c0.19234,0.07264 0.4024,0.08423 0.60156,0.0332c1.36323,-0.34489 2.68888,-0.45823 3.91211,-0.43555zM58.54883,23.96875c-1.45667,0.01759 -2.55664,0.66992 -2.55664,0.66992c-0.3159,0.17741 -0.51114,0.5118 -0.51038,0.87411c0.00077,0.36231 0.19742,0.69587 0.51407,0.87194c0.31665,0.17607 0.70376,0.16712 1.01193,-0.0234c0,0 1.5266,-0.8968 2.9668,-0.00977c0.83774,0.51599 1.58319,1.27435 1.98633,2.10156c0.40313,0.82722 0.50633,1.68827 0.11133,2.67578c-0.52991,1.32499 -1.18608,2.02554 -1.91211,2.74805c-0.72603,0.72251 -1.57984,1.48276 -2.08789,2.75195c-1.1921,2.98025 0.32484,5.99217 2.72656,7.6875c2.40172,1.69534 5.82813,2.27304 8.71484,0.54102c0.31974,-0.17699 0.51748,-0.51429 0.51574,-0.87975c-0.00174,-0.36545 -0.20268,-0.70086 -0.52408,-0.8748c-0.32141,-0.17394 -0.7121,-0.15872 -1.019,0.0397c-2.11329,1.26797 -4.68688,0.84568 -6.53516,-0.45898c-1.84828,-1.30466 -2.83134,-3.29275 -2.02344,-5.3125c0.32296,-0.8068 0.87361,-1.31093 1.64258,-2.07617c0.76897,-0.76524 1.69833,-1.77581 2.35742,-3.42383c0.605,-1.51249 0.43744,-3.04864 -0.16992,-4.29492c-0.60736,-1.24628 -1.61216,-2.23773 -2.73242,-2.92773c-0.61895,-0.38123 -1.24414,-0.57215 -1.83203,-0.64453c-0.22046,-0.02714 -0.43644,-0.03767 -0.64453,-0.03516zM32,26c0,0 -1.4795,-0.0015 -3.2793,0.39844c-1.79979,0.39995 -4.00739,1.18387 -5.48828,2.96094c-0.18581,0.22289 -0.26564,0.51549 -0.21879,0.80186c0.04685,0.28637 0.21578,0.53827 0.46293,0.69032c3.44798,2.12184 6.34755,2.13608 8.61328,1.42969c2.26573,-0.70639 3.96469,-1.9715 5.18555,-2.32031c1.42594,-0.40741 2.47754,-0.01259 3.4707,0.84766c0.99316,0.86025 1.81376,2.23466 2.32031,3.55078c0.19848,0.51561 0.77736,0.7727 1.29297,0.57422c0.51561,-0.19848 0.7727,-0.77736 0.57422,-1.29297c-0.59345,-1.54188 -1.52207,-3.1685 -2.87891,-4.34375c-1.35684,-1.17525 -3.25601,-1.8504 -5.33008,-1.25781c-1.83114,0.52318 -3.38225,1.75837 -5.22852,2.33398c-1.49914,0.46739 -3.29133,0.32105 -5.49219,-0.64844c0.96715,-0.63423 2.0656,-1.13198 3.15039,-1.37305c1.57521,-0.35005 2.8457,-0.35156 2.8457,-0.35156c0.36064,0.0051 0.69608,-0.18438 0.87789,-0.49587c0.18181,-0.3115 0.18181,-0.69676 0,-1.00825c-0.18181,-0.3115 -0.51725,-0.50097 -0.87789,-0.49587zM37.53125,35.95508c-1.06464,0.04842 -1.99531,0.49187 -2.76758,1.00586c-1.54454,1.02799 -2.56836,2.44531 -2.56836,2.44531c-0.2172,0.28723 -0.26321,0.66904 -0.12046,0.99965c0.14274,0.3306 0.4522,0.55894 0.8102,0.59782c0.358,0.03888 0.70926,-0.11771 0.91964,-0.40996c0,0 0.89895,-1.19174 2.06641,-1.96875c0.58373,-0.38851 1.20664,-0.64717 1.75,-0.67187c0.54335,-0.02471 1.04169,0.1103 1.66406,0.74609c1.60899,1.6437 3.16632,3.02326 5.11719,3.70898c1.95087,0.68573 4.21444,0.59009 6.95898,-0.47656c0.34743,-0.11858 0.60197,-0.41796 0.6631,-0.77994c0.06114,-0.36198 -0.08096,-0.72836 -0.37018,-0.95446c-0.28922,-0.2261 -0.67906,-0.27557 -1.01558,-0.12888c-2.45045,0.95235 -4.10989,0.96715 -5.57227,0.45313c-1.46238,-0.51402 -2.80855,-1.6444 -4.35156,-3.2207c-0.95363,-0.9742 -2.11895,-1.39412 -3.18359,-1.3457zM22.0332,38.98633c-0.03321,-0.001 -0.06646,-0.00035 -0.09961,0.00195c-0.33497,0.02003 -0.63757,0.20671 -0.80575,0.49709c-0.16818,0.29038 -0.17952,0.64576 -0.03019,0.94627c0,0 0.34727,0.7432 0.51563,1.57422c0.08418,0.41551 0.11313,0.83836 0.06641,1.13867c-0.04672,0.30032 -0.12532,0.44134 -0.27734,0.55469c-0.97938,0.7302 -1.76059,1.82804 -2.07422,3.14063c-0.31362,1.31259 -0.10807,2.84928 0.85156,4.23047c1.0187,1.46619 2.63173,2.1352 4.10742,2.67188c1.32899,0.48332 2.47286,0.90353 3.24023,1.39258c-0.02592,1.51373 0.37721,2.78194 1.00586,3.78711c-1.30564,0.24273 -2.58397,0.48921 -3.84375,0.75195c-0.80823,-0.28186 -1.89423,-0.69215 -3.18945,-1.32227c-2.22681,-1.08331 -4.50845,-2.72046 -5.06445,-4.20312c-0.30001,-0.79991 -0.2296,-2.02576 -0.01953,-3.0293c0.21007,-1.00354 0.50977,-1.74023 0.50977,-1.74023c0.13389,-0.31345 0.09892,-0.67352 -0.09278,-0.95535c-0.19171,-0.28183 -0.51376,-0.44662 -0.85448,-0.43723c-0.40156,0.01078 -0.7577,0.26077 -0.9043,0.63477c0,0 -0.36825,0.89868 -0.61719,2.08789c-0.24893,1.18921 -0.42857,2.71349 0.10742,4.14258c0.944,2.51733 3.66235,4.13019 6.06055,5.29688c0.18271,0.08889 0.34787,0.15356 0.52734,0.23633c-1.91345,0.35787 -3.67468,0.61647 -5.15234,0.61523c-7.155,-0.006 -5,-10 -5,-10c-2.261,2.247 -2.527,5.617 -1,9c1.81,3.365 4.91,4.112 9,4c4.09,-0.112 13.535,-2.377 22,0c1.285,0.482 2.129,1.2053 4.5,1.4043c7.133,0.046 8.12766,1.61941 13.09766,2.56641c2.379,0.402 5.27834,0.2543 6.40234,0.0293c3.976,-0.794 9,-5 9,-5c0,0 -3.911,1.29091 -8.30664,2.05664c0.47815,-0.90201 0.83478,-2.08812 0.80664,-3.57617c-0.00144,-0.27039 -0.11232,-0.52868 -0.30734,-0.71598c-0.19503,-0.1873 -0.45758,-0.28764 -0.72781,-0.27816c-0.55162,0.01914 -0.98345,0.48156 -0.96484,1.0332c0.03115,1.64731 -0.49265,2.63301 -1,3.25781c-0.31793,0.39153 -0.55864,0.57698 -0.72852,0.68945c-0.09024,0.00897 -0.18148,0.02502 -0.27148,0.0332c-3.78738,0.34431 -10.58814,-1.31635 -15.77344,-3.93359c0.52486,-0.41313 1.04148,-0.91557 1.35156,-1.61719c0.32007,-0.72421 0.29005,-1.72436 -0.25391,-2.51562c-0.76772,-1.11678 -1.47524,-2.0681 -1.84766,-2.99414c-0.29472,-0.73284 -0.41225,-1.44568 -0.23047,-2.35547c1.27947,0.54097 2.84776,0.91602 4.75391,0.91602h3.58008c0.20805,0.3654 0.28816,0.68639 0.99609,1.21875c0.93988,0.70677 2.51192,1.10154 4.46289,0.78516c0.61568,0.8737 1.40495,1.53046 2.28711,1.85547c1.07982,0.39783 2.21149,0.45726 3.24023,0.38867c2.05749,-0.13717 3.79297,-0.81445 3.79297,-0.81445c0.51561,-0.19848 0.7727,-0.77736 0.57422,-1.29297c-0.19848,-0.51561 -0.77736,-0.7727 -1.29297,-0.57422c0,0 -1.51452,0.57271 -3.20703,0.68555c-0.84626,0.05642 -1.71458,-0.0092 -2.41602,-0.26758c-0.70143,-0.25842 -1.23858,-0.6627 -1.62305,-1.43164c-0.21211,-0.42474 -0.69361,-0.64182 -1.15234,-0.51953c-1.84847,0.49275 -2.82772,0.06504 -3.46484,-0.41406c-0.63712,-0.4791 -0.85547,-1.00586 -0.85547,-1.00586c-0.15577,-0.3714 -0.51913,-0.61312 -0.92187,-0.61328h-4c-3.01923,0 -4.87944,-1.01748 -6.03711,-2.00977c-1.15767,-0.99229 -1.54883,-1.89648 -1.54883,-1.89648c-0.11093,-0.24962 -0.31914,-0.443 -0.57626,-0.53522c-0.25712,-0.09222 -0.54077,-0.07526 -0.78507,0.04694c0,0 -1.94496,0.95934 -3.79102,1.42188c-1.6948,0.39914 -2.5467,-0.01386 -3.09766,-0.45898c-0.55204,-0.446 -0.72852,-0.91992 -0.72852,-0.91992c-0.13914,-0.38797 -0.50205,-0.65085 -0.91406,-0.66211c-0.33523,-0.00875 -0.65254,0.15109 -0.84503,0.42569c-0.19249,0.2746 -0.23455,0.62739 -0.112,0.93954c0,0 0.37179,0.98819 1.34375,1.77344c0.97196,0.78525 2.61974,1.36951 4.82227,0.84766c0.00391,-0.00063 0.00782,-0.00128 0.01172,-0.00195c1.70137,-0.42534 2.7122,-0.95576 3.32422,-1.24609c0.33494,0.49608 0.85133,1.14712 1.5957,1.78516c0.23021,0.19733 0.4913,0.39256 0.76758,0.58398c-0.43121,1.54054 -0.28036,2.92551 0.18945,4.09375c0.51233,1.27396 1.32437,2.31369 2.05664,3.37891c0.20605,0.29973 0.17602,0.34387 0.07422,0.57422c-0.1018,0.23035 -0.40538,0.57999 -0.80078,0.88672c-0.21818,0.16925 -0.45137,0.32073 -0.67969,0.45703c-0.26161,-0.15957 -0.52272,-0.31983 -0.76953,-0.48437c-3.46065,-2.35044 -8.35409,-2.22525 -13.30273,-1.45898c-0.83865,-0.77882 -1.42323,-1.98747 -1.20312,-3.92773c0.03955,-0.34626 -0.10401,-0.68813 -0.37891,-0.90234c-1.2152,-0.94885 -2.75848,-1.34358 -4.14453,-1.84766c-1.38605,-0.50408 -2.55509,-1.07678 -3.15039,-1.93359c-0.65436,-0.94181 -0.74075,-1.81359 -0.54687,-2.625c0.19387,-0.81141 0.71959,-1.55311 1.32422,-2.00391c0.63997,-0.47715 0.95682,-1.1935 1.05859,-1.84766c0.10178,-0.65415 0.03179,-1.28189 -0.08203,-1.84375c-0.22765,-1.12373 -0.67187,-2.04102 -0.67187,-2.04102c-0.15708,-0.34213 -0.49297,-0.56707 -0.86914,-0.58203zM18.98242,67.00195c0.38977,-0.00656 0.76364,0.215 0.93164,0.59375c0.041,0.092 0.11806,0.61609 0.28906,1.37109c0.299,1.322 1.04764,3.58675 3.30664,4.71875c1.435,0.719 3.44844,0.96389 6.27344,0.33789c0.334,-0.074 0.68183,0.02753 0.92383,0.26953c1.791,1.791 3.60597,1.70703 6.29297,1.70703c0.552,0 1,0.448 1,1c0,0.552 -0.448,1 -1,1c-2.61014,0 -4.51836,-0.06538 -6.29102,-1.16797l-0.00195,-0.00195c-0.27412,-0.25295 -0.4082,-0.43164 -0.4082,-0.43164c-0.24666,-0.32804 -0.66871,-0.47208 -1.06445,-0.36328c0,0 0.11478,-0.02138 0.05273,-0.01562c-0.06205,0.0058 -0.2047,0.01683 -0.46484,0.02344c-0.52029,0.0132 -1.50657,0.01267 -3.29102,-0.04297c-0.01042,-0.00016 -0.02083,-0.00016 -0.03125,0c-2.72614,-0.0022 -4.44173,-1.41994 -5.64648,-3.32227c-1.04209,-1.64546 -1.57809,-3.62269 -1.76953,-5.07227c0.09604,-0.22304 0.27055,-0.4116 0.50977,-0.51758c0.12625,-0.05575 0.25875,-0.08375 0.38867,-0.08594z"></path></g></g></svg>