<svg xmlns="http://www.w3.org/2000/svg" xmlns:xlink="http://www.w3.org/1999/xlink" viewBox="0,0,256,256" width="72px" height="72px" fill-rule="evenodd"><g fill="#fcc419" fill-rule="evenodd" stroke="none" stroke-width="1" stroke-linecap="butt" stroke-linejoin="miter" stroke-miterlimit="10" stroke-dasharray="" stroke-dashoffset="0" font-family="none" font-weight="none" font-size="none" text-anchor="none" style="mix-blend-mode: normal"><g transform="scale(10.66667,10.66667)"><path d="M11,13h0.956c2.233,0 4.044,-1.811 4.044,-4.044v-1.957c0,-0.552 0.448,-0.999 1,-0.999c0.4368,0 1,-0.3452 1,-1c0,-0.552 -0.448,-1 -1,-1c-0.40113,0 -1.33734,0.09334 -2.122,0.878c-0.562,0.562 -0.878,1.325 -0.878,2.12v2.009c0,1.1 -0.892,1.993 -1.993,1.993h-1.007v-6c0,-0.552 -0.448,-1 -1,-1c-0.548,0 -0.993,0.441 -1,0.987v0.013v6h-1.007c-1.101,0 -1.993,-0.893 -1.993,-1.993v-2.007c0,-0.796 -0.316,-1.559 -0.879,-2.121c-0.554,-0.554 -1.302,-0.869 -2.084,-0.879c-0.58553,0 -1.037,0.42995 -1.037,1c0,0.552 0.448,1 1,1c0.4371,0 1,0.34555 1,0.999v1.957c0,2.233 1.811,4.044 4.044,4.044h0.956v5.012c0,0.546 0.442,0.988 0.988,0.988h0.024c0.546,0 0.988,-0.442 0.988,-0.988zM2.733,11.895c-0.457,-0.542 -0.733,-1.242 -0.733,-2.007v-2.059c-1.165,-0.412 -2,-1.524 -2,-2.829c0,-1.656 1.344,-3.00398 3,-3c1.80008,0.00432 3.57725,0.88222 4,2.97225c0,-1.656 1.344,-2.97225 3,-2.97225c1.656,0 3,1.344 3,3c0.16865,-1.61067 1.25924,-2.79344 2.998,-3c1.22417,-0.11965 2.1732,0.17577 3.148,0.904l2.037,1.496c0.514,0.377 0.817,0.976 0.817,1.614c-0.002,2.744 -0.005,10.358 -0.007,13.998c0,1.098 -0.891,1.988 -1.989,1.988h-9.885c-0.696,0 -1.342,-0.36 -1.709,-0.951z"></path></g></g></svg>