<svg xmlns="http://www.w3.org/2000/svg" xmlns:xlink="http://www.w3.org/1999/xlink" viewBox="0,0,255.99185,255.99185" width="48px" height="48px" fill-rule="nonzero"><defs><linearGradient x1="3.879" y1="3.879" x2="20.121" y2="20.121" gradientUnits="userSpaceOnUse" id="color-1"><stop offset="0" stop-color="#5c7cfa"></stop><stop offset="1" stop-color="#ffffff" stop-opacity="0.30196"></stop></linearGradient><linearGradient x1="3.879" y1="3.879" x2="20.121" y2="20.121" gradientUnits="userSpaceOnUse" id="color-2"><stop offset="0" stop-color="#5c7cfa"></stop><stop offset="0.493" stop-color="#ffffff" stop-opacity="0"></stop><stop offset="0.997" stop-color="#ffffff" stop-opacity="0.30196"></stop></linearGradient><linearGradient x1="5.74" y1="7.69" x2="16.525" y2="18.475" gradientUnits="userSpaceOnUse" id="color-3"><stop offset="0" stop-color="#ffffff" stop-opacity="0.70196"></stop><stop offset="0.519" stop-color="#ffffff" stop-opacity="0.45098"></stop><stop offset="1" stop-color="#ffffff" stop-opacity="0.54902"></stop></linearGradient></defs><g transform="translate(-12.79959,-12.79959) scale(1.1,1.1)"><g fill="none" fill-rule="nonzero" stroke="none" stroke-width="1" stroke-linecap="butt" stroke-linejoin="miter" stroke-miterlimit="10" stroke-dasharray="" stroke-dashoffset="0" font-family="none" font-weight="none" font-size="none" text-anchor="none" style="mix-blend-mode: normal"><g transform="scale(10.66667,10.66667)"><path d="M18,21h-12c-1.657,0 -3,-1.343 -3,-3v-12c0,-1.657 1.343,-3 3,-3h12c1.657,0 3,1.343 3,3v12c0,1.657 -1.343,3 -3,3z" fill="url(#color-1)"></path><path d="M18,3.5c1.378,0 2.5,1.121 2.5,2.5v12c0,1.379 -1.122,2.5 -2.5,2.5h-12c-1.378,0 -2.5,-1.121 -2.5,-2.5v-12c0,-1.379 1.122,-2.5 2.5,-2.5h12M18,3h-12c-1.657,0 -3,1.343 -3,3v12c0,1.657 1.343,3 3,3h12c1.657,0 3,-1.343 3,-3v-12c0,-1.657 -1.343,-3 -3,-3z" fill="url(#color-2)"></path><path d="M9,17h-2.523v-7h2.523zM7.694,8.717c-0.771,0 -1.286,-0.514 -1.286,-1.2c0,-0.686 0.514,-1.2 1.371,-1.2c0.771,0 1.286,0.514 1.286,1.2c0,0.686 -0.514,1.2 -1.371,1.2zM18,17h-2.442v-3.826c0,-1.058 -0.651,-1.302 -0.895,-1.302c-0.244,0 -1.058,0.163 -1.058,1.302c0,0.163 0,3.826 0,3.826h-2.523v-7h2.523v0.977c0.325,-0.57 0.976,-0.977 2.197,-0.977c1.221,0 2.198,0.977 2.198,3.174z" fill="url(#color-3)"></path></g></g></g></svg>