<svg xmlns="http://www.w3.org/2000/svg" xmlns:xlink="http://www.w3.org/1999/xlink" viewBox="0,0,256,256" width="144px" height="144px" fill-rule="nonzero"><g fill="#fcc419" fill-rule="nonzero" stroke="none" stroke-width="1" stroke-linecap="butt" stroke-linejoin="miter" stroke-miterlimit="10" stroke-dasharray="" stroke-dashoffset="0" font-family="none" font-weight="none" font-size="none" text-anchor="none" style="mix-blend-mode: normal"><g transform="scale(5.33333,5.33333)"><path d="M17.99,42c0.94,0 2,-0.756 2,-2v-8c-8.279,0 -15,-6.272 -15,-14v-6c0,-3.312 -1.792,-6 -4,-6v-2c5.519,0 10,4.032 10,9v3c0,6.624 4.033,13 9,13v-21c0,-1.244 -1.06,-2 -2,-2c-1.121,0 -2,-0.819 -2,-2h4l0.001,0.003v-0.003h12.023c0,1.181 -0.879,2 -2,2c-0.94,0 -2.024,0.756 -2.024,2v21c4.967,0 9.021,-6.376 9.021,-13v-3c0,-4.968 4.481,-9 10,-9v2c-2.208,0 -4,2.688 -4,6v6c0,7.728 -6.721,14 -15,14l-0.021,-0.011v8.011c0,1.244 1.084,2 2.024,2c1.121,0 2,0.819 2,2l-12.023,-0.001v-0.001l-0.001,0.002h-4c0,-1.181 0.879,-2 2,-2zM22.99,41v-33c0,-0.823 -0.305,-1.497 -0.765,-1.997l5.539,-0.001c0.605,-0.65 1.47,-1.002 2.25,-1.002l-12.011,0.003l0.515,0.049c0.621,0.12 1.243,0.447 1.707,0.951h0.028l-0.007,0.024c0.448,0.497 0.744,1.164 0.744,1.973v32c0,1.893 -1.609,3 -3,3h4.235c0.458,-0.499 0.765,-1.175 0.765,-2zM29.751,42.988c0.004,0.004 0.008,0.008 0.012,0.012h0.251c-0.087,0 -0.175,-0.004 -0.263,-0.012zM19.331,30.465c-0.243,-0.057 -0.485,-0.116 -0.727,-0.179c-1.395,-0.271 -2.701,-0.623 -4,-1.207c-4.427,-1.992 -7.577,-6.144 -7.629,-11.085c-0.024,-1.596 -0.068,-3.2 -0.072,-4.795c-0.001,-0.661 -0.011,-1.257 -0.059,-1.904c-0.129,-1.755 -0.865,-4.059 -2.361,-5.124c0.148,0.273 0.3,0.545 0.447,0.819c0.816,1.575 1.189,3.245 1.165,5.017c-0.028,1.597 -0.04,3.196 -0.073,4.793c-0.027,1.264 -0.035,2.393 0.219,3.64c0.907,4.452 4.293,8.028 8.559,9.477c1.261,0.428 3.21,0.872 4.531,0.548zM29.818,30.473c1.603,-0.259 3.06,-1.092 4.253,-2.171c2.747,-2.481 4.348,-6.395 4.789,-10.015c0.216,-1.773 0.105,-3.493 0.104,-5.281c-0.035,-2.513 1.349,-4.569 3.333,-6.003c0.409,-0.279 0.819,-0.559 1.228,-0.839c-0.704,0.279 -1.352,0.332 -1.971,0.781c-0.364,0.264 -0.695,0.48 -1.035,0.785c-1.331,1.199 -2.316,2.967 -2.437,4.773c-0.077,1.155 -0.044,2.333 -0.057,3.489c-0.077,4.784 -2.087,10.609 -6.355,13.228c-0.801,0.491 -1.631,0.817 -2.533,1.068c-0.159,0.063 -0.317,0.12 -0.476,0.18c0.449,0.089 0.7,0.079 1.157,0.005zM23.99,47c8.832,0 16,0.225 16,0.501c0,0.276 -7.168,0.501 -16,0.501c-8.832,0 -16,-0.225 -16,-0.501c0,-0.276 7.168,-0.501 16,-0.501z"></path></g></g></svg>