<?xml version="1.0" encoding="UTF-8" standalone="no"?>
<!DOCTYPE svg PUBLIC "-//W3C//DTD SVG 1.1//EN" "http://www.w3.org/Graphics/SVG/1.1/DTD/svg11.dtd">
<svg xmlns="http://www.w3.org/2000/svg" version="1.1" viewBox="0.00 0.00 900.00 900.00" width="900.00" height="900.00">
<g stroke-width="2.00" fill="none" stroke-linecap="butt">
<path stroke="#01071b" vector-effect="non-scaling-stroke" d="
  M 505.22 228.99
  Q 503.19 229.08 501.40 230.35"
/>
<path stroke="#01071b" vector-effect="non-scaling-stroke" d="
  M 377.67 229.18
  C 379.74 230.56 382.33 232.39 380.22 234.79"
/>
</g>
<path fill="#d51500" d="
  M 339.48 855.04
  C 225.84 824.74 126.04 747.96 70.69 643.30
  Q 63.50 629.70 54.76 609.77
  Q 33.15 560.49 26.50 505.94
  Q 25.75 499.78 24.99 493.64
  Q 24.06 486.07 23.95 481.31
  C 23.78 473.27 22.97 466.32 22.89 457.89
  Q 22.74 440.50 23.21 435.25
  C 23.99 426.52 23.84 419.91 24.93 411.67
  Q 25.02 410.96 26.00 401.49
  Q 32.07 343.15 55.62 286.62
  C 71.85 247.68 95.71 212.38 122.85 180.38
  Q 183.91 108.37 269.17 68.65
  Q 326.19 42.09 386.48 33.76
  Q 405.05 31.19 416.76 30.33
  Q 418.55 30.20 425.75 29.83
  Q 450.89 28.54 460.44 29.17
  Q 471.48 29.91 478.81 30.10
  C 485.13 30.26 489.44 31.03 497.50 31.87
  Q 530.67 35.30 561.24 43.32
  C 612.25 56.69 659.98 80.33 702.52 111.45
  C 754.45 149.43 798.50 198.86 827.49 256.38
  C 831.75 264.83 838.83 277.81 843.07 287.50
  Q 859.53 325.13 867.21 365.05
  C 870.07 379.93 872.50 395.58 873.73 411.74
  Q 875.24 431.56 875.30 451.00
  Q 875.31 454.99 874.62 470.60
  C 873.13 504.60 867.16 538.71 857.72 569.52
  Q 848.01 601.23 831.19 635.21
  C 791.45 715.51 723.11 781.37 643.04 822.53
  C 601.29 844.00 555.52 859.16 509.03 865.30
  Q 493.24 867.38 485.24 867.86
  Q 466.54 868.97 451.25 869.48
  C 439.16 869.88 427.01 868.43 415.44 868.02
  C 410.26 867.84 403.42 866.88 397.75 866.24
  Q 369.30 863.00 339.48 855.04
  Z
  M 427.38 97.56
  A 0.94 0.94 0.0 0 0 428.24 98.85
  L 439.64 98.96
  A 2.49 2.49 0.0 0 0 442.05 97.19
  L 443.46 92.56
  A 1.53 1.53 0.0 0 1 444.95 91.48
  L 458.78 91.61
  A 1.78 1.76 -9.3 0 1 460.42 92.78
  L 462.32 98.14
  A 1.42 1.41 -9.4 0 0 463.64 99.08
  L 475.92 99.20
  A 1.13 1.13 0.0 0 0 476.99 97.67
  L 460.84 54.47
  A 2.45 2.43 -10.5 0 0 458.52 52.89
  Q 454.26 52.96 447.34 52.84
  Q 444.75 52.80 444.19 54.28
  Q 433.60 82.23 427.38 97.56
  Z
  M 495.07 102.09
  Q 498.88 102.58 500.46 102.75
  A 1.52 1.52 0.0 0 0 502.13 101.47
  Q 504.24 87.96 506.01 71.02
  Q 506.31 68.18 508.89 68.49
  Q 517.52 69.56 519.49 69.71
  A 1.74 1.74 0.0 0 0 521.34 68.21
  L 522.45 60.00
  A 1.11 1.11 0.0 0 0 521.50 58.75
  Q 510.75 57.36 500.96 56.10
  Q 491.17 54.85 480.41 53.49
  A 1.11 1.11 0.0 0 0 479.18 54.46
  L 478.18 62.69
  A 1.74 1.74 0.0 0 0 479.60 64.60
  Q 481.54 64.95 490.16 66.09
  Q 492.74 66.44 492.31 69.27
  Q 489.76 86.11 488.40 99.71
  A 1.52 1.52 0.0 0 0 489.69 101.37
  Q 491.26 101.61 495.07 102.09
  Z
  M 417.2665 55.6949
  A 1.68 1.68 0.0 0 0 415.4227 54.1965
  L 404.6600 55.3087
  A 1.68 1.68 0.0 0 0 403.1616 57.1525
  L 407.5735 99.8451
  A 1.68 1.68 0.0 0 0 409.4173 101.3435
  L 420.1800 100.2313
  A 1.68 1.68 0.0 0 0 421.6784 98.3875
  L 417.2665 55.6949
  Z
  M 392.75 68.39
  C 389.04 62.92 385.90 60.14 379.10 59.53
  C 363.77 58.15 348.12 67.15 351.00 84.74
  C 353.27 98.63 359.97 109.10 375.72 107.66
  Q 384.30 106.87 391.06 102.32
  A 5.36 4.96 2.3 0 0 391.88 101.62
  Q 396.84 96.39 397.55 88.41
  A 1.15 1.14 -84.0 0 0 396.56 87.18
  L 387.05 85.89
  A 1.83 1.83 0.0 0 0 385.02 87.27
  C 384.09 91.03 383.47 94.32 379.98 95.70
  Q 377.59 96.65 373.87 96.46
  Q 369.92 96.25 367.78 91.76
  C 365.41 86.79 363.08 78.13 366.96 73.57
  C 370.79 69.05 377.40 69.29 381.17 73.56
  A 2.36 2.35 -33.9 0 0 384.00 74.11
  L 392.35 69.93
  A 1.06 1.06 0.0 0 0 392.75 68.39
  Z
  M 546.7102 66.1325
  A 1.65 1.65 0.0 0 0 545.4736 64.1536
  L 534.7556 61.6792
  A 1.65 1.65 0.0 0 0 532.7767 62.9157
  L 523.0498 105.0475
  A 1.65 1.65 0.0 0 0 524.2864 107.0264
  L 535.0044 109.5008
  A 1.65 1.65 0.0 0 0 536.9833 108.2643
  L 546.7102 66.1325
  Z
  M 598.6533 102.7295
  A 21.08 21.08 0.0 0 0 586.1016 75.6891
  L 580.5797 73.6683
  A 21.08 21.08 0.0 0 0 553.5393 86.2201
  L 551.5667 91.6105
  A 21.08 21.08 0.0 0 0 564.1184 118.6509
  L 569.6403 120.6717
  A 21.08 21.08 0.0 0 0 596.6807 108.1199
  L 598.6533 102.7295
  Z
  M 341.8057 86.7150
  A 20.96 20.96 0.0 0 0 314.4004 75.4193
  L 308.7319 77.7789
  A 20.96 20.96 0.0 0 0 297.4362 105.1842
  L 299.7343 110.7050
  A 20.96 20.96 0.0 0 0 327.1396 122.0007
  L 332.8081 119.6411
  A 20.96 20.96 0.0 0 0 344.1038 92.2358
  L 341.8057 86.7150
  Z
  M 620.06 114.81
  Q 620.73 117.26 620.89 118.81
  Q 621.50 124.68 623.12 142.63
  A 3.52 3.50 11.3 0 0 625.00 145.43
  L 633.52 149.91
  A 1.73 1.72 -61.7 0 0 635.83 149.21
  Q 647.33 128.34 655.72 113.71
  Q 656.96 111.55 656.38 109.41
  A 1.52 1.51 -83.8 0 0 655.61 108.44
  L 646.70 103.76
  A 1.70 1.70 0.0 0 0 644.40 104.48
  L 634.08 124.15
  A 0.74 0.74 0.0 0 1 632.69 123.88
  L 629.89 95.74
  A 1.16 1.15 -78.9 0 0 629.28 94.83
  L 619.02 89.45
  A 1.37 1.36 -62.2 0 0 617.18 90.03
  L 596.87 128.74
  A 1.28 1.27 27.9 0 0 597.41 130.47
  L 606.88 135.44
  A 1.27 1.27 0.0 0 0 608.60 134.90
  L 619.19 114.72
  A 0.47 0.47 0.0 0 1 620.06 114.81
  Z
  M 284.23 100.76
  C 282.66 99.44 280.85 97.10 278.50 96.26
  Q 273.73 94.57 268.98 95.89
  Q 259.86 98.43 253.38 104.82
  Q 249.77 108.38 249.11 114.19
  A 3.56 3.46 44.2 0 0 249.14 115.21
  Q 250.79 125.05 259.71 126.25
  C 264.82 126.94 271.79 124.46 275.75 123.75
  C 279.50 123.07 284.63 123.10 284.24 128.08
  A 2.48 2.38 -29.8 0 1 283.96 129.03
  C 281.44 133.82 276.32 135.59 271.67 132.38
  Q 270.45 131.54 269.39 130.76
  A 1.13 1.13 0.0 0 0 268.17 130.70
  L 259.02 135.98
  A 1.29 1.29 0.0 0 0 258.61 137.84
  Q 261.41 141.86 265.27 143.91
  Q 268.53 145.64 273.94 144.75
  C 285.23 142.89 299.66 133.94 296.37 120.76
  Q 294.66 113.93 288.42 111.47
  Q 284.12 109.77 277.33 111.09
  Q 272.58 112.01 266.28 113.75
  C 264.30 114.30 262.80 114.13 261.49 112.69
  A 2.28 2.26 -50.2 0 1 261.25 109.93
  Q 263.29 106.74 267.38 105.79
  C 269.72 105.25 271.09 107.87 273.22 107.94
  C 276.97 108.08 281.56 103.76 284.23 101.59
  A 0.54 0.54 0.0 0 0 284.23 100.76
  Z
  M 219.24 165.72
  C 223.29 169.95 230.23 172.60 236.10 170.33
  C 243.71 167.39 251.86 161.48 255.22 153.71
  Q 256.13 151.61 255.76 147.80
  Q 254.87 138.80 247.50 135.92
  C 244.11 134.60 238.90 134.82 235.70 135.95
  Q 223.56 140.24 222.39 140.64
  Q 220.62 141.24 220.00 140.88
  C 218.00 139.75 217.46 137.66 219.05 135.63
  Q 221.14 132.95 224.60 132.15
  A 1.36 1.34 -38.3 0 1 225.50 132.25
  L 228.05 133.46
  A 3.96 3.95 -48.4 0 0 231.87 133.23
  Q 236.01 130.62 239.59 126.18
  A 1.18 1.17 39.6 0 0 239.43 124.53
  C 235.18 120.95 230.36 120.03 224.77 122.08
  C 216.75 125.04 204.37 133.77 206.68 143.79
  C 209.04 154.02 217.55 155.08 226.19 152.17
  Q 232.31 150.12 238.50 148.22
  C 241.68 147.25 244.06 150.69 243.54 153.36
  A 2.92 2.88 -24.0 0 1 243.18 154.28
  Q 237.78 162.81 229.18 156.57
  A 1.00 0.99 41.7 0 0 227.94 156.64
  L 219.29 164.47
  A 0.88 0.86 -43.2 0 0 219.24 165.72
  Z
  M 194.28 258.29
  Q 136.55 333.39 130.68 428.66
  C 130.31 434.71 130.44 440.17 130.43 447.09
  C 130.38 469.20 132.90 491.02 137.63 514.10
  Q 147.08 560.23 171.00 600.53
  C 199.25 648.13 239.29 688.46 286.46 716.57
  Q 314.30 733.16 346.59 743.42
  Q 410.18 763.62 475.78 758.12
  C 553.01 751.63 625.79 717.51 679.29 660.71
  Q 686.37 653.19 690.17 648.91
  C 733.65 600.04 758.88 537.55 764.81 472.48
  Q 770.47 410.30 751.87 351.36
  Q 749.41 343.58 744.68 331.39
  Q 739.49 318.04 736.42 311.83
  C 703.14 244.32 646.52 190.24 577.80 159.67
  Q 535.69 140.93 490.59 135.52
  C 438.63 129.29 383.71 135.02 334.33 153.37
  Q 310.64 162.17 291.61 173.36
  C 254.31 195.28 220.68 223.94 194.28 258.29
  Z
  M 711.9483 177.6933
  A 21.20 21.20 0.0 0 0 710.5360 147.7452
  L 706.1574 143.7610
  A 21.20 21.20 0.0 0 0 676.2094 145.1733
  L 672.2117 149.5667
  A 21.20 21.20 0.0 0 0 673.6240 179.5148
  L 678.0026 183.4990
  A 21.20 21.20 0.0 0 0 707.9506 182.0867
  L 711.9483 177.6933
  Z
  M 189.51 211.67
  Q 194.55 208.13 198.45 203.39
  A 2.93 2.93 0.0 0 0 198.88 200.39
  L 196.84 195.56
  A 0.96 0.95 55.2 0 1 197.02 194.54
  Q 201.37 189.87 205.96 185.46
  C 208.87 182.68 211.48 185.61 213.86 187.00
  A 2.17 2.16 -50.9 0 0 216.41 186.73
  L 225.46 178.54
  A 1.05 1.04 -53.3 0 0 225.21 176.82
  L 181.84 156.19
  A 1.01 1.01 0.0 0 0 180.73 156.35
  L 170.30 165.79
  A 1.67 1.66 -32.9 0 0 169.89 167.67
  L 188.35 211.33
  A 0.78 0.78 0.0 0 0 189.51 211.67
  Z
  M 732.07 192.45
  L 736.58 188.36
  A 1.04 1.04 0.0 0 1 738.05 188.43
  L 750.63 202.33
  A 1.66 1.66 0.0 0 0 753.08 202.35
  L 757.61 197.49
  A 1.53 1.53 0.0 0 0 757.63 195.42
  L 736.18 171.72
  A 1.50 1.50 0.0 0 0 734.13 171.56
  Q 717.68 184.78 701.15 200.66
  A 1.71 1.71 0.0 0 0 700.94 202.89
  Q 704.65 208.13 709.05 211.60
  A 1.57 1.57 0.0 0 0 711.08 211.54
  L 723.49 200.30
  A 0.93 0.92 -42.2 0 1 724.80 200.36
  L 735.11 211.75
  A 2.45 2.44 45.4 0 0 738.71 211.78
  L 741.91 208.35
  A 2.42 2.42 0.0 0 0 741.93 205.07
  L 731.98 194.08
  A 1.15 1.15 0.0 0 1 732.07 192.45
  Z
  M 122.20 281.96
  A 0.85 0.85 0.0 0 1 121.40 281.38
  L 114.04 259.53
  A 0.85 0.85 0.0 0 0 112.43 259.53
  L 105.00 281.35
  A 0.85 0.85 0.0 0 1 104.20 281.93
  L 81.15 282.17
  A 0.85 0.85 0.0 0 0 80.65 283.70
  L 99.11 297.52
  A 0.85 0.85 0.0 0 1 99.41 298.45
  L 92.52 320.46
  A 0.85 0.85 0.0 0 0 93.82 321.41
  L 112.66 308.12
  A 0.85 0.85 0.0 0 1 113.65 308.12
  L 132.44 321.47
  A 0.85 0.85 0.0 0 0 133.75 320.53
  L 126.93 298.50
  A 0.85 0.85 0.0 0 1 127.24 297.57
  L 145.75 283.82
  A 0.85 0.85 0.0 0 0 145.25 282.29
  L 122.20 281.96
  Z
  M 794.47 284.09
  A 1.07 1.07 0.0 0 1 793.46 283.35
  L 786.42 261.87
  A 1.07 1.07 0.0 0 0 784.38 261.87
  L 777.34 283.35
  A 1.07 1.07 0.0 0 1 776.33 284.09
  L 753.72 284.15
  A 1.07 1.07 0.0 0 0 753.09 286.08
  L 771.35 299.42
  A 1.07 1.07 0.0 0 1 771.73 300.61
  L 764.81 322.13
  A 1.07 1.07 0.0 0 0 766.45 323.32
  L 784.77 310.08
  A 1.07 1.07 0.0 0 1 786.03 310.08
  L 804.35 323.32
  A 1.07 1.07 0.0 0 0 805.99 322.13
  L 799.07 300.61
  A 1.07 1.07 0.0 0 1 799.45 299.42
  L 817.71 286.08
  A 1.07 1.07 0.0 0 0 817.08 284.15
  L 794.47 284.09
  Z
  M 74.10 392.41
  A 0.53 0.52 8.4 0 1 74.54 393.00
  L 72.48 408.17
  A 1.35 1.35 0.0 0 0 73.59 409.68
  L 80.10 410.77
  A 1.26 1.26 0.0 0 0 81.55 409.74
  L 84.07 394.76
  A 1.97 1.96 -80.3 0 1 86.33 393.15
  L 90.74 393.89
  A 1.96 1.95 9.8 0 1 92.34 396.15
  L 90.18 408.69
  A 1.57 0.09 -86.0 0 1 90.16 408.86
  L 89.81 413.54
  A 1.84 1.84 0.0 0 0 91.39 415.50
  L 97.13 416.27
  A 2.14 2.14 0.0 0 0 99.52 414.56
  Q 102.45 399.42 104.02 382.96
  A 1.49 1.48 -83.4 0 0 102.74 381.34
  L 59.29 375.45
  A 1.49 1.49 0.0 0 0 57.61 376.73
  L 56.05 388.23
  A 1.17 1.16 8.7 0 0 57.01 389.53
  L 74.10 392.41
  Z
  M 838.59 418.01
  Q 842.60 416.93 846.33 413.31
  Q 849.25 410.48 849.97 405.11
  Q 851.53 393.41 846.51 383.98
  C 844.18 379.59 837.01 375.46 831.82 376.58
  C 819.44 379.24 818.99 391.12 818.20 401.22
  C 818.05 403.06 816.70 406.54 814.45 406.29
  Q 812.70 406.10 811.61 404.36
  C 809.77 401.42 809.93 397.83 812.73 395.58
  Q 814.22 394.38 814.73 393.77
  A 0.83 0.80 -30.0 0 0 814.91 393.14
  L 813.40 382.12
  A 1.10 1.10 0.0 0 0 812.02 381.21
  Q 807.25 382.51 804.12 386.46
  Q 801.98 389.16 801.72 395.44
  C 801.28 405.90 804.09 419.22 817.19 418.96
  C 823.42 418.84 827.84 413.17 828.82 407.50
  Q 830.69 396.65 831.15 394.47
  C 831.77 391.57 835.16 388.46 838.21 391.10
  C 841.52 393.96 842.28 398.34 839.81 401.88
  C 839.04 402.97 836.78 403.85 835.82 404.44
  A 1.64 1.61 -11.3 0 0 835.06 405.56
  Q 834.65 407.97 834.96 409.04
  Q 836.55 414.57 837.22 417.21
  A 1.11 1.11 0.0 0 0 838.59 418.01
  Z
  M 99.0556 443.5848
  A 21.35 21.35 0.0 0 0 77.9303 422.0124
  L 71.9906 421.9502
  A 21.35 21.35 0.0 0 0 50.4182 443.0755
  L 50.3644 448.2152
  A 21.35 21.35 0.0 0 0 71.4897 469.7876
  L 77.4294 469.8498
  A 21.35 21.35 0.0 0 0 99.0018 448.7245
  L 99.0556 443.5848
  Z
  M 833.52 454.46
  C 833.66 451.63 835.04 450.22 837.63 448.85
  Q 845.14 444.88 851.54 441.25
  A 2.03 2.02 -14.8 0 0 852.56 439.51
  L 852.68 427.00
  A 1.02 1.02 0.0 0 0 851.25 426.06
  Q 850.89 426.22 842.95 429.68
  Q 836.52 432.49 832.97 437.87
  A 0.74 0.74 0.0 0 1 831.65 437.72
  C 828.96 430.27 821.63 426.59 814.23 429.10
  Q 806.43 431.74 806.20 441.02
  Q 805.85 455.48 805.85 468.35
  A 1.31 1.31 0.0 0 0 807.15 469.66
  Q 825.69 469.75 833.23 470.13
  C 839.39 470.44 844.14 469.98 851.24 469.70
  A 1.36 1.36 0.0 0 0 852.55 468.35
  L 852.66 457.45
  A 1.32 1.32 0.0 0 0 851.36 456.12
  L 834.94 455.96
  A 1.43 1.42 1.7 0 1 833.52 454.46
  Z
  M 77.82 513.18
  C 79.99 516.26 82.83 519.93 85.60 520.46
  Q 91.29 521.55 96.78 519.14
  C 98.88 518.23 101.39 515.78 101.80 513.77
  Q 103.32 506.37 101.87 497.50
  Q 99.37 482.17 98.91 478.55
  A 0.87 0.86 82.4 0 0 97.94 477.80
  L 53.33 483.92
  A 1.02 1.02 0.0 0 0 52.46 485.07
  L 54.10 496.99
  A 1.38 1.38 0.0 0 0 55.66 498.18
  L 72.06 495.93
  A 1.12 1.12 0.0 0 1 73.32 496.83
  C 74.05 500.54 72.23 501.31 69.19 503.66
  Q 63.13 508.32 57.53 512.48
  A 2.38 2.37 -22.4 0 0 56.60 514.70
  L 58.39 527.76
  A 1.09 1.09 0.0 0 0 60.07 528.52
  Q 66.63 524.12 71.26 520.55
  C 73.90 518.52 75.04 516.52 76.86 513.24
  A 0.57 0.56 -48.3 0 1 77.82 513.18
  Z
  M 814.21 481.47
  A 1.87 1.87 0.0 0 0 812.66 479.37
  L 806.70 478.37
  A 1.87 1.87 0.0 0 0 804.54 479.96
  L 799.82 514.81
  A 1.87 1.87 0.0 0 0 801.42 516.91
  L 844.19 522.72
  A 1.87 1.87 0.0 0 0 846.29 521.12
  L 851.07 485.93
  A 1.87 1.87 0.0 0 0 849.47 483.83
  L 843.00 482.95
  A 1.87 1.87 0.0 0 0 840.90 484.55
  L 838.05 505.51
  A 1.87 1.87 0.0 0 1 835.95 507.11
  L 829.88 506.28
  A 1.87 1.87 0.0 0 1 828.28 504.18
  L 830.78 485.77
  A 1.87 1.87 0.0 0 0 829.18 483.67
  L 823.92 482.96
  A 1.87 1.87 0.0 0 0 821.82 484.56
  L 819.36 502.73
  A 1.87 1.87 0.0 0 1 817.26 504.33
  L 813.07 503.76
  A 1.87 1.87 0.0 0 1 811.47 501.66
  L 814.21 481.47
  Z
  M 95.85 542.24
  A 0.48 0.47 -62.1 0 1 96.12 543.13
  L 68.81 558.90
  A 2.05 2.04 -23.4 0 0 67.87 561.25
  L 70.09 568.63
  A 1.84 1.84 0.0 0 0 71.94 569.93
  L 104.54 568.29
  A 0.45 0.45 0.0 0 1 104.69 569.17
  L 74.03 578.41
  A 1.34 1.33 -18.7 0 0 73.16 580.16
  L 76.35 588.70
  A 1.41 1.41 0.0 0 0 78.07 589.56
  Q 100.55 582.90 115.13 578.11
  Q 118.67 576.95 120.71 576.02
  A 0.92 0.91 69.5 0 0 121.20 574.93
  L 116.61 559.71
  A 1.77 1.77 0.0 0 0 115.00 558.45
  Q 111.75 558.30 109.50 558.51
  Q 96.64 559.71 88.51 559.82
  Q 87.30 559.83 87.52 558.93
  A 0.54 0.53 -9.0 0 1 87.79 558.57
  L 111.01 545.16
  A 1.05 1.04 66.9 0 0 111.49 543.95
  L 106.68 527.97
  A 1.54 1.53 73.1 0 0 104.77 526.94
  L 62.68 539.62
  A 1.60 1.60 0.0 0 0 61.61 541.61
  C 62.34 544.03 62.97 548.49 64.79 550.54
  A 1.57 1.55 -29.7 0 0 66.46 550.99
  Q 79.76 546.64 89.29 543.79
  Q 93.99 542.39 95.85 542.24
  Z
  M 830.14 532.54
  A 1.62 1.62 0.0 0 0 828.00 533.03
  L 822.24 541.37
  A 1.58 1.57 -59.1 0 0 822.81 543.67
  Q 829.01 546.86 828.05 552.52
  Q 827.40 556.32 825.14 558.23
  C 820.93 561.79 811.78 559.43 807.36 557.16
  C 803.57 555.21 800.79 551.52 801.63 547.39
  Q 802.78 541.78 808.60 540.72
  A 1.93 1.93 0.0 0 0 809.87 539.90
  Q 811.33 537.72 811.08 535.90
  Q 810.49 531.75 810.83 528.65
  A 1.31 1.30 89.7 0 0 809.38 527.21
  C 797.43 528.70 791.87 537.31 790.18 548.49
  C 788.60 558.94 794.92 568.05 804.61 571.73
  C 815.05 575.70 828.15 575.33 834.62 564.87
  C 837.80 559.73 838.48 555.44 839.58 549.25
  Q 840.02 546.76 838.91 543.45
  Q 836.45 536.13 830.14 532.54
  Z
  M 824.5053 593.3810
  A 1.76 1.76 0.0 0 0 823.5327 591.0899
  L 783.1817 574.7870
  A 1.76 1.76 0.0 0 0 780.8905 575.7595
  L 776.8747 585.6990
  A 1.76 1.76 0.0 0 0 777.8473 587.9901
  L 818.1983 604.2930
  A 1.76 1.76 0.0 0 0 820.4895 603.3205
  L 824.5053 593.3810
  Z
  M 116.96 605.74
  A 1.79 1.78 -26.2 0 1 117.77 603.38
  L 121.28 601.63
  A 1.65 1.65 0.0 0 1 123.50 602.37
  L 132.61 620.54
  A 2.39 2.37 -26.0 0 0 135.77 621.62
  L 140.63 619.29
  A 2.21 2.21 0.0 0 0 141.65 616.31
  L 125.94 584.93
  A 1.19 1.18 63.7 0 0 124.37 584.39
  L 84.88 603.33
  A 1.88 1.88 0.0 0 0 83.99 605.83
  Q 90.93 620.40 96.66 631.62
  Q 98.59 635.39 100.28 638.01
  A 1.40 1.40 0.0 0 0 102.07 638.50
  Q 105.70 636.70 107.30 635.79
  Q 110.01 634.23 108.45 631.35
  Q 103.96 623.02 99.85 613.48
  A 1.32 1.32 0.0 0 1 100.49 611.77
  L 106.63 608.83
  A 1.20 1.20 0.0 0 1 108.22 609.37
  L 116.81 626.53
  A 1.87 1.86 -26.1 0 0 119.28 627.37
  L 124.20 625.01
  A 1.81 1.81 0.0 0 0 125.05 622.60
  L 116.96 605.74
  Z
  M 773.21 619.12
  A 1.50 1.50 0.0 0 1 772.52 617.07
  L 781.03 600.85
  A 1.50 1.50 0.0 0 0 780.34 598.80
  L 774.01 595.79
  A 1.50 1.50 0.0 0 0 772.04 596.45
  L 757.10 624.92
  A 1.50 1.50 0.0 0 0 757.73 626.95
  L 796.16 647.10
  A 1.50 1.50 0.0 0 0 798.12 646.57
  L 803.82 637.57
  A 1.50 1.50 0.0 0 0 803.35 635.50
  L 789.12 626.49
  A 1.50 1.50 0.0 0 1 788.59 624.53
  L 795.30 611.73
  A 1.50 1.50 0.0 0 0 794.67 609.70
  L 789.63 607.06
  A 1.50 1.50 0.0 0 0 787.67 607.59
  L 779.43 620.62
  A 1.50 1.50 0.0 0 1 777.52 621.17
  L 773.21 619.12
  Z
  M 143.47 666.58
  Q 145.40 667.64 148.12 668.89
  C 156.31 672.63 168.54 662.89 165.02 653.96
  C 161.12 644.07 155.15 637.24 146.74 626.28
  A 1.00 0.99 -35.1 0 0 145.40 626.05
  L 108.88 649.95
  A 2.08 2.08 0.0 0 0 108.32 652.90
  L 114.66 661.82
  A 1.64 1.64 0.0 0 0 116.90 662.24
  L 130.89 653.09
  A 0.80 0.80 0.0 0 1 131.98 653.29
  Q 133.98 656.04 132.57 658.79
  Q 128.78 666.15 124.67 674.34
  A 2.77 2.76 40.6 0 0 124.89 677.19
  L 132.51 687.92
  A 0.70 0.69 43.4 0 0 133.66 687.89
  C 138.14 680.92 142.66 674.90 142.67 667.06
  A 0.54 0.54 0.0 0 1 143.47 666.58
  Z
  M 753.49 659.42
  L 749.45 656.42
  A 1.70 1.70 0.0 0 1 749.07 654.09
  L 759.12 639.55
  A 1.75 1.75 0.0 0 0 758.67 637.12
  L 753.73 633.70
  A 2.11 2.11 0.0 0 0 750.79 634.24
  L 732.21 661.15
  A 0.81 0.80 34.6 0 0 732.42 662.28
  L 769.14 687.64
  A 1.11 1.10 -52.2 0 0 770.60 687.45
  Q 774.85 682.56 777.25 677.79
  A 2.00 2.00 0.0 0 0 776.60 675.24
  L 763.71 666.34
  A 1.23 1.23 0.0 0 1 763.40 664.62
  L 772.01 652.15
  A 1.90 1.90 0.0 0 0 771.58 649.54
  L 767.14 646.23
  A 1.82 1.82 0.0 0 0 764.59 646.60
  L 755.24 659.17
  A 1.25 1.25 0.0 0 1 753.49 659.42
  Z
  M 746.8752 715.7886
  A 21.35 21.35 0.0 0 0 746.2955 685.6007
  L 742.4190 681.8702
  A 21.35 21.35 0.0 0 0 712.2311 682.4498
  L 708.2648 686.5714
  A 21.35 21.35 0.0 0 0 708.8445 716.7593
  L 712.7210 720.4898
  A 21.35 21.35 0.0 0 0 742.9089 719.9102
  L 746.8752 715.7886
  Z
  M 192.6066 684.5167
  A 1.95 1.95 0.0 0 0 189.8501 684.4349
  L 158.3958 714.0760
  A 1.95 1.95 0.0 0 0 158.3140 716.8325
  L 165.6934 724.6633
  A 1.95 1.95 0.0 0 0 168.4499 724.7451
  L 199.9042 695.1040
  A 1.95 1.95 0.0 0 0 199.9860 692.3475
  L 192.6066 684.5167
  Z
  M 205.12 728.27
  Q 205.13 728.44 205.10 728.76
  Q 203.88 740.68 202.66 750.68
  Q 202.36 753.12 202.44 756.31
  A 2.31 2.31 0.0 0 0 203.37 758.10
  L 212.22 764.69
  A 1.01 1.00 38.6 0 0 213.59 764.54
  L 242.48 730.42
  A 0.85 0.85 0.0 0 0 242.34 729.19
  L 233.24 722.42
  A 1.56 1.56 0.0 0 0 231.12 722.66
  L 217.14 739.18
  A 0.86 0.86 0.0 0 1 215.63 738.52
  L 218.87 711.94
  Q 218.87 711.91 218.87 711.88
  Q 218.56 709.97 216.93 708.54
  Q 211.97 704.20 209.52 702.28
  A 1.29 1.29 0.0 0 0 207.74 702.47
  L 178.89 736.54
  A 1.03 1.02 40.5 0 0 179.01 737.99
  L 187.24 744.95
  A 1.77 1.76 -49.5 0 0 189.73 744.75
  L 203.99 727.90
  A 0.64 0.64 0.0 0 1 205.12 728.27
  Z
  M 681.67 737.85
  A 1.77 1.77 0.0 0 0 679.23 737.42
  L 663.21 748.31
  A 1.77 1.77 0.0 0 1 660.78 747.88
  L 658.37 744.49
  A 1.77 1.77 0.0 0 1 658.81 742.00
  L 676.07 730.26
  A 1.77 1.77 0.0 0 0 676.51 727.77
  L 672.98 722.80
  A 1.77 1.77 0.0 0 0 670.54 722.36
  L 641.45 742.15
  A 1.77 1.77 0.0 0 0 641.01 744.64
  L 666.10 779.93
  A 1.77 1.77 0.0 0 0 668.57 780.34
  L 697.99 759.43
  A 1.77 1.77 0.0 0 0 698.40 756.96
  L 694.50 751.46
  A 1.77 1.77 0.0 0 0 692.03 751.05
  L 674.32 763.63
  A 1.77 1.77 0.0 0 1 671.83 763.18
  L 668.43 758.18
  A 1.77 1.77 0.0 0 1 668.87 755.75
  L 684.38 744.72
  A 1.77 1.77 0.0 0 0 684.79 742.25
  L 681.67 737.85
  Z
  M 242.47 742.79
  A 0.58 0.57 -60.3 0 0 242.67 743.55
  L 252.86 749.99
  A 1.38 1.38 0.0 0 1 253.29 751.89
  L 236.00 779.23
  A 1.25 1.25 0.0 0 0 236.35 780.93
  C 239.44 783.03 243.91 786.43 247.21 787.06
  A 1.98 1.97 -69.0 0 0 249.26 786.14
  Q 257.38 772.82 264.09 762.35
  Q 265.17 760.67 266.90 758.84
  A 0.91 0.91 0.0 0 1 268.05 758.69
  L 277.96 764.96
  A 1.51 1.51 0.0 0 0 280.04 764.49
  L 284.86 756.87
  A 0.95 0.94 32.6 0 0 284.57 755.57
  Q 268.77 745.33 254.30 736.93
  Q 251.80 735.48 248.79 734.10
  A 1.63 1.63 0.0 0 0 246.65 734.83
  L 242.47 742.79
  Z
  M 639.39 758.56
  C 629.30 748.08 614.92 754.01 606.28 762.54
  C 600.69 768.07 600.17 777.26 602.82 784.18
  Q 605.63 791.48 610.85 796.66
  C 620.19 805.93 634.10 802.38 643.16 794.61
  C 648.45 790.07 650.07 785.27 649.85 778.31
  C 649.78 775.90 648.92 774.76 646.43 775.27
  Q 641.08 776.37 637.14 776.52
  A 1.02 1.01 86.3 0 0 636.17 777.63
  Q 636.18 777.76 636.52 781.25
  C 637.16 787.71 630.77 791.47 625.03 790.01
  A 3.25 3.03 -17.3 0 1 623.93 789.48
  Q 616.59 783.87 615.39 774.66
  Q 614.92 771.02 616.15 769.01
  C 618.25 765.59 622.92 763.35 626.65 765.18
  Q 628.98 766.32 629.61 766.69
  A 1.77 1.77 0.0 0 0 631.47 766.66
  Q 636.56 763.43 639.44 759.91
  A 1.02 1.02 0.0 0 0 639.39 758.56
  Z
  M 316.20 788.59
  C 310.64 786.18 303.88 783.64 298.55 780.25
  A 1.64 1.63 28.3 0 1 297.93 778.20
  L 299.47 774.78
  A 1.70 1.69 24.1 0 1 301.71 773.93
  L 320.88 782.56
  A 1.71 1.71 0.0 0 0 323.14 781.70
  L 325.76 775.87
  A 1.71 1.70 -65.8 0 0 324.91 773.61
  L 291.96 758.79
  A 1.11 1.11 0.0 0 0 290.49 759.35
  L 272.11 800.19
  A 1.16 1.16 0.0 0 0 272.70 801.72
  Q 298.51 813.09 305.00 816.06
  Q 307.80 817.34 309.07 814.93
  Q 310.72 811.78 311.73 808.72
  A 1.67 1.66 -67.7 0 0 310.90 806.72
  C 305.30 803.94 297.84 801.32 291.12 797.55
  A 1.92 1.91 26.8 0 1 290.31 795.10
  L 292.33 790.61
  A 2.14 2.14 0.0 0 1 295.16 789.54
  L 312.35 797.27
  A 1.63 1.63 0.0 0 0 314.51 796.45
  L 317.05 790.79
  A 1.66 1.65 -66.3 0 0 316.20 788.59
  Z
  M 566.07 801.40
  L 588.81 818.33
  A 1.62 1.61 -36.1 0 0 590.32 818.56
  L 601.06 814.75
  A 1.47 1.47 0.0 0 0 601.95 812.88
  L 587.19 771.28
  A 0.85 0.84 69.9 0 0 586.10 770.77
  L 576.09 774.51
  A 1.72 1.70 -20.0 0 0 575.07 776.68
  L 582.64 798.01
  A 0.50 0.50 0.0 0 1 581.87 798.57
  L 558.81 781.40
  A 2.52 2.51 53.6 0 0 556.46 781.04
  L 545.86 784.80
  A 1.15 1.14 -19.8 0 0 545.16 786.27
  L 559.89 827.79
  A 1.05 1.04 73.8 0 0 561.12 828.47
  Q 565.41 827.47 569.89 825.63
  Q 573.14 824.31 571.82 820.97
  Q 567.81 810.89 565.18 802.03
  A 0.58 0.57 -80.2 0 1 566.07 801.40
  Z
  M 339.72 815.05
  A 2.00 2.00 0.0 0 1 338.39 812.56
  L 347.51 782.68
  A 2.00 2.00 0.0 0 0 346.18 780.19
  L 336.27 777.16
  A 2.00 2.00 0.0 0 0 333.78 778.49
  L 321.22 819.66
  A 2.00 2.00 0.0 0 0 322.55 822.15
  L 354.33 831.84
  A 2.00 2.00 0.0 0 0 356.82 830.51
  L 359.10 823.05
  A 2.00 2.00 0.0 0 0 357.77 820.56
  L 339.72 815.05
  Z
  M 546.20 830.77
  L 544.45 823.46
  A 1.40 1.39 -12.0 0 0 542.84 822.42
  L 521.61 826.36
  A 2.08 2.08 0.0 0 1 519.18 824.69
  L 518.22 819.51
  A 2.07 2.06 79.6 0 1 519.87 817.10
  L 537.69 813.79
  A 2.53 2.53 0.0 0 0 539.72 810.84
  L 538.90 806.44
  A 2.53 2.53 0.0 0 0 535.74 804.46
  Q 526.93 806.90 517.75 807.89
  A 1.80 1.78 81.5 0 1 515.80 806.44
  L 515.04 802.30
  A 1.62 1.62 0.0 0 1 516.33 800.41
  L 537.32 796.52
  A 1.39 1.39 0.0 0 0 538.44 794.90
  L 537.19 788.17
  A 1.42 1.42 0.0 0 0 535.53 787.03
  L 500.80 793.47
  A 1.67 1.66 -10.6 0 0 499.47 795.40
  L 507.45 838.39
  A 1.28 1.28 0.0 0 0 508.96 839.41
  Q 519.30 837.28 531.55 835.38
  C 534.61 834.90 538.47 834.06 542.92 833.20
  Q 545.60 832.68 546.07 831.78
  A 1.48 1.47 52.5 0 0 546.20 830.77
  Z
  M 376.27 789.52
  L 368.77 834.06
  A 0.71 0.71 0.0 0 0 369.35 834.88
  L 403.81 840.68
  A 1.26 1.26 0.0 0 0 405.27 839.61
  L 406.52 830.35
  A 0.91 0.91 0.0 0 0 405.77 829.33
  L 385.89 825.98
  A 1.42 1.42 0.0 0 1 384.73 824.34
  Q 387.70 807.22 389.53 795.40
  C 389.95 792.68 390.71 790.68 387.50 790.23
  Q 384.05 789.75 377.46 788.67
  A 1.04 1.04 0.0 0 0 376.27 789.52
  Z
  M 421.71 794.60
  A 1.34 1.34 0.0 0 0 420.19 795.84
  L 417.09 839.85
  A 1.34 1.34 0.0 0 0 418.24 841.27
  L 429.66 842.82
  A 1.34 1.34 0.0 0 0 431.18 841.58
  L 434.28 797.57
  A 1.34 1.34 0.0 0 0 433.13 796.15
  L 421.71 794.60
  Z
  M 490.39 815.32
  L 471.48 816.26
  A 1.75 1.75 0.0 0 0 469.82 818.10
  L 470.09 823.49
  A 1.80 1.79 0.5 0 0 471.76 825.19
  L 478.80 825.69
  A 1.41 1.41 0.0 0 1 480.09 826.88
  C 480.34 828.46 480.17 829.76 478.72 830.72
  C 472.03 835.10 462.11 834.54 459.99 825.19
  C 458.93 820.52 458.26 815.14 460.61 810.80
  Q 464.20 804.16 471.36 805.48
  C 474.09 805.98 475.15 807.23 477.09 809.39
  A 1.57 1.56 -26.1 0 0 478.56 809.89
  L 488.76 808.00
  A 1.61 1.60 -13.8 0 0 490.00 805.95
  C 486.14 793.50 472.52 794.50 462.21 796.20
  C 452.18 797.84 446.34 804.55 445.13 814.54
  C 443.46 828.26 448.37 841.42 463.78 843.24
  C 473.10 844.34 483.26 842.34 490.67 836.20
  Q 492.71 834.51 492.62 832.95
  Q 491.82 819.59 491.53 816.31
  A 1.09 1.09 0.0 0 0 490.39 815.32
  Z"
/>
<path fill="#d51500" d="
  M 447.28 80.71
  L 451.59 66.10
  A 0.57 0.57 0.0 0 1 452.69 66.09
  L 457.15 80.66
  A 0.57 0.57 0.0 0 1 456.61 81.40
  L 447.83 81.45
  A 0.57 0.57 0.0 0 1 447.28 80.71
  Z"
/>
<rect fill="#d51500" x="-9.78" y="-12.96" transform="translate(575.02,97.15) rotate(21.6)" width="19.56" height="25.92" rx="9.11"/>
<rect fill="#d51500" x="-9.77" y="-13.03" transform="translate(320.72,98.70) rotate(-22.6)" width="19.54" height="26.06" rx="9.12"/>
<rect fill="#d51500" x="-9.63" y="-13.02" transform="translate(692.09,163.54) rotate(42.4)" width="19.26" height="26.04" rx="9.07"/>
<path fill="#d51500" d="
  M 191.02 184.84
  L 184.10 171.24
  A 0.65 0.65 0.0 0 1 185.01 170.38
  L 198.25 177.95
  A 0.65 0.65 0.0 0 1 198.38 178.99
  L 192.04 185.02
  A 0.65 0.65 0.0 0 1 191.02 184.84
  Z"
/>
<path fill="#010004" d="
  M 505.22 228.99
  Q 503.19 229.08 501.40 230.35
  Q 493.31 218.18 482.38 209.63
  C 476.75 205.23 470.06 202.45 462.71 201.20
  C 459.29 200.62 457.64 199.09 455.17 196.84
  A 6.30 6.11 -14.0 0 0 452.86 195.50
  C 442.56 192.22 431.44 191.85 420.55 193.56
  C 409.46 195.31 398.20 198.12 387.32 201.78
  Q 384.35 202.78 378.59 203.94
  C 373.24 205.02 368.64 206.17 363.98 208.42
  C 357.52 211.54 354.92 220.54 354.95 227.27
  Q 354.96 230.14 355.41 234.28
  A 0.57 0.56 -16.7 0 0 356.23 234.72
  Q 356.34 234.67 356.73 234.37
  Q 357.04 234.14 357.12 233.89
  Q 358.83 228.91 363.76 225.52
  A 0.91 0.90 -13.2 0 1 365.17 226.39
  L 364.93 228.21
  A 1.21 1.20 89.7 0 0 366.30 229.57
  Q 372.36 228.67 377.67 229.18
  C 379.74 230.56 382.33 232.39 380.22 234.79
  L 365.25 235.39
  A 2.86 2.86 0.0 0 0 362.76 237.06
  Q 361.83 239.10 360.89 241.84
  C 359.96 244.55 356.40 246.94 354.50 243.43
  Q 350.08 235.29 348.34 228.74
  C 346.75 222.77 348.83 218.89 352.48 213.46
  C 357.67 205.76 365.56 202.35 374.22 200.73
  Q 386.34 198.46 391.37 197.10
  C 396.21 195.79 399.13 194.05 403.70 191.39
  A 7.34 7.26 -67.5 0 1 405.41 190.67
  Q 413.74 188.37 423.00 188.42
  Q 437.62 188.50 450.42 192.11
  Q 466.48 196.64 481.06 201.21
  A 3.98 3.96 -8.9 0 1 483.14 202.72
  C 486.58 207.56 489.37 211.16 493.50 215.59
  Q 499.57 222.11 505.22 228.99
  Z"
/>
<path fill="#010004" d="
  M 402.88 208.30
  A 0.31 0.30 47.7 0 1 402.90 207.76
  Q 408.07 205.42 412.98 204.35
  C 417.08 203.46 420.27 203.98 423.70 205.41
  A 1.20 1.20 0.0 0 1 424.10 207.36
  Q 421.74 209.80 419.66 213.13
  C 417.48 216.64 412.74 219.78 409.28 215.68
  C 407.30 213.34 405.99 210.13 402.88 208.30
  Z
  M 415.0227 211.1039
  A 1.46 1.12 -35.9 0 0 413.1833 211.0528
  A 1.46 1.12 -35.9 0 0 412.6573 212.8161
  A 1.46 1.12 -35.9 0 0 414.4967 212.8672
  A 1.46 1.12 -35.9 0 0 415.0227 211.1039
  Z"
/>
<path fill="#010004" d="
  M 370.03 226.79
  A 0.10 0.10 0.0 0 1 369.91 226.72
  L 369.90 226.68
  A 4.25 2.46 -18.4 0 1 373.15 223.01
  L 373.59 222.86
  A 4.25 2.46 -18.4 0 1 378.40 223.86
  L 378.41 223.89
  A 0.10 0.10 0.0 0 1 378.35 224.02
  L 370.03 226.79
  Z"
/>
<path fill="#010d32" d="
  M 505.22 228.99
  Q 511.41 236.07 514.07 244.55
  A 2.50 2.50 0.0 0 1 513.81 246.61
  Q 513.62 246.93 511.96 249.45
  C 508.22 255.16 510.87 263.88 512.31 269.51
  C 513.26 273.17 513.39 275.60 513.72 279.79
  A 10.21 10.08 35.2 0 0 514.06 281.68
  Q 518.21 296.18 528.42 307.42
  C 532.43 311.84 540.08 317.56 546.26 317.58
  C 606.17 317.76 652.49 318.08 699.26 319.42
  Q 704.50 319.57 709.61 320.19
  A 0.86 0.86 0.0 0 1 710.28 321.42
  Q 701.86 338.88 690.69 362.66
  Q 687.06 370.42 683.13 377.88
  Q 631.07 476.85 582.20 570.43
  Q 576.65 581.06 572.22 588.22
  C 553.67 618.24 533.86 651.35 549.39 687.49
  A 1.04 1.03 73.5 0 1 548.62 688.92
  Q 527.77 692.35 526.12 692.65
  Q 517.01 694.26 509.24 698.23
  A 1.48 1.48 0.0 0 1 507.22 697.51
  C 498.21 677.08 487.10 658.41 471.44 642.54
  Q 471.16 642.26 470.81 642.12
  A 1.07 1.05 13.3 0 0 469.34 643.01
  Q 467.59 667.71 474.42 691.31
  Q 477.63 702.44 482.09 715.40
  Q 482.31 716.04 481.96 716.51
  A 0.47 0.47 0.0 0 1 481.59 716.69
  L 422.30 716.10
  A 0.90 0.90 0.0 0 1 421.40 715.22
  Q 421.19 706.82 421.87 701.51
  C 424.39 681.86 428.73 661.98 425.44 642.27
  A 0.98 0.98 0.0 0 0 424.09 641.53
  Q 423.22 641.89 422.64 642.40
  C 409.27 654.20 399.77 669.82 392.89 686.39
  Q 389.67 694.13 389.22 695.02
  A 1.45 1.43 -74.1 0 1 387.80 695.82
  C 376.28 694.88 363.97 686.06 350.90 684.86
  A 1.55 1.55 0.0 0 1 349.51 683.17
  Q 351.09 667.43 352.05 653.51
  C 352.88 641.61 351.39 629.29 345.45 618.93
  C 340.88 610.95 336.46 602.15 333.37 595.90
  C 321.90 572.69 308.18 544.25 292.74 514.92
  Q 258.59 450.04 213.33 365.02
  C 204.44 348.31 196.70 332.14 188.93 315.55
  A 0.59 0.59 0.0 0 1 189.46 314.70
  Q 239.37 314.35 289.25 313.65
  Q 311.84 313.34 374.50 313.51
  C 376.53 313.51 379.21 313.41 381.41 312.80
  C 386.76 311.33 394.59 311.42 399.11 306.35
  A 2.10 2.10 0.0 0 0 399.43 304.04
  C 395.95 296.81 397.61 289.20 400.88 282.11
  Q 403.11 277.27 407.15 268.90
  C 413.80 255.08 407.80 240.60 392.92 236.61
  Q 386.78 234.97 380.22 234.79
  C 382.33 232.39 379.74 230.56 377.67 229.18
  Q 393.32 229.58 405.19 238.79
  Q 410.52 242.92 412.55 245.99
  C 419.56 256.54 412.34 270.80 407.89 281.50
  C 406.74 284.25 406.05 286.94 404.88 290.85
  A 0.80 0.80 0.0 0 0 406.23 291.62
  L 416.62 280.48
  A 0.65 0.65 0.0 0 1 417.50 280.42
  C 420.57 282.93 417.72 285.96 418.42 289.20
  A 1.34 1.33 57.0 0 0 420.80 289.71
  C 425.60 283.13 428.66 274.01 435.06 267.79
  A 0.75 0.75 0.0 0 1 436.25 267.98
  C 437.88 271.06 439.24 277.11 441.94 286.51
  Q 442.18 287.33 442.73 287.73
  A 0.72 0.72 0.0 0 0 443.80 287.45
  C 445.53 283.69 447.18 276.97 451.11 272.47
  A 1.11 1.11 0.0 0 1 452.97 272.76
  L 455.83 279.53
  A 0.83 0.82 40.5 0 0 457.39 279.41
  Q 458.43 275.23 459.79 269.27
  Q 460.72 265.20 462.72 261.73
  A 0.80 0.79 31.5 0 1 463.85 261.46
  Q 466.15 263.02 468.13 260.83
  A 1.47 1.47 0.0 0 1 470.45 261.00
  L 471.93 263.23
  A 1.34 1.20 25.1 0 1 472.13 263.70
  C 473.35 269.08 473.80 273.85 477.10 276.22
  A 0.88 0.88 0.0 0 0 478.48 275.40
  Q 478.11 272.44 476.30 263.40
  C 475.40 258.90 475.94 256.38 478.18 253.03
  A 1.09 1.09 0.0 0 1 479.83 252.83
  L 486.84 259.36
  A 0.95 0.95 0.0 0 0 488.43 258.60
  Q 487.98 252.60 489.31 247.61
  A 1.09 1.09 0.0 0 1 491.14 247.12
  C 493.96 249.95 495.05 253.48 496.82 257.17
  A 0.83 0.83 0.0 0 0 498.40 256.87
  Q 498.63 253.54 497.19 247.52
  Q 496.10 242.98 498.02 239.43
  A 0.90 0.89 -48.5 0 1 499.54 239.33
  Q 500.85 241.18 502.05 242.32
  A 2.03 1.79 47.5 0 0 504.53 242.58
  Q 505.04 242.18 504.95 241.23
  C 504.72 238.65 505.20 236.23 504.16 234.62
  Q 502.76 232.47 501.40 230.35
  Q 503.19 229.08 505.22 228.99
  Z
  M 497.02 408.77
  L 497.30 380.31
  A 1.69 1.68 -89.5 0 0 495.64 378.61
  L 410.82 377.78
  A 1.80 1.79 1.5 0 0 409.00 379.50
  Q 408.62 389.70 408.80 402.50
  Q 409.35 439.97 408.88 457.03
  Q 408.84 458.49 408.61 460.40
  A 0.48 0.48 0.0 0 1 407.70 460.55
  Q 404.81 454.70 402.94 448.54
  Q 395.85 425.11 386.92 399.60
  C 384.86 393.75 383.08 387.57 380.95 380.74
  Q 380.23 378.44 377.53 378.41
  Q 368.70 378.30 360.50 378.31
  Q 358.36 378.32 357.09 378.73
  A 1.91 1.87 3.6 0 0 355.96 379.71
  C 355.03 381.59 353.33 385.98 352.60 388.29
  Q 348.33 401.68 345.18 410.83
  C 338.13 431.27 332.12 450.82 325.27 470.79
  Q 323.92 474.74 321.98 481.71
  A 1.19 1.19 0.0 0 0 323.02 483.21
  Q 332.70 484.11 341.85 483.13
  A 2.62 2.61 -84.4 0 0 344.07 481.30
  L 349.41 463.78
  A 2.70 2.69 -81.2 0 1 352.01 461.87
  L 384.21 462.19
  A 1.52 1.50 -8.0 0 1 385.65 463.26
  L 391.52 482.76
  A 1.00 1.00 0.0 0 0 392.46 483.47
  L 427.47 483.82
  A 1.70 1.69 0.0 0 0 429.18 482.12
  Q 429.06 453.71 429.15 447.24
  Q 429.18 444.90 429.80 440.32
  A 1.10 1.09 -85.8 0 1 430.89 439.37
  L 469.50 439.75
  A 1.80 1.80 0.0 0 0 471.32 437.96
  L 471.48 422.34
  A 1.32 1.32 0.0 0 0 470.19 421.01
  L 430.66 419.89
  A 1.36 1.36 0.0 0 1 429.34 418.62
  Q 428.88 411.26 429.46 402.75
  Q 429.59 400.85 430.20 398.87
  A 1.49 1.49 0.0 0 1 431.54 397.81
  Q 453.17 396.55 475.79 397.60
  A 1.29 1.29 0.0 0 1 477.01 398.81
  C 477.58 408.65 477.20 417.80 477.13 427.61
  Q 476.85 471.70 476.83 480.71
  Q 476.83 483.46 478.85 483.50
  Q 488.60 483.66 495.74 483.54
  A 1.04 1.04 0.0 0 0 496.77 482.54
  Q 497.35 466.77 497.20 454.00
  Q 497.19 453.42 497.35 453.04
  A 0.35 0.35 0.0 0 1 498.00 453.08
  Q 505.08 475.22 527.72 481.53
  Q 547.27 486.97 564.93 478.81
  C 574.55 474.37 583.16 466.00 586.74 456.48
  Q 593.17 439.37 590.84 419.87
  C 589.62 409.63 585.23 399.66 578.69 392.37
  C 571.32 384.15 558.30 379.31 547.75 378.60
  C 534.25 377.69 522.41 379.26 511.91 388.23
  Q 502.18 396.54 497.84 408.92
  A 0.42 0.42 0.0 0 1 497.02 408.77
  Z"
/>
<path fill="#010d32" d="
  M 543.03 396.84
  C 562.66 396.97 569.88 414.38 569.77 431.09
  C 569.66 447.80 562.21 465.11 542.59 464.98
  C 522.96 464.85 515.74 447.45 515.85 430.73
  C 515.96 414.02 523.41 396.71 543.03 396.84
  Z"
/>
<path fill="#010d32" d="
  M 367.91 406.27
  A 0.14 0.14 0.0 0 1 368.17 406.27
  Q 372.24 418.62 377.06 436.47
  Q 377.49 438.04 377.63 439.86
  A 2.02 2.02 0.0 0 1 376.22 441.95
  Q 374.86 442.37 373.50 442.48
  Q 365.67 443.11 357.36 442.55
  A 0.58 0.58 0.0 0 1 356.82 441.95
  Q 356.90 439.87 357.62 437.66
  Q 360.59 428.65 367.91 406.27
  Z"
/>
<rect fill="#d51500" x="-13.20" y="-9.50" transform="translate(74.62,445.88) rotate(-1.3)" width="26.40" height="19.00" rx="8.82"/>
<path fill="#d51500" d="
  M 817.23 455.98
  A 1.89 1.89 0.0 0 1 815.36 454.08
  L 815.40 447.52
  A 5.01 4.52 -89.6 0 1 819.96 442.54
  L 820.14 442.54
  A 5.01 4.52 -89.6 0 1 824.62 447.58
  L 824.58 454.14
  A 1.89 1.89 0.0 0 1 822.67 456.02
  L 817.23 455.98
  Z"
/>
<path fill="#d51500" d="
  M 89.88 493.25
  A 1.71 1.71 0.0 0 1 91.81 494.70
  L 92.58 500.01
  A 6.13 4.77 81.8 0 1 88.73 506.76
  L 88.49 506.79
  A 6.13 4.77 81.8 0 1 82.90 501.40
  L 82.13 496.10
  A 1.71 1.71 0.0 0 1 83.58 494.16
  L 89.88 493.25
  Z"
/>
<path fill="#010d32" d="
  M 617.8794 634.8380
  A 24.64 22.48 -0.4 0 1 593.3969 657.4895
  A 24.64 22.48 -0.4 0 1 568.6006 635.1820
  A 24.64 22.48 -0.4 0 1 593.0831 612.5305
  A 24.64 22.48 -0.4 0 1 617.8794 634.8380
  Z
  M 613.1000 635.0754
  A 19.82 17.69 -0.1 0 0 593.2491 617.4200
  A 19.82 17.69 -0.1 0 0 573.4600 635.1446
  A 19.82 17.69 -0.1 0 0 593.3109 652.8000
  A 19.82 17.69 -0.1 0 0 613.1000 635.0754
  Z"
/>
<path fill="#010d32" d="
  M 604.37 647.61
  A 0.40 0.39 -13.1 0 1 604.01 648.18
  L 599.53 648.14
  A 0.77 0.76 -2.5 0 1 598.78 647.46
  L 598.07 640.35
  A 2.78 2.77 -2.4 0 0 595.34 637.85
  L 590.11 637.80
  A 1.73 1.73 0.0 0 0 588.36 639.51
  L 588.29 646.72
  A 1.57 1.57 0.0 0 1 586.70 648.27
  L 584.56 648.25
  A 1.67 1.66 -89.7 0 1 582.91 646.57
  L 583.13 624.21
  A 1.34 1.33 -89.4 0 1 584.47 622.89
  Q 589.99 622.96 596.76 622.87
  C 603.84 622.78 607.01 631.03 601.24 635.44
  A 0.50 0.49 49.8 0 0 601.18 636.17
  C 603.02 638.19 603.67 639.12 603.43 641.37
  Q 603.03 644.97 604.37 647.61
  Z
  M 588.39 628.26
  L 588.37 632.70
  A 1.07 1.07 0.0 0 0 589.44 633.77
  L 595.82 633.80
  A 3.35 3.06 0.2 0 0 599.18 630.75
  L 599.18 630.29
  A 3.35 3.06 0.2 0 0 595.84 627.22
  L 589.46 627.19
  A 1.07 1.07 0.0 0 0 588.39 628.26
  Z"
/>
<path fill="#d51500" d="
  M 145.77 643.06
  A 1.26 1.26 0.0 0 1 147.53 643.32
  L 150.57 647.40
  A 6.63 4.71 53.3 0 1 150.76 655.53
  L 150.58 655.66
  A 6.63 4.71 53.3 0 1 142.84 653.16
  L 139.80 649.08
  A 1.26 1.26 0.0 0 1 140.06 647.31
  L 145.77 643.06
  Z"
/>
<rect fill="#d51500" x="-13.05" y="-9.68" transform="translate(727.70,701.13) rotate(42.3)" width="26.10" height="19.36" rx="9.07"/>
</svg>
