<svg xmlns="http://www.w3.org/2000/svg"  viewBox="0 0 24 24" width="96px" height="96px"><path fill="#CFD8DC" d="M4.5,16.5C2.019,16.5,0,14.481,0,12s2.019-4.5,4.5-4.5S9,9.519,9,12S6.981,16.5,4.5,16.5z M4.5,9 c-1.654,0-3,1.346-3,3s1.346,3,3,3s3-1.346,3-3S6.154,9,4.5,9z"/><path fill="#CFD8DC" d="M9.5,16.5C7.019,16.5,5,14.481,5,12s2.019-4.5,4.5-4.5S14,9.519,14,12S11.981,16.5,9.5,16.5z M9.5,9 c-1.654,0-3,1.346-3,3s1.346,3,3,3s3-1.346,3-3S11.154,9,9.5,9z"/><path fill="#CFD8DC" d="M14.5,16.5c-2.481,0-4.5-2.019-4.5-4.5s2.019-4.5,4.5-4.5S19,9.519,19,12S16.981,16.5,14.5,16.5z M14.5,9 c-1.654,0-3,1.346-3,3s1.346,3,3,3s3-1.346,3-3S16.154,9,14.5,9z"/><path fill="#CFD8DC" d="M19.5,16.5c-2.481,0-4.5-2.019-4.5-4.5s2.019-4.5,4.5-4.5S24,9.519,24,12S21.981,16.5,19.5,16.5z M19.5,9 c-1.654,0-3,1.346-3,3s1.346,3,3,3s3-1.346,3-3S21.154,9,19.5,9z"/></svg>