<svg xmlns="http://www.w3.org/2000/svg"  viewBox="0 0 24 24" width="96px" height="96px"><path d="M19.258,4.636c-0.363-0.198-0.819-0.063-1.017,0.3c-0.198,0.364-0.063,0.819,0.3,1.017c4.066,2.213,4.051,5.74,3.88,7.064	H11.498c0.878-1.527,4.254-6.073,5.42-7.549c0.28-0.366,0.357-0.797,0.211-1.184c-0.094-0.25-0.365-0.692-1.123-0.845	C9.889,2.162,4.569,3.541,1.777,7.13c-1.935,2.487-2.319,5.704-1.003,8.394C2.477,19.004,6.568,21,12,21	c2.939,0,5.452-0.589,7.47-1.75c0.359-0.207,0.482-0.665,0.276-1.024c-0.207-0.359-0.667-0.483-1.024-0.276	C16.935,18.979,14.673,19.5,12,19.5c-4.837,0-8.437-1.689-9.878-4.635c-1.062-2.171-0.741-4.782,0.839-6.813	c1.848-2.376,5.047-3.611,8.909-3.565c-1.7,2.288-4.663,6.487-4.975,6.985c-1.659,2.633-0.785,4.045-0.07,4.693	C7.643,16.9,7.898,17.13,13.96,17.13c1.837,0,4.208-0.021,7.288-0.056c1.054,0,2.031-1.161,2.488-2.957	C24.463,11.263,23.726,7.067,19.258,4.636z"/></svg>