<svg xmlns="http://www.w3.org/2000/svg"  viewBox="0 0 24 24" width="96px" height="96px"><path fill="#CCC" d="M12,4C5.383,4,0,7.365,0,11.5S5.383,19,12,19s12-3.365,12-7.5C24,7.364,18.617,4,12,4z M14.943,9.324	l-0.021,0.017c-0.306-1.873-0.994-3.29-1.859-3.939C19.155,5.75,20.141,8.435,14.943,9.324z M12,7.144	c0.655,0,1.22,0.907,1.479,2.357c-0.982,0.075-1.975,0.075-2.958,0C10.78,8.051,11.344,7.145,12,7.144z M5.737,7.219	c0.334-0.948,2.528-1.664,5.2-1.817C10.07,6.051,9.383,7.468,9.077,9.341L9.057,9.325C6.778,8.934,5.424,8.103,5.737,7.219z M3.914,8.006C3.913,8.004,3.913,8.001,3.912,7.998C3.925,7.986,3.937,7.976,3.95,7.964c0.542,1.863,3.062,2.729,4.969,3.077	l-0.028,0.034c-0.066,2.11,0.321,5.25,1.865,6.585C3.286,17.097-0.654,11.793,3.914,8.006z M12,15.576	c-1.615,0-1.626-4.232-1.643-4.332c1.053,0.093,2.169,0.099,3.293,0l-0.009,0.027C13.642,12.626,13.272,15.576,12,15.576z M13.244,17.661c1.547-1.337,1.931-4.456,1.865-6.585l-0.028-0.034c1.916-0.35,4.432-1.218,4.97-3.08	c0.013,0.011,0.025,0.024,0.038,0.035C20.087,8,20.087,8.002,20.086,8.005c0.447,0.371,0.871,0.843,1.106,1.185	c-0.001-0.005-0.002-0.01-0.003-0.014c0.534,0.746,0.834,1.569,0.834,2.435C22.023,14.724,18.191,17.287,13.244,17.661z"/></svg>